<svg width="16" height="16" viewBox="0 0 16 16" fill="none" xmlns="http://www.w3.org/2000/svg">
<g id="calendar 1">
<g id="Group">
<path id="Vector" d="M15.1109 5.5835C15.1109 4.65544 15.1109 4.00619 15.1109 3.94461C15.1109 3.25536 14.5501 2.69461 13.8609 2.69461H13.6942V4.22238C13.6942 4.4525 13.5077 4.63905 13.2776 4.63905C13.0474 4.63905 12.8609 4.4525 12.8609 4.22238C12.8609 3.75464 12.8609 2.46594 12.8609 2.00016C12.8609 1.77005 12.6743 1.5835 12.4442 1.5835C12.2141 1.5835 12.0276 1.77005 12.0276 2.00016V2.69461H9.24978V4.22238C9.24978 4.4525 9.06323 4.63905 8.83312 4.63905C8.603 4.63905 8.41645 4.4525 8.41645 4.22238C8.41645 3.75464 8.41645 2.46594 8.41645 2.00016C8.41645 1.77005 8.22989 1.5835 7.99978 1.5835C7.76967 1.5835 7.58312 1.77005 7.58312 2.00016V2.69461H4.80534V4.22238C4.80534 4.4525 4.61878 4.63905 4.38867 4.63905C4.15856 4.63905 3.97201 4.4525 3.97201 4.22238C3.97201 3.75464 3.97201 2.46594 3.97201 2.00016C3.97201 1.77005 3.78545 1.5835 3.55534 1.5835C3.32523 1.5835 3.13867 1.77005 3.13867 2.00016V2.69461H2.13867C1.44942 2.69461 0.888672 3.25536 0.888672 3.94461V5.5835H15.1109Z" fill="white"/>
<path id="Vector_2" d="M0.888672 6.41699V13.167C0.888672 13.8562 1.44942 14.417 2.13867 14.417H13.8609C14.5501 14.417 15.1109 13.8562 15.1109 13.167C15.1109 12.9885 15.1109 9.08888 15.1109 6.41699C14.8516 6.41699 1.03212 6.41699 0.888672 6.41699ZM4.88867 12.1948H3.99978C3.76967 12.1948 3.58312 12.0082 3.58312 11.7781C3.58312 11.548 3.76967 11.3614 3.99978 11.3614H4.88867C5.11878 11.3614 5.30534 11.548 5.30534 11.7781C5.30534 12.0082 5.11878 12.1948 4.88867 12.1948ZM4.88867 10.417H3.99978C3.76967 10.417 3.58312 10.2304 3.58312 10.0003C3.58312 9.77021 3.76967 9.58366 3.99978 9.58366H4.88867C5.11878 9.58366 5.30534 9.77021 5.30534 10.0003C5.30534 10.2304 5.11878 10.417 4.88867 10.417ZM4.88867 8.63921H3.99978C3.76967 8.63921 3.58312 8.45266 3.58312 8.22255C3.58312 7.99244 3.76967 7.80588 3.99978 7.80588H4.88867C5.11878 7.80588 5.30534 7.99244 5.30534 8.22255C5.30534 8.45266 5.11878 8.63921 4.88867 8.63921ZM8.44423 12.1948H7.55534C7.32523 12.1948 7.13867 12.0082 7.13867 11.7781C7.13867 11.548 7.32523 11.3614 7.55534 11.3614H8.44423C8.67434 11.3614 8.86089 11.548 8.86089 11.7781C8.86089 12.0082 8.67434 12.1948 8.44423 12.1948ZM8.44423 10.417H7.55534C7.32523 10.417 7.13867 10.2304 7.13867 10.0003C7.13867 9.77021 7.32523 9.58366 7.55534 9.58366H8.44423C8.67434 9.58366 8.86089 9.77021 8.86089 10.0003C8.86089 10.2304 8.67434 10.417 8.44423 10.417ZM8.44423 8.63921H7.55534C7.32523 8.63921 7.13867 8.45266 7.13867 8.22255C7.13867 7.99244 7.32523 7.80588 7.55534 7.80588H8.44423C8.67434 7.80588 8.86089 7.99244 8.86089 8.22255C8.86089 8.45266 8.67434 8.63921 8.44423 8.63921ZM11.9998 12.1948H11.1109C10.8808 12.1948 10.6942 12.0082 10.6942 11.7781C10.6942 11.548 10.8808 11.3614 11.1109 11.3614H11.9998C12.2299 11.3614 12.4164 11.548 12.4164 11.7781C12.4164 12.0082 12.2299 12.1948 11.9998 12.1948ZM11.9998 10.417H11.1109C10.8808 10.417 10.6942 10.2304 10.6942 10.0003C10.6942 9.77021 10.8808 9.58366 11.1109 9.58366H11.9998C12.2299 9.58366 12.4164 9.77021 12.4164 10.0003C12.4164 10.2304 12.2299 10.417 11.9998 10.417ZM11.9998 8.63921H11.1109C10.8808 8.63921 10.6942 8.45266 10.6942 8.22255C10.6942 7.99244 10.8808 7.80588 11.1109 7.80588H11.9998C12.2299 7.80588 12.4164 7.99244 12.4164 8.22255C12.4164 8.45266 12.2299 8.63921 11.9998 8.63921Z" fill="white"/>
</g>
</g>
</svg>
