<svg width="16" height="16" viewBox="0 0 16 16" fill="none" xmlns="http://www.w3.org/2000/svg">
<g id="eva:eye-fill">
<g id="Group">
<path id="Vector" d="M8 9C8.55228 9 9 8.55228 9 8C9 7.44772 8.55228 7 8 7C7.44772 7 7 7.44772 7 8C7 8.55228 7.44772 9 8 9Z" fill="white"/>
<path id="Vector_2" d="M14.5799 7.66674C14.1532 6.92674 11.8065 3.21341 7.81988 3.33341C4.13322 3.42674 1.99988 6.66674 1.41988 7.66674C1.36137 7.76809 1.33057 7.88305 1.33057 8.00008C1.33057 8.1171 1.36137 8.23206 1.41988 8.33341C1.83988 9.06008 4.08655 12.6667 8.01322 12.6667H8.17988C11.8665 12.5734 14.0065 9.33341 14.5799 8.33341C14.6384 8.23206 14.6692 8.1171 14.6692 8.00008C14.6692 7.88305 14.6384 7.76809 14.5799 7.66674ZM7.99988 10.3334C7.53839 10.3334 7.08727 10.1966 6.70355 9.94017C6.31984 9.68378 6.02077 9.31937 5.84416 8.893C5.66756 8.46664 5.62135 7.99749 5.71138 7.54487C5.80142 7.09224 6.02364 6.67648 6.34997 6.35016C6.67629 6.02384 7.09205 5.80161 7.54467 5.71158C7.99729 5.62155 8.46645 5.66775 8.89281 5.84436C9.31917 6.02096 9.68359 6.32003 9.93998 6.70375C10.1964 7.08746 10.3332 7.53859 10.3332 8.00008C10.3332 8.61892 10.0874 9.21241 9.6498 9.64999C9.21221 10.0876 8.61872 10.3334 7.99988 10.3334Z" fill="white"/>
</g>
</g>
</svg>
