<svg width="16" height="16" viewBox="0 0 16 16" fill="none" xmlns="http://www.w3.org/2000/svg">
<g id="012-vk 1" clip-path="url(#clip0_287_9020)">
<path id="Vector" d="M13.2767 8.6855C13.018 8.35883 13.092 8.2135 13.2767 7.9215C13.28 7.91816 15.4153 4.9675 15.6353 3.96683L15.6367 3.96616C15.746 3.6015 15.6367 3.3335 15.108 3.3335H13.3587C12.9133 3.3335 12.708 3.5635 12.598 3.82083C12.598 3.82083 11.7073 5.95283 10.4473 7.33483C10.0407 7.73416 9.85267 7.86216 9.63067 7.86216C9.52133 7.86216 9.35133 7.73416 9.35133 7.3695V3.96616C9.35133 3.52883 9.22667 3.3335 8.858 3.3335H6.10733C5.828 3.3335 5.662 3.5375 5.662 3.7275C5.662 4.14216 6.292 4.2375 6.35733 5.40416V7.9355C6.35733 8.49016 6.25667 8.59216 6.03333 8.59216C5.43867 8.59216 3.99533 6.4515 3.14 4.0015C2.96733 3.52616 2.79867 3.33416 2.35 3.33416H0.6C0.100667 3.33416 0 3.56416 0 3.8215C0 4.27616 0.594666 6.53683 2.76533 9.5235C4.212 11.5622 6.24933 12.6668 8.10267 12.6668C9.21667 12.6668 9.35267 12.4215 9.35267 11.9995C9.35267 10.0515 9.252 9.8675 9.81 9.8675C10.0687 9.8675 10.514 9.9955 11.554 10.9788C12.7427 12.1448 12.938 12.6668 13.6033 12.6668H15.3527C15.8513 12.6668 16.104 12.4215 15.9587 11.9375C15.626 10.9195 13.378 8.8255 13.2767 8.6855Z" fill="#4B729F"/>
</g>
<defs>
<clipPath id="clip0_287_9020">
<rect width="16" height="16" fill="white"/>
</clipPath>
</defs>
</svg>
