<svg width="16" height="16" viewBox="0 0 16 16" fill="none" xmlns="http://www.w3.org/2000/svg">
<g id="018-youtube 1" clip-path="url(#clip0_287_9038)">
<path id="Vector" d="M0.348538 11.9162C0.675205 13.0749 1.67454 13.2869 1.7412 13.3276C3.38587 13.7756 12.6045 13.7769 14.2739 13.3276C15.4172 12.9969 15.6272 11.9829 15.6665 11.9162C16.1019 9.60023 16.1305 6.58089 15.6465 3.95289L15.6665 4.08356C15.3399 2.92489 14.3405 2.71289 14.2739 2.67223C12.6512 2.23156 3.40854 2.21489 1.7412 2.67223C0.597871 3.00356 0.387871 4.01689 0.348538 4.08356C-0.117462 6.51756 -0.140796 9.31023 0.348538 11.9162ZM6.40587 10.4342V5.57223L10.5832 8.00689L6.40587 10.4342Z" fill="#E53935"/>
</g>
<defs>
<clipPath id="clip0_287_9038">
<rect width="16" height="16" fill="white"/>
</clipPath>
</defs>
</svg>
