<svg width="136" height="45" viewBox="0 0 136 45" fill="none" xmlns="http://www.w3.org/2000/svg">
<g id="Group">
<g id="Group_2">
<g id="Group_3">
<path id="Vector" d="M124.357 -9.78906e-05H11.1816C10.7691 -9.78906e-05 10.3615 -9.78906e-05 9.95002 0.00215211C9.6056 0.00440211 9.26393 0.0109384 8.9162 0.0164396C8.16078 0.0253291 7.40714 0.0917879 6.66182 0.215238C5.91754 0.341376 5.19658 0.579182 4.52333 0.920613C3.85089 1.26493 3.23647 1.71234 2.70234 2.24661C2.16542 2.77937 1.71785 3.39517 1.37685 4.07033C1.0349 4.74415 0.797799 5.46621 0.673722 6.21157C0.548465 6.95598 0.481064 7.70899 0.472122 8.46382C0.461682 8.80874 0.460579 9.15481 0.455078 9.49978V35.5033C0.460579 35.8526 0.461682 36.191 0.472122 36.5405C0.481067 37.2952 0.548468 38.0482 0.673722 38.7926C0.797456 39.5384 1.03457 40.2609 1.37685 40.9349C1.71769 41.6079 2.16533 42.2212 2.70234 42.751C3.23444 43.2877 3.84926 43.7354 4.52333 44.0771C5.19658 44.4194 5.91746 44.6586 6.66182 44.7867C7.40726 44.9092 8.16083 44.9757 8.9162 44.9856C9.26393 44.9933 9.6056 44.9977 9.95002 44.9977C10.3615 44.9999 10.7691 44.9999 11.1816 44.9999H124.357C124.761 44.9999 125.172 44.9999 125.576 44.9977C125.919 44.9977 126.271 44.9933 126.613 44.9856C127.367 44.9762 128.119 44.9097 128.863 44.7867C129.61 44.6577 130.334 44.4186 131.01 44.0771C131.684 43.7352 132.298 43.2875 132.829 42.751C133.365 42.2191 133.814 41.6063 134.159 40.9349C134.498 40.2604 134.733 39.538 134.855 38.7926C134.981 38.0481 135.05 37.2953 135.064 36.5405C135.068 36.191 135.068 35.8526 135.068 35.5033C135.077 35.0946 135.077 34.6881 135.077 34.2728V10.728C135.077 10.3161 135.077 9.90737 135.068 9.49978C135.068 9.15481 135.068 8.80874 135.064 8.46377C135.05 7.70888 134.981 6.95604 134.855 6.21152C134.733 5.46659 134.498 4.74459 134.159 4.07029C133.464 2.717 132.363 1.61543 131.01 0.920512C130.334 0.579915 129.61 0.342173 128.863 0.215137C128.12 0.0911427 127.367 0.0246608 126.613 0.0162821C126.271 0.0107921 125.919 0.00419961 125.576 0.00200586C125.172 -0.000244141 124.761 -0.000244141 124.357 -0.000244141V-9.78906e-05Z" fill="white"/>
</g>
<g id="&#60;Group&#62;">
<g id="&#60;Group&#62;_2">
<g id="&#60;Group&#62;_3">
<path id="&#60;Path&#62;" d="M28.5767 22.3751C28.5893 21.3986 28.8487 20.4412 29.3307 19.5919C29.8127 18.7426 30.5017 18.0291 31.3336 17.5176C30.8052 16.7629 30.108 16.1417 29.2974 15.7035C28.4869 15.2654 27.5854 15.0222 26.6645 14.9934C24.6999 14.7872 22.7954 16.1689 21.7943 16.1689C20.7739 16.1689 19.2326 15.0139 17.5728 15.048C16.4992 15.0827 15.4529 15.3949 14.5359 15.9542C13.6189 16.5134 12.8623 17.3007 12.34 18.2393C10.0775 22.1566 11.7651 27.9136 13.9325 31.0801C15.0168 32.6306 16.2841 34.3625 17.9424 34.3011C19.5651 34.2338 20.1711 33.2664 22.1299 33.2664C24.0704 33.2664 24.639 34.3011 26.3309 34.2621C28.0722 34.2338 29.1692 32.7047 30.2155 31.1395C30.9947 30.0347 31.5942 28.8136 31.9919 27.5216C30.9803 27.0937 30.117 26.3775 29.5097 25.4623C28.9024 24.5471 28.5779 23.4734 28.5767 22.3751Z" fill="#282739"/>
<path id="&#60;Path&#62;_2" d="M25.3811 12.9113C26.3305 11.7716 26.7982 10.3066 26.685 8.82764C25.2345 8.97998 23.8947 9.6732 22.9325 10.7692C22.462 11.3046 22.1017 11.9275 21.8721 12.6022C21.6425 13.277 21.5482 13.9904 21.5945 14.7016C22.3199 14.7091 23.0377 14.5518 23.6936 14.2417C24.3495 13.9316 24.9265 13.4767 25.3811 12.9113Z" fill="#282739"/>
</g>
</g>
<g id="Group_4">
<path id="Vector_2" d="M48.0449 30.5321H42.7198L41.441 34.3081H39.1855L44.2294 20.3379H46.5727L51.6166 34.3081H49.3226L48.0449 30.5321ZM43.2714 28.7897H47.4924L45.4115 22.6615H45.3533L43.2714 28.7897Z" fill="#282739"/>
<path id="Vector_3" d="M62.5094 29.2156C62.5094 32.3808 60.8153 34.4144 58.2588 34.4144C57.6112 34.4482 56.9671 34.2991 56.4004 33.9839C55.8336 33.6687 55.367 33.2004 55.0541 32.6324H55.0057V37.6773H52.915V24.1224H54.9387V25.8165H54.9772C55.3045 25.2512 55.7789 24.7852 56.35 24.4681C56.9211 24.1511 57.5675 23.9947 58.2203 24.0158C60.8054 24.0158 62.5094 26.0593 62.5094 29.2156ZM60.3605 29.2156C60.3605 27.1535 59.2948 25.7978 57.6688 25.7978C56.0714 25.7978 54.997 27.1821 54.997 29.2156C54.997 31.2679 56.0714 32.6423 57.6688 32.6423C59.2948 32.6423 60.3605 31.2964 60.3605 29.2156H60.3605Z" fill="#282739"/>
<path id="Vector_4" d="M73.7209 29.2156C73.7209 32.3808 72.0263 34.4144 69.4697 34.4144C68.8221 34.4482 68.1781 34.2991 67.6113 33.9839C67.0445 33.6687 66.578 33.2004 66.265 32.6324H66.2167V37.6773H64.126V24.1224H66.1497V25.8165H66.1881C66.5154 25.2512 66.9899 24.7852 67.561 24.4681C68.132 24.1511 68.7784 23.9947 69.4313 24.0158C72.0164 24.0158 73.7209 26.0593 73.7209 29.2156ZM71.5714 29.2156C71.5714 27.1535 70.5058 25.7978 68.8798 25.7978C67.2824 25.7978 66.2079 27.1821 66.2079 29.2156C66.2079 31.2679 67.2824 32.6423 68.8798 32.6423C70.5058 32.6423 71.5714 31.2964 71.5714 29.2156Z" fill="#282739"/>
<path id="Vector_5" d="M81.1285 30.4157C81.2834 31.8011 82.6292 32.7107 84.4683 32.7107C86.2305 32.7107 87.4983 31.801 87.4983 30.5519C87.4983 29.4675 86.7337 28.8183 84.9232 28.3733L83.1126 27.9371C80.5473 27.3175 79.3564 26.1178 79.3564 24.171C79.3564 21.7606 81.457 20.105 84.4387 20.105C87.3918 20.105 89.4155 21.7606 89.4836 24.171H87.3731C87.2468 22.7769 86.0943 21.9353 84.4101 21.9353C82.7259 21.9353 81.5734 22.7868 81.5734 24.026C81.5734 25.0137 82.3095 25.5949 84.1102 26.0398L85.6493 26.4177C88.5157 27.0956 89.7055 28.2469 89.7055 30.2904C89.7055 32.904 87.6247 34.541 84.3134 34.541C81.2152 34.541 79.1234 32.9425 78.9883 30.4156L81.1285 30.4157Z" fill="#282739"/>
<path id="Vector_6" d="M94.2202 21.7122V24.1226H96.1571V25.7782H94.2202V31.3933C94.2202 32.2656 94.608 32.6721 95.4595 32.6721C95.6894 32.6681 95.919 32.652 96.1472 32.6237V34.2695C95.7644 34.341 95.3753 34.3734 94.986 34.3662C92.9238 34.3662 92.1196 33.5916 92.1196 31.6163V25.7782H90.6387V24.1226H92.1196V21.7122H94.2202Z" fill="#282739"/>
<path id="Vector_7" d="M97.2773 29.2158C97.2773 26.0111 99.1648 23.9973 102.108 23.9973C105.061 23.9973 106.94 26.0111 106.94 29.2158C106.94 32.4293 105.071 34.4343 102.108 34.4343C99.1461 34.4343 97.2773 32.4293 97.2773 29.2158ZM104.81 29.2158C104.81 27.0175 103.802 25.72 102.108 25.72C100.414 25.72 99.4065 27.0273 99.4065 29.2158C99.4065 31.423 100.414 32.7106 102.108 32.7106C103.802 32.7106 104.81 31.423 104.81 29.2158H104.81Z" fill="#282739"/>
<path id="Vector_8" d="M108.664 24.1223H110.658V25.8559H110.706C110.841 25.3144 111.159 24.8359 111.605 24.5008C112.051 24.1657 112.599 23.9944 113.156 24.0157C113.397 24.0148 113.638 24.041 113.873 24.0937V26.0493C113.569 25.9563 113.251 25.9136 112.933 25.9229C112.63 25.9106 112.327 25.9642 112.046 26.0799C111.765 26.1956 111.512 26.3708 111.305 26.5935C111.098 26.8161 110.942 27.0809 110.847 27.3696C110.752 27.6584 110.72 27.9643 110.755 28.2663V34.3077H108.664L108.664 24.1223Z" fill="#282739"/>
<path id="Vector_9" d="M123.512 31.3164C123.231 33.1654 121.43 34.4343 119.126 34.4343C116.163 34.4343 114.324 32.4491 114.324 29.2642C114.324 26.0693 116.173 23.9973 119.038 23.9973C121.856 23.9973 123.629 25.9331 123.629 29.0214V29.7377H116.435V29.864C116.401 30.2389 116.448 30.6165 116.572 30.9718C116.696 31.3271 116.894 31.652 117.154 31.9249C117.413 32.1977 117.727 32.4123 118.075 32.5544C118.424 32.6965 118.799 32.7629 119.175 32.749C119.669 32.7953 120.165 32.6809 120.588 32.4228C121.012 32.1646 121.341 31.7766 121.527 31.3164L123.512 31.3164ZM116.445 28.2765H121.537C121.555 27.9394 121.504 27.6022 121.387 27.2858C121.269 26.9694 121.087 26.6808 120.852 26.4381C120.618 26.1954 120.336 26.0037 120.023 25.8752C119.711 25.7467 119.376 25.6842 119.038 25.6914C118.698 25.6894 118.36 25.7548 118.045 25.8839C117.73 26.013 117.444 26.2032 117.203 26.4435C116.962 26.6838 116.771 26.9696 116.64 27.2842C116.51 27.5988 116.444 27.936 116.445 28.2765V28.2765Z" fill="#282739"/>
</g>
</g>
</g>
<g id="&#60;Group&#62;_4">
<g id="Group_5">
<path id="Vector_10" d="M41.786 12.6601H42.6836C42.8381 12.6793 42.9949 12.6663 43.1442 12.622C43.2934 12.5776 43.4319 12.5028 43.5508 12.4022C43.6697 12.3017 43.7665 12.1776 43.835 12.0378C43.9036 11.898 43.9425 11.7456 43.9492 11.59C43.9492 10.9709 43.4834 10.571 42.6935 10.571C42.5352 10.5489 42.374 10.5587 42.2196 10.5999C42.0652 10.6411 41.9205 10.7128 41.7943 10.8108C41.668 10.9088 41.5626 11.0311 41.4844 11.1705C41.4062 11.3099 41.3567 11.4636 41.3389 11.6224H40.3534C40.3703 11.3341 40.4465 11.0523 40.577 10.7947C40.7076 10.537 40.8898 10.309 41.1123 10.1249C41.3348 9.9407 41.5929 9.80431 41.8704 9.72419C42.1479 9.64407 42.4389 9.62193 42.7253 9.65915C44.047 9.65915 44.9776 10.3991 44.9776 11.4642C44.9807 11.821 44.8613 12.1681 44.6393 12.4475C44.4174 12.727 44.1063 12.9218 43.7581 12.9995V13.0786C44.1709 13.097 44.5598 13.278 44.8395 13.5822C45.1193 13.8863 45.2673 14.2889 45.2511 14.7019C45.2206 14.9988 45.131 15.2865 44.9878 15.5484C44.8446 15.8102 44.6506 16.0408 44.4171 16.2267C44.1836 16.4126 43.9153 16.55 43.628 16.6308C43.3407 16.7117 43.0402 16.7343 42.744 16.6975C42.4472 16.738 42.1453 16.7183 41.8563 16.6396C41.5673 16.5609 41.2971 16.4248 41.0618 16.2394C40.8265 16.0541 40.631 15.8232 40.4868 15.5607C40.3426 15.2981 40.2528 15.0092 40.2227 14.7112H41.2235C41.2839 15.3534 41.8739 15.7676 42.744 15.7676C43.6141 15.7676 44.1821 15.3023 44.1821 14.6464C44.1821 13.9812 43.6471 13.5714 42.7122 13.5714H41.786V12.6601Z" fill="#282739"/>
<path id="Vector_11" d="M46.3877 15.102C46.3877 14.1902 47.0677 13.6645 48.2718 13.5898L49.644 13.5107V13.0734C49.644 12.5384 49.2914 12.2363 48.6069 12.2363C48.0488 12.2363 47.6632 12.4412 47.5511 12.7993H46.5833C46.6854 11.9292 47.505 11.3711 48.6542 11.3711C49.9242 11.3711 50.6405 12.0033 50.6405 13.0734V16.5347H49.677V15.8228H49.5979C49.4374 16.0781 49.2119 16.2863 48.9446 16.426C48.6772 16.5658 48.3776 16.6321 48.0763 16.6181C47.8636 16.6402 47.6487 16.6176 47.4453 16.5515C47.242 16.4855 47.0547 16.3776 46.8956 16.2347C46.7365 16.0919 46.6091 15.9173 46.5217 15.7222C46.4342 15.5271 46.3885 15.3159 46.3877 15.102ZM49.644 14.6692V14.2457L48.4069 14.3248C47.7093 14.3714 47.3929 14.6088 47.3929 15.0553C47.3929 15.5113 47.7884 15.7766 48.3323 15.7766C48.4916 15.7927 48.6526 15.7766 48.8056 15.7293C48.9586 15.682 49.1005 15.6043 49.2229 15.501C49.3453 15.3977 49.4457 15.2708 49.518 15.1279C49.5904 14.985 49.6332 14.829 49.644 14.6692Z" fill="#282739"/>
<path id="Vector_12" d="M53.2937 12.3103V16.5345H52.2939V11.4688H55.6294V12.3102L53.2937 12.3103Z" fill="#282739"/>
<path id="Vector_13" d="M61.6887 14.0003C61.6887 15.6097 60.8746 16.6189 59.5958 16.6189C59.2819 16.6403 58.9684 16.5716 58.6922 16.4208C58.416 16.2701 58.1887 16.0436 58.0369 15.768H57.9578V18.2196H56.958V11.4696H57.9204V12.3067H57.9951C58.1496 12.0215 58.38 11.7845 58.6607 11.6219C58.9414 11.4594 59.2616 11.3776 59.5859 11.3855C60.8746 11.3855 61.6887 12.3902 61.6887 14.0003ZM60.6604 14.0003C60.6604 12.9302 60.1539 12.2836 59.3069 12.2836C58.4654 12.2836 57.9391 12.9439 57.9391 14.0047C57.9391 15.0604 58.4653 15.7213 59.3025 15.7213C60.1539 15.7213 60.6604 15.0747 60.6604 14.0003Z" fill="#282739"/>
<path id="Vector_14" d="M63.0203 18.3489V17.4882C63.1285 17.5019 63.2375 17.5081 63.3466 17.5068C63.5596 17.5226 63.7709 17.4592 63.94 17.3287C64.1091 17.1982 64.224 17.0099 64.2628 16.7999L64.3375 16.5532L62.5039 11.4688H63.5926L64.8627 15.4925H64.9418L66.2074 11.4688H67.2676L65.3791 16.7438C64.9462 17.9765 64.4672 18.372 63.4345 18.372C63.351 18.372 63.1137 18.3627 63.0203 18.3489Z" fill="#282739"/>
<path id="Vector_15" d="M68.0459 15.0971H69.0413C69.139 15.5437 69.5576 15.7766 70.1432 15.7766C70.809 15.7766 71.2177 15.4833 71.2177 15.0273C71.2177 14.539 70.8507 14.3061 70.1432 14.3061H69.3851V13.5294H70.13C70.7343 13.5294 71.0419 13.297 71.0419 12.8735C71.0419 12.5016 70.7441 12.2176 70.13 12.2176C69.5708 12.2176 69.1621 12.4549 69.0973 12.8548H68.1338C68.2058 12.3953 68.4553 11.9824 68.8286 11.705C69.2019 11.4275 69.6692 11.3076 70.13 11.3711C71.3341 11.3711 72.023 11.9155 72.023 12.7713C72.0286 13.0097 71.9522 13.2427 71.8066 13.4315C71.6611 13.6202 71.4551 13.7533 71.2232 13.8084V13.8875C71.4993 13.9232 71.7527 14.0589 71.9354 14.269C72.1181 14.4791 72.2172 14.749 72.2141 15.0274C72.2141 15.9904 71.3945 16.6275 70.1432 16.6275C69.0369 16.6275 68.1382 16.1205 68.0459 15.0971Z" fill="#282739"/>
<path id="Vector_16" d="M73.6543 16.5345V11.4688H74.6453V14.9531H74.7244L77.059 11.4688H78.0499V16.5346H77.059V13.0316H76.9842L74.6453 16.5346L73.6543 16.5345Z" fill="#282739"/>
<path id="Vector_17" d="M83.5097 12.311H81.9145V16.5352H80.9136V12.311H79.3184V11.4695H83.5097V12.311Z" fill="#282739"/>
<path id="Vector_18" d="M88.8948 15.167C88.7585 15.6299 88.464 16.0303 88.0626 16.2982C87.6612 16.5661 87.1784 16.6844 86.6986 16.6325C86.3649 16.6413 86.0332 16.5774 85.7266 16.4452C85.4201 16.313 85.1459 16.1156 84.9233 15.8669C84.7006 15.6181 84.5348 15.3238 84.4373 15.0045C84.3398 14.6852 84.3129 14.3485 84.3585 14.0178C84.3141 13.686 84.3414 13.3486 84.4387 13.0284C84.536 12.7081 84.701 12.4125 84.9225 12.1615C85.1439 11.9106 85.4168 11.7101 85.7224 11.5738C86.0281 11.4374 86.3595 11.3683 86.6942 11.3712C88.1038 11.3712 88.9552 12.3342 88.9552 13.9249V14.2738H85.3781V14.3298C85.3622 14.5158 85.3855 14.703 85.4463 14.8794C85.5071 15.0558 85.6042 15.2176 85.7312 15.3542C85.8583 15.4909 86.0125 15.5995 86.184 15.673C86.3556 15.7465 86.5406 15.7833 86.7272 15.7811C86.9662 15.8096 87.2082 15.7665 87.4227 15.6572C87.6371 15.5478 87.8141 15.3772 87.9313 15.1669L88.8948 15.167ZM85.378 13.5344H87.9356C87.9483 13.3645 87.9252 13.1938 87.868 13.0333C87.8107 12.8728 87.7206 12.726 87.6032 12.6024C87.4859 12.4789 87.344 12.3812 87.1867 12.3157C87.0294 12.2502 86.8602 12.2183 86.6898 12.2221C86.5168 12.2197 86.3452 12.2521 86.1849 12.3172C86.0247 12.3823 85.8791 12.4789 85.7568 12.6012C85.6345 12.7236 85.538 12.8692 85.473 13.0295C85.4079 13.1897 85.3756 13.3614 85.3781 13.5344H85.378Z" fill="#282739"/>
<path id="Vector_19" d="M93.1328 11.4688H95.4169C96.4078 11.4688 96.989 11.9708 96.989 12.7569C96.9905 13.0063 96.9064 13.2487 96.7506 13.4435C96.5948 13.6383 96.3768 13.7736 96.1332 13.8269V13.906C96.429 13.9247 96.7064 14.0563 96.908 14.2737C97.1096 14.491 97.22 14.7775 97.2164 15.0739C97.2164 15.9577 96.5517 16.5345 95.4399 16.5345H93.1328V11.4688ZM94.1238 12.2361V13.5479H95.1148C95.719 13.5479 96.0079 13.3155 96.0079 12.8871C96.0079 12.4921 95.7564 12.2361 95.2257 12.2361L94.1238 12.2361ZM94.1238 14.2829V15.7672H95.3093C95.9003 15.7672 96.2167 15.5062 96.2167 15.0272C96.2167 14.5202 95.8586 14.2829 95.184 14.2829L94.1238 14.2829Z" fill="#282739"/>
</g>
</g>
</g>
</svg>
