<svg width="22" height="22" viewBox="0 0 22 22" fill="none" xmlns="http://www.w3.org/2000/svg">
<g id="Icon / Outlined / CheckCircle">
<path id="Vector" d="M15.0169 7.58398H14.0093C13.7901 7.58398 13.5817 7.68926 13.4528 7.86973L10.0755 12.5533L8.54579 10.4307C8.41688 10.2523 8.21063 10.1449 7.98934 10.1449H6.98172C6.84207 10.1449 6.76043 10.3039 6.84207 10.4178L9.51903 14.1303C9.58227 14.2185 9.66564 14.2905 9.76222 14.3401C9.8588 14.3897 9.96582 14.4156 10.0744 14.4156C10.183 14.4156 10.29 14.3897 10.3866 14.3401C10.4832 14.2905 10.5665 14.2185 10.6298 14.1303L15.1544 7.85684C15.2382 7.74297 15.1566 7.58398 15.0169 7.58398Z" fill="white"/>
<path id="Vector_2" d="M11 1.375C5.68477 1.375 1.375 5.68477 1.375 11C1.375 16.3152 5.68477 20.625 11 20.625C16.3152 20.625 20.625 16.3152 20.625 11C20.625 5.68477 16.3152 1.375 11 1.375ZM11 18.9922C6.58711 18.9922 3.00781 15.4129 3.00781 11C3.00781 6.58711 6.58711 3.00781 11 3.00781C15.4129 3.00781 18.9922 6.58711 18.9922 11C18.9922 15.4129 15.4129 18.9922 11 18.9922Z" fill="white"/>
</g>
</svg>
