<svg width="152" height="45" viewBox="0 0 152 45" fill="none" xmlns="http://www.w3.org/2000/svg">
<g id="g13546">
<g id="g13548">
<path id="path13552" d="M145.747 44.8882H5.82162C2.74327 44.8882 0.224609 42.3695 0.224609 39.2912V5.70908C0.224609 2.63073 2.74327 0.112068 5.82162 0.112068H145.747C148.825 0.112068 151.344 2.63073 151.344 5.70908V39.2912C151.344 42.3695 148.825 44.8882 145.747 44.8882Z" fill="white"/>
<path id="path13556" d="M119.928 33.6942H122.017V19.7003H119.928V33.6942ZM138.742 24.7412L136.348 30.8082H136.276L133.791 24.7412H131.541L135.267 33.221L133.143 37.9378H135.322L141.065 24.7412H138.742ZM126.896 32.1047C126.211 32.1047 125.258 31.7628 125.258 30.9163C125.258 29.8361 126.446 29.4221 127.472 29.4221C128.391 29.4221 128.822 29.6201 129.38 29.8904C129.218 31.1865 128.102 32.1047 126.896 32.1047ZM127.148 24.435C125.636 24.435 124.07 25.1014 123.422 26.5777L125.276 27.3516C125.672 26.5777 126.41 26.3254 127.184 26.3254C128.264 26.3254 129.363 26.9738 129.38 28.126V28.2699C129.002 28.0538 128.193 27.7299 127.202 27.7299C125.204 27.7299 123.169 28.8278 123.169 30.8803C123.169 32.7528 124.808 33.9591 126.643 33.9591C128.048 33.9591 128.822 33.329 129.309 32.591H129.38V33.671H131.396V28.3057C131.396 25.8216 129.543 24.435 127.148 24.435ZM114.239 26.4447H111.268V21.6479H114.239C115.801 21.6479 116.688 22.9409 116.688 24.0463C116.688 25.1307 115.801 26.4447 114.239 26.4447ZM114.186 19.7003H109.181V33.6942H111.268V28.3923H114.186C116.501 28.3923 118.776 26.7163 118.776 24.0463C118.776 21.3764 116.501 19.7003 114.186 19.7003ZM86.8935 32.1073C85.4505 32.1073 84.2423 30.8991 84.2423 29.2397C84.2423 27.5629 85.4505 26.3363 86.8935 26.3363C88.3181 26.3363 89.4362 27.5629 89.4362 29.2397C89.4362 30.8991 88.3181 32.1073 86.8935 32.1073ZM89.2919 25.5248H89.2197C88.751 24.9658 87.8489 24.4609 86.7129 24.4609C84.3324 24.4609 82.1505 26.5527 82.1505 29.2397C82.1505 31.9088 84.3324 33.9828 86.7129 33.9828C87.8489 33.9828 88.751 33.4777 89.2197 32.901H89.2919V33.5861C89.2919 35.4079 88.3181 36.3816 86.7492 36.3816C85.4688 36.3816 84.6753 35.4616 84.3503 34.6863L82.5292 35.4437C83.0521 36.706 84.4409 38.2571 86.7492 38.2571C89.2018 38.2571 91.2757 36.8141 91.2757 33.2976V24.7495H89.2919V25.5248ZM92.7183 33.6942H94.8102V19.6998H92.7183V33.6942ZM97.8942 29.0775C97.84 27.2379 99.3189 26.3004 100.383 26.3004C101.213 26.3004 101.916 26.7149 102.15 27.3105L97.8942 29.0775ZM104.386 27.4907C103.99 26.4263 102.781 24.4609 100.311 24.4609C97.8579 24.4609 95.8203 26.3905 95.8203 29.2218C95.8203 31.8909 97.84 33.9828 100.545 33.9828C102.727 33.9828 103.99 32.6482 104.513 31.8729L102.89 30.7907C102.349 31.5843 101.609 32.1073 100.545 32.1073C99.4811 32.1073 98.7238 31.6203 98.2366 30.6647L104.602 28.0316L104.386 27.4907ZM53.6683 25.9217V27.9414H58.5013C58.357 29.0775 57.9783 29.907 57.4011 30.4842C56.698 31.1877 55.5979 31.963 53.6683 31.963C50.6925 31.963 48.3663 29.5646 48.3663 26.589C48.3663 23.6134 50.6925 21.2146 53.6683 21.2146C55.2734 21.2146 56.4453 21.846 57.311 22.6575L58.7357 21.233C57.5275 20.0785 55.9223 19.1949 53.6683 19.1949C49.5924 19.1949 46.166 22.5132 46.166 26.589C46.166 30.6647 49.5924 33.9828 53.6683 33.9828C55.8686 33.9828 57.5275 33.2617 58.8258 31.9088C60.1603 30.5743 60.5753 28.6988 60.5753 27.1842C60.5753 26.7149 60.5394 26.2825 60.4668 25.9217H53.6683ZM66.07 32.1073C64.627 32.1073 63.3825 30.917 63.3825 29.2218C63.3825 27.5086 64.627 26.3363 66.07 26.3363C67.5125 26.3363 68.7569 27.5086 68.7569 29.2218C68.7569 30.917 67.5125 32.1073 66.07 32.1073ZM66.07 24.4609C63.4367 24.4609 61.2906 26.4626 61.2906 29.2218C61.2906 31.963 63.4367 33.9828 66.07 33.9828C68.7027 33.9828 70.8489 31.963 70.8489 29.2218C70.8489 26.4626 68.7027 24.4609 66.07 24.4609ZM76.4952 32.1073C75.0528 32.1073 73.8082 30.917 73.8082 29.2218C73.8082 27.5086 75.0528 26.3363 76.4952 26.3363C77.9378 26.3363 79.1822 27.5086 79.1822 29.2218C79.1822 30.917 77.9378 32.1073 76.4952 32.1073ZM76.4952 24.4609C73.8621 24.4609 71.7164 26.4626 71.7164 29.2218C71.7164 31.963 73.8621 33.9828 76.4952 33.9828C79.1281 33.9828 81.2742 31.963 81.2742 29.2218C81.2742 26.4626 79.1281 24.4609 76.4952 24.4609Z" fill="#282739"/>
<g id="g13558">
<g id="g13560">
<path id="path13580" d="M11.9889 36.3689L11.9058 36.2893C11.58 35.9446 11.3877 35.4095 11.3877 34.7164V34.8795V10.1228C11.3877 10.1206 11.3877 10.1189 11.3877 10.1171C11.3877 10.1192 11.3877 10.121 11.3877 10.1233V10.2868C11.3877 9.53636 11.6119 8.97107 11.9876 8.63211L25.8568 22.5009L11.9889 36.3689ZM11.3877 10.1158C11.3877 10.0541 11.3894 9.9942 11.3925 9.93521C11.3894 9.99375 11.3877 10.0541 11.3877 10.1158ZM11.3925 9.93252C11.3925 9.93174 11.3925 9.93084 11.3928 9.92994C11.3925 9.93084 11.3925 9.93174 11.3925 9.93252ZM11.3928 9.92468C11.3928 9.92424 11.3928 9.92379 11.3928 9.92334C11.3928 9.92379 11.3928 9.92424 11.3928 9.92468Z" fill="url(#paint0_linear_997_13480)"/>
</g>
</g>
<g id="g13582">
<g id="g13584">
<path id="path13600" d="M30.4798 27.2893L30.5852 27.2294L36.0624 24.1174C36.5846 23.8205 36.9326 23.4606 37.1062 23.0798C36.933 23.4606 36.5849 23.821 36.0624 24.1178L30.5852 27.2299L30.4798 27.2893ZM30.4811 27.1253L25.8574 22.5008L30.4807 17.8771L36.0624 21.0482C36.7712 21.451 37.1691 21.97 37.2356 22.5004C37.2356 22.5008 37.2356 22.5017 37.2356 22.5025C37.1691 23.0317 36.7712 23.5512 36.0624 23.9538L30.4811 27.1253Z" fill="url(#paint1_linear_997_13480)"/>
</g>
</g>
<g id="g13602">
<g id="g13604">
<path id="path13616" d="M12.9779 36.897C12.5904 36.897 12.2524 36.771 11.9888 36.5332L11.9892 36.5327C12.2528 36.7706 12.5913 36.897 12.9788 36.897C13.0123 36.897 13.0465 36.8961 13.0811 36.8944C13.046 36.8961 13.0114 36.897 12.9779 36.897ZM12.9783 36.733C12.5909 36.7334 12.2528 36.607 11.9892 36.3692V36.3688L25.857 22.5009L30.4807 27.1254L14.2324 36.3574C13.7828 36.6123 13.3569 36.733 12.9783 36.733ZM11.9853 36.5301C11.9608 36.5079 11.9367 36.4842 11.9131 36.4597L11.9853 36.5301Z" fill="url(#paint2_linear_997_13480)"/>
</g>
</g>
<g id="g13618">
<g id="g13620">
<path id="path13638" d="M25.8565 22.5007L11.9873 8.63189C12.2509 8.39447 12.5885 8.26853 12.9755 8.26853C13.3551 8.26853 13.7814 8.38965 14.2318 8.64499L30.4797 17.877L25.8565 22.5007ZM30.5843 17.7726L14.2318 8.48155C13.7814 8.22611 13.3551 8.10499 12.9755 8.10499C12.9737 8.10499 12.9725 8.10499 12.9707 8.10499C12.9729 8.10499 12.9746 8.10499 12.9773 8.10499C13.356 8.10499 13.7818 8.22566 14.2318 8.48111L30.5843 17.7726Z" fill="url(#paint3_linear_997_13480)"/>
</g>
</g>
<path id="path13640" d="M13.0803 36.8943C13.4323 36.8741 13.8219 36.753 14.2316 36.5209L30.4786 27.2893L14.2316 36.5209C13.8223 36.7535 13.4323 36.8741 13.0803 36.8943ZM11.988 36.5331L11.9845 36.53C11.9858 36.5309 11.9871 36.5322 11.988 36.5331ZM11.9123 36.4596L11.9053 36.4527V36.4522C11.908 36.4548 11.9101 36.4574 11.9123 36.4596Z" fill="white"/>
<g id="g13642">
<g id="g13644">
<path id="path13660" d="M30.4795 27.2893L30.5849 27.2294L30.4795 27.2893Z" fill="url(#paint4_linear_997_13480)"/>
</g>
</g>
<g id="g13662">
<g id="g13664">
<path id="path13676" d="M12.978 36.897C12.5906 36.897 12.2521 36.7706 11.9884 36.5327L11.988 36.5332C11.9871 36.5323 11.9858 36.531 11.9845 36.5301L11.9123 36.4597C11.9101 36.4575 11.908 36.4549 11.9053 36.4523L11.9884 36.3692C12.2521 36.607 12.5901 36.7334 12.9776 36.733C13.3561 36.733 13.7821 36.6123 14.2316 36.3574L30.48 27.1254L30.5841 27.2295L30.4786 27.2894L14.2316 36.521C13.8219 36.7531 13.4323 36.8742 13.0803 36.8944C13.0457 36.8961 13.0116 36.897 12.978 36.897Z" fill="url(#paint5_linear_997_13480)"/>
</g>
</g>
<path id="path13678" d="M11.9058 36.4529C11.58 36.1082 11.3877 35.573 11.3877 34.88V34.8796C11.3877 35.573 11.58 36.1078 11.9058 36.4524V36.4529Z" fill="white"/>
<g id="g13680">
<g id="g13682">
<path id="path13702" d="M11.9058 36.4524C11.58 36.1077 11.3877 35.573 11.3877 34.8795V34.7164C11.3877 35.4094 11.58 35.9446 11.9058 36.2893L11.9889 36.3689L11.9058 36.4524Z" fill="url(#paint6_linear_997_13480)"/>
</g>
</g>
<g id="g13704">
<g id="g13706">
<path id="path13718" d="M11.9053 36.4524L11.9884 36.3689V36.3692L11.9053 36.4524Z" fill="url(#paint7_linear_997_13480)"/>
</g>
</g>
<path id="path13720" d="M37.1055 23.0798C37.1916 22.8909 37.2349 22.6968 37.2349 22.5026C37.2349 22.5022 37.2349 22.5018 37.2349 22.5018C37.2349 22.6963 37.1916 22.8904 37.1055 23.0798Z" fill="white"/>
<g id="g13722">
<g id="g13724">
<path id="path13740" d="M30.5846 27.2295L30.4805 27.1254L36.0617 23.9539C36.7705 23.5512 37.1685 23.0317 37.235 22.5026C37.235 22.6968 37.1916 22.8909 37.1056 23.0799C36.9319 23.4607 36.5839 23.8206 36.0617 24.1174L30.5846 27.2295Z" fill="url(#paint8_linear_997_13480)"/>
</g>
</g>
<path id="path13742" d="M37.2348 22.5007V22.5003C37.2344 21.9147 36.843 21.3293 36.0616 20.885L30.5844 17.7729H30.584L30.5844 17.7726L36.0616 20.8845C36.8439 21.3288 37.2357 21.9152 37.2348 22.5007Z" fill="#282739"/>
<g id="g13744">
<g id="g13746">
<path id="path13762" d="M37.2354 22.5005C37.1689 21.9701 36.771 21.451 36.0621 21.0483L30.4805 17.8772L30.5846 17.7731H30.585L36.0621 20.8852C36.8436 21.3295 37.2349 21.9149 37.2354 22.5005Z" fill="url(#paint9_linear_997_13480)"/>
</g>
</g>
<path id="path13764" d="M11.3877 10.1169C11.3877 10.1165 11.3877 10.116 11.3877 10.1156C11.3877 10.116 11.3877 10.1165 11.3877 10.1169ZM11.3925 9.93504C11.3925 9.93414 11.3925 9.93325 11.3925 9.93236C11.3925 9.93325 11.3925 9.93414 11.3925 9.93504ZM11.3928 9.92978C11.3928 9.92799 11.3928 9.92631 11.3928 9.92452C11.3928 9.92631 11.3928 9.92799 11.3928 9.92978ZM11.3928 9.92318C11.4577 8.77321 12.083 8.10896 12.9675 8.10504C12.584 8.10728 12.25 8.23321 11.9885 8.46885V8.4684L11.9853 8.47153C11.9578 8.49638 11.9316 8.52269 11.9058 8.54978C11.6119 8.86064 11.4265 9.32631 11.3928 9.92318Z" fill="#282739"/>
<g id="g13766">
<g id="g13768">
<path id="path13788" d="M11.3877 10.2869V10.1233C11.3877 10.1211 11.3877 10.1193 11.3877 10.1172C11.3877 10.1167 11.3877 10.1163 11.3877 10.1158C11.3877 10.0541 11.3894 9.99381 11.3925 9.93526C11.3925 9.93437 11.3925 9.93347 11.3925 9.93258C11.3925 9.93179 11.3925 9.9309 11.3928 9.93C11.3928 9.92821 11.3928 9.92653 11.3928 9.92474C11.3928 9.92429 11.3928 9.92384 11.3928 9.9234C11.4265 9.32653 11.6119 8.86086 11.9058 8.55L11.9876 8.63216C11.6119 8.97112 11.3877 9.53642 11.3877 10.2869ZM11.9853 8.47175L11.9885 8.46862C11.9876 8.46996 11.9862 8.47086 11.9853 8.47175Z" fill="url(#paint10_linear_997_13480)"/>
</g>
</g>
<g id="g13792">
<g id="g13794">
<path id="path13812" d="M30.4795 17.8772L14.2316 8.64515C13.7812 8.38981 13.3549 8.26869 12.9753 8.26869C12.5883 8.26869 12.2507 8.39462 11.9871 8.63205L11.9053 8.54988C11.9311 8.52279 11.9573 8.49649 11.9849 8.47164C11.9858 8.47074 11.9871 8.46985 11.988 8.46895C12.2495 8.23332 12.5835 8.10738 12.967 8.10514C12.9679 8.10514 12.9692 8.10514 12.9705 8.10514C12.9723 8.10514 12.9735 8.10514 12.9753 8.10514C13.3549 8.10514 13.7812 8.22626 14.2316 8.48171L30.5841 17.7728L30.5836 17.7731L30.4795 17.8772Z" fill="url(#paint11_linear_997_13480)"/>
</g>
</g>
<path id="path13814" d="M48.914 11.2688C48.9271 12.3313 48.7142 13.1883 48.2769 13.839H51.6722V8.77284H48.914V11.2688ZM47.3661 16.0896H46.541V13.839H47.1978C47.7793 13.3379 48.0635 12.4818 48.0518 11.2688V7.94773H52.5359V13.839H53.2859V16.0896H52.4603V14.6642H47.3661V16.0896Z" fill="#282739"/>
<path id="path13816" d="M48.9137 11.2689L48.8017 11.2702L48.8026 11.3607C48.8022 12.366 48.5923 13.1689 48.1834 13.7766L48.0663 13.9511H51.7838V8.66103H48.8017V11.2698V11.2702L48.9137 11.2689H49.0256V8.88491H51.5599V13.7272H48.2765V13.8392L48.3693 13.9013C48.8096 13.2462 49.0265 12.3961 49.0265 11.3607L49.0256 11.2676L48.9137 11.2689H49.0256H48.9137ZM47.3658 16.0897V15.9778H46.6526V13.9511H47.1974H47.2389L47.2704 13.924C47.8755 13.4019 48.1638 12.5321 48.1638 11.3423L48.1633 11.268V11.2689V8.05979H52.4236V13.9511H53.1736V15.9778H52.5719V14.6643V14.5523H47.2538V16.0897H47.3658V15.9778V16.0897H47.4777V14.7762H52.348V16.0897V16.2017H53.2855H53.3975V13.7272H52.6474V7.83591H47.9395V11.2693V11.2698L47.9399 11.3423C47.9395 12.5007 47.6587 13.2952 47.1243 13.7539L47.1974 13.8392V13.7272H46.5407H46.4287V16.2017H47.3658H47.4777V16.0897H47.3658Z" fill="#282739"/>
<path id="path13818" d="M55.7291 13.2337C56.2267 13.737 56.8346 13.9884 57.5539 13.9884C58.2731 13.9884 58.8818 13.737 59.3781 13.2337C59.8757 12.7304 60.1249 12.0871 60.1249 11.3058C60.1249 10.5244 59.8757 9.88109 59.3781 9.37781C58.8818 8.87452 58.2731 8.62311 57.5539 8.62311C56.8346 8.62311 56.2267 8.87452 55.7291 9.37781C55.2328 9.88109 54.9836 10.5244 54.9836 11.3058C54.9836 12.0871 55.2328 12.7304 55.7291 13.2337ZM60.0166 13.796C59.3562 14.475 58.5355 14.814 57.5539 14.814C56.5722 14.814 55.751 14.475 55.092 13.796C54.4318 13.1177 54.1025 12.2875 54.1025 11.3058C54.1025 10.324 54.4318 9.49367 55.092 8.81553C55.751 8.13639 56.5722 7.7971 57.5539 7.7971C58.5298 7.7971 59.3488 8.13818 60.0121 8.8199C60.6746 9.50161 61.006 10.3302 61.006 11.3058C61.006 12.2875 60.6759 13.1177 60.0166 13.796Z" fill="#282739"/>
<path id="path13820" d="M55.7288 13.2341L55.6492 13.3128C56.1647 13.8362 56.8079 14.1021 57.5535 14.1007C58.2986 14.1021 58.9431 13.8362 59.4573 13.3128C59.9764 12.7889 60.2374 12.1111 60.2365 11.3061C60.2374 10.5012 59.9764 9.82336 59.4573 9.29948C58.9431 8.77605 58.2986 8.51019 57.5535 8.51153C56.8079 8.51019 56.1647 8.77605 55.6492 9.29948C55.1315 9.82336 54.8704 10.5012 54.8713 11.3061C54.8704 12.1111 55.1315 12.7889 55.6492 13.3128L55.7288 13.2341L55.8088 13.1554C55.3339 12.6721 55.0964 12.0643 55.0952 11.3061C55.0964 10.5479 55.3339 9.94011 55.8088 9.45687H55.8084C56.2876 8.97373 56.8599 8.73675 57.5535 8.73541C58.2465 8.73675 58.8202 8.97373 59.2981 9.45687L59.2999 9.45866L59.2981 9.45687C59.7743 9.94011 60.0114 10.5479 60.0126 11.3061C60.0114 12.0643 59.7743 12.6721 59.2981 13.1554C58.8202 13.6385 58.2465 13.8755 57.5535 13.8768C56.8599 13.8755 56.2876 13.6385 55.8084 13.1554L55.7288 13.2341ZM60.0162 13.7963L59.9362 13.7185C59.2946 14.3762 58.5094 14.701 57.5535 14.7024C56.5972 14.701 55.8123 14.3762 55.1717 13.7185C54.5315 13.0587 54.2153 12.2629 54.2141 11.3061C54.2153 10.3494 54.5315 9.55358 55.1717 8.89369C55.8123 8.23605 56.5972 7.91075 57.5535 7.9094C58.5037 7.91075 59.2868 8.23739 59.9318 8.89851C60.5746 9.56142 60.8925 10.356 60.8937 11.3061C60.8925 12.2629 60.5755 13.0587 59.9362 13.7185L60.0162 13.7963L60.0966 13.8741C60.7753 13.1772 61.1185 12.3127 61.1176 11.3061C61.1185 10.3053 60.7744 9.44254 60.0922 8.74246C59.41 8.0397 58.5557 7.68429 57.5535 7.68552C56.5461 7.68429 55.6889 8.03802 55.0112 8.7381V8.73765C54.3312 9.43504 53.9893 10.2996 53.9902 11.3061C53.9893 12.3127 54.3312 13.1772 55.0112 13.8746V13.8741C55.6889 14.5742 56.5461 14.9272 57.5535 14.9263C58.5605 14.9272 59.4175 14.5742 60.0966 13.8741L60.0162 13.7963Z" fill="#282739"/>
<path id="path13822" d="M65.3507 14.814C64.3625 14.814 63.5339 14.4795 62.8649 13.81C62.1946 13.141 61.8613 12.3062 61.8613 11.3058C61.8613 10.3052 62.1946 9.47049 62.8649 8.80154C63.5339 8.13202 64.3625 7.7971 65.3507 7.7971C66.363 7.7971 67.186 8.16314 67.8178 8.89467L67.2165 9.47665C66.761 8.90732 66.1378 8.62311 65.3507 8.62311C64.6183 8.62311 64.0004 8.87016 63.4976 9.36426C62.9938 9.85837 62.7424 10.5056 62.7424 11.3058C62.7424 12.1059 62.9938 12.7536 63.4976 13.2472C64.0004 13.7414 64.6183 13.9884 65.3507 13.9884C66.1575 13.9884 66.8449 13.6634 67.4146 13.0133L68.0146 13.6132C67.7076 13.9822 67.3237 14.2747 66.8601 14.4899C66.3979 14.7059 65.8939 14.814 65.3507 14.814Z" fill="#282739"/>
<path id="path13824" d="M65.3504 14.8143V14.7024C64.3871 14.701 63.5935 14.3797 62.9437 13.7312C62.2943 13.0818 61.9738 12.2817 61.9729 11.3061C61.9738 10.3306 62.2943 9.53041 62.9437 8.88105C63.5935 8.23213 64.3871 7.91075 65.3504 7.90941C66.336 7.9112 67.1196 8.26011 67.7326 8.96802L67.8174 8.89504L67.7396 8.81455L67.1384 9.39698L67.2162 9.47702L67.3036 9.40705C66.8288 8.81153 66.1637 8.50985 65.3504 8.51153C64.5925 8.51064 63.9406 8.7709 63.419 9.28459C62.8921 9.80019 62.6288 10.4831 62.6301 11.3061C62.6288 12.1291 62.8921 12.8129 63.419 13.3276C63.9406 13.8413 64.5925 14.1016 65.3504 14.1007C66.1877 14.1021 66.9132 13.7583 67.4982 13.0875L67.4142 13.0137L67.3351 13.0928L67.9351 13.6927L68.0142 13.6135L67.928 13.5423C67.6316 13.8982 67.2625 14.1799 66.8125 14.3888C66.3652 14.5978 65.8791 14.7019 65.3504 14.7024V14.8143V14.9263C65.9083 14.9263 66.4296 14.8152 66.907 14.5918C67.3845 14.3705 67.7825 14.0675 68.1003 13.6853L68.1654 13.6071L67.4935 12.9345L67.4086 12.8497L67.3299 12.9398C66.7763 13.5699 66.1266 13.8755 65.3504 13.8768C64.6429 13.8755 64.06 13.642 63.5759 13.1676H63.5756C63.0946 12.6953 62.8549 12.0835 62.854 11.3061C62.8549 10.5287 63.0946 9.91784 63.5756 9.44467H63.5759C64.06 8.97026 64.6429 8.73676 65.3504 8.73541C66.1108 8.7372 66.6919 9.00396 67.1288 9.54698L67.2057 9.64325L67.8952 8.97552L67.9713 8.90198L67.9023 8.82205C67.252 8.06646 66.3893 7.68429 65.3504 7.68553C64.3368 7.68463 63.4731 8.03321 62.7854 8.72276C62.094 9.41097 61.7477 10.2812 61.749 11.3061C61.7477 12.331 62.094 13.2013 62.7854 13.8899C63.4731 14.579 64.3368 14.9272 65.3504 14.9263V14.8143Z" fill="#282739"/>
<path id="path13826" d="M71.505 14.6643H70.6415V8.773H68.7656V7.94789H73.3809V8.773H71.505V14.6643Z" fill="#282739"/>
<path id="path13828" d="M71.5047 14.6642V14.5522H70.7531V8.66094H68.8772V8.05971H73.2686V8.66094H71.3927V14.6642H71.5047V14.5522V14.6642H71.6166V8.88482H73.4925V7.94776V7.83582H68.6533V8.77288V8.88482H70.5292V14.7761H71.5047H71.6166V14.6642H71.5047Z" fill="#282739"/>
<path id="path13830" d="M75.2548 12.0372H77.4867L76.3891 9.00785H76.3519L75.2548 12.0372ZM73.3506 14.6643L75.8837 7.94789H76.8583L79.391 14.6643H78.4347L77.787 12.8439H74.9641L74.3073 14.6643H73.3506Z" fill="#282739"/>
<path id="path13832" d="M75.2555 12.0371V12.149H77.647L76.4681 8.89579H76.3527H76.274L75.096 12.149H75.2555V12.0371L75.361 12.0756L76.4581 9.04579L76.3527 9.00773V9.11967H76.3898V9.00773L76.2845 9.04579L77.3278 11.9251H75.2555V12.0371L75.361 12.0756L75.2555 12.0371ZM73.3513 14.6642L73.4562 14.7036L75.9618 8.05971H76.7812L79.2299 14.5522H78.5141L77.8669 12.7319H74.8861L74.2293 14.5522H73.3513V14.6642L73.4562 14.7036L73.3513 14.6642V14.7761H74.3081H74.3868L75.0435 12.9558H77.709L78.3563 14.7761H79.3917H79.5535L76.9364 7.83582H75.8844H75.807L73.1895 14.7761H73.3513V14.6642Z" fill="#282739"/>
<path id="path13834" d="M80.3672 14.6643V7.94789H85.2265V14.6643H84.363V8.773H81.2299V14.6643H80.3672Z" fill="#282739"/>
<path id="path13836" d="M80.3668 14.6642H80.4788V8.05971H85.1142V14.5522H84.4746V8.66094H81.1176V14.5522H80.3668V14.6642H80.4788H80.3668V14.7761H81.2295H81.3415V8.88482H84.2507V14.7761H85.2261H85.3381V7.83582H80.2549V14.7761H80.3668V14.6642Z" fill="#282739"/>
<path id="path13838" d="M86.7656 14.6643V7.94789H87.6285V10.8273H90.9867V7.94789H91.8498V14.6643H90.9867V11.6341H87.6285V14.6643H86.7656Z" fill="#282739"/>
<path id="path13840" d="M86.7653 14.6642H86.8772V8.05971H87.5162L87.5157 10.9391H91.0983V8.05971H91.7374V14.5522H91.0978L91.0983 11.522H87.5157V14.5522H86.7653V14.6642H86.8772H86.7653V14.7761H87.6281H87.74V11.7459H90.8739V14.7761H91.8494H91.9613V7.83582H90.9863H90.8739V10.7153H87.7396L87.74 7.83582H86.7653H86.6533V14.7761H86.7653V14.6642Z" fill="#282739"/>
<path id="path13842" d="M94.5924 13.2337C95.0901 13.737 95.6974 13.9884 96.4167 13.9884C97.1365 13.9884 97.7451 13.737 98.2415 13.2337C98.7386 12.7304 98.9883 12.0871 98.9883 11.3058C98.9883 10.5244 98.7386 9.88109 98.2415 9.37781C97.7451 8.87452 97.1365 8.62311 96.4167 8.62311C95.6974 8.62311 95.0901 8.87452 94.5924 9.37781C94.0962 9.88109 93.8469 10.5244 93.8469 11.3058C93.8469 12.0871 94.0962 12.7304 94.5924 13.2337ZM98.8799 13.796C98.2196 14.475 97.3989 14.814 96.4167 14.814C95.4356 14.814 94.6144 14.475 93.9554 13.796C93.2952 13.1177 92.9658 12.2875 92.9658 11.3058C92.9658 10.324 93.2952 9.49367 93.9554 8.81553C94.6144 8.13639 95.4356 7.7971 96.4167 7.7971C97.3932 7.7971 98.2117 8.13818 98.8755 8.8199C99.538 9.50161 99.8694 10.3302 99.8694 11.3058C99.8694 12.2875 99.5393 13.1177 98.8799 13.796Z" fill="#282739"/>
<path id="path13844" d="M94.593 13.2341L94.5134 13.3128C95.029 13.8362 95.6723 14.1021 96.4173 14.1007C97.1628 14.1021 97.807 13.8362 98.3217 13.3128C98.8407 12.7889 99.1018 12.1111 99.1009 11.3061C99.1018 10.5012 98.8407 9.82336 98.3217 9.29948C97.807 8.77605 97.1628 8.51019 96.4173 8.51153C95.6723 8.51019 95.029 8.77605 94.5134 9.29948C93.9957 9.82336 93.7347 10.5012 93.7356 11.3061C93.7347 12.1111 93.9957 12.7889 94.5134 13.3128L94.593 13.2341L94.6726 13.1554C94.1978 12.6721 93.9604 12.0643 93.9595 11.3061C93.9604 10.5479 94.1978 9.94011 94.6726 9.45687C95.152 8.97373 95.7243 8.73675 96.4173 8.73541C97.1109 8.73675 97.6846 8.97373 98.1625 9.45687L98.1655 9.46045L98.1625 9.45687C98.6382 9.94011 98.8756 10.5479 98.877 11.3061C98.8756 12.0643 98.6382 12.6721 98.1625 13.1554C97.6846 13.6385 97.1109 13.8755 96.4173 13.8768C95.7243 13.8755 95.152 13.6385 94.6726 13.1554L94.593 13.2341ZM98.8805 13.7963L98.8 13.7185C98.1586 14.3762 97.3736 14.701 96.4173 14.7024C95.4615 14.701 94.6766 14.3762 94.036 13.7185L94.0329 13.7151L94.036 13.7185C93.3954 13.0587 93.0793 12.2629 93.0784 11.3061C93.0793 10.3494 93.3954 9.55358 94.036 8.89369C94.6766 8.23605 95.4615 7.91075 96.4173 7.9094C97.3676 7.91075 98.1507 8.23739 98.7961 8.89851C99.4388 9.56142 99.7567 10.356 99.7581 11.3061C99.7567 12.2629 99.4397 13.0587 98.8 13.7185L98.8805 13.7963L98.9609 13.8741C99.6395 13.1772 99.9829 12.3127 99.982 11.3061C99.9829 10.3053 99.6383 9.44254 98.9566 8.74246C98.2744 8.0397 97.4195 7.68429 96.4173 7.68552C95.4103 7.68429 94.5533 8.03802 93.8755 8.7381V8.73765C93.1956 9.43504 92.8536 10.2996 92.8545 11.3061C92.8536 12.3127 93.1956 13.1772 93.8755 13.8746V13.8741C94.5533 14.5742 95.4103 14.9272 96.4173 14.9263C97.4248 14.9272 98.2818 14.5742 98.9609 13.8741L98.8805 13.7963Z" fill="#282739"/>
<path id="path13846" d="M103.398 14.6643V7.94789H104.26V10.8273H107.619V7.94789H108.483V14.6643H107.619V11.6341H104.26V14.6643H103.398Z" fill="#282739"/>
<path id="path13848" d="M103.398 14.6642H103.51V8.05971H104.148V10.9391H107.73V8.05971H108.37V14.5522H107.73V11.522H104.148V14.5522H103.398V14.6642H103.51H103.398V14.7761H104.26H104.372V11.7459H107.506V14.7761H108.482H108.594V7.83582H107.618H107.506V10.7153H104.372V7.83582H103.398H103.286V14.7761H103.398V14.6642Z" fill="#282739"/>
<path id="path13850" d="M111.362 12.0372H113.594L112.497 9.00785H112.46L111.362 12.0372ZM109.458 14.6643L111.991 7.94789H112.966L115.499 14.6643H114.542L113.895 12.8439H111.071L110.415 14.6643H109.458Z" fill="#282739"/>
<path id="path13852" d="M111.362 12.0371V12.149H113.754L112.576 8.89579H112.46H112.382L111.203 12.149H111.362V12.0371L111.468 12.0756L112.566 9.04579L112.46 9.00773V9.11967H112.497V9.00773L112.392 9.04579L113.435 11.9251H111.362V12.0371L111.468 12.0756L111.362 12.0371ZM109.458 14.6642L109.563 14.7036L112.069 8.05971H112.889L115.337 14.5522H114.622L113.974 12.7319H110.993L110.336 14.5522H109.458V14.6642L109.563 14.7036L109.458 14.6642V14.7761H110.415H110.494L111.151 12.9558H113.816L114.463 14.7761H115.5H115.661L113.044 7.83582H111.991H111.914L109.296 14.7761H109.458V14.6642Z" fill="#282739"/>
</g>
</g>
<defs>
<linearGradient id="paint0_linear_997_13480" x1="24.627" y1="9.86166" x2="5.84061" y2="28.648" gradientUnits="userSpaceOnUse">
<stop stop-color="#00A0FF"/>
<stop offset="0.00657445" stop-color="#00A1FF"/>
<stop offset="0.2601" stop-color="#00BEFF"/>
<stop offset="0.5122" stop-color="#00D2FF"/>
<stop offset="0.7604" stop-color="#00DFFF"/>
<stop offset="1" stop-color="#00E3FF"/>
</linearGradient>
<linearGradient id="paint1_linear_997_13480" x1="38.0992" y1="22.5015" x2="11.013" y2="22.5015" gradientUnits="userSpaceOnUse">
<stop stop-color="#FFE000"/>
<stop offset="0.4087" stop-color="#FFBD00"/>
<stop offset="0.7754" stop-color="#FFA500"/>
<stop offset="1" stop-color="#FF9C00"/>
</linearGradient>
<linearGradient id="paint2_linear_997_13480" x1="28.0159" y1="25.0703" x2="2.5402" y2="50.546" gradientUnits="userSpaceOnUse">
<stop stop-color="#FF3A44"/>
<stop offset="1" stop-color="#C31162"/>
</linearGradient>
<linearGradient id="paint3_linear_997_13480" x1="8.39257" y1="0.309018" x2="19.7685" y2="11.6849" gradientUnits="userSpaceOnUse">
<stop stop-color="#32A071"/>
<stop offset="0.0685" stop-color="#2DA771"/>
<stop offset="0.4762" stop-color="#15CF74"/>
<stop offset="0.8009" stop-color="#06E775"/>
<stop offset="1" stop-color="#00F076"/>
</linearGradient>
<linearGradient id="paint4_linear_997_13480" x1="38.0991" y1="22.5018" x2="11.0124" y2="22.5018" gradientUnits="userSpaceOnUse">
<stop stop-color="#CCB300"/>
<stop offset="0.4087" stop-color="#CC9700"/>
<stop offset="0.7754" stop-color="#CC8400"/>
<stop offset="1" stop-color="#CC7D00"/>
</linearGradient>
<linearGradient id="paint5_linear_997_13480" x1="28.0152" y1="25.0703" x2="2.53945" y2="50.546" gradientUnits="userSpaceOnUse">
<stop stop-color="#CC2E36"/>
<stop offset="1" stop-color="#9C0E4E"/>
</linearGradient>
<linearGradient id="paint6_linear_997_13480" x1="24.627" y1="9.86165" x2="5.84064" y2="28.6481" gradientUnits="userSpaceOnUse">
<stop stop-color="#008DE0"/>
<stop offset="0.00657445" stop-color="#008DE0"/>
<stop offset="0.2601" stop-color="#00A7E0"/>
<stop offset="0.5122" stop-color="#00B8E0"/>
<stop offset="0.7604" stop-color="#00C4E0"/>
<stop offset="1" stop-color="#00C7E0"/>
</linearGradient>
<linearGradient id="paint7_linear_997_13480" x1="28.0156" y1="25.0706" x2="2.54061" y2="50.5471" gradientUnits="userSpaceOnUse">
<stop stop-color="#E0333C"/>
<stop offset="1" stop-color="#AB0F56"/>
</linearGradient>
<linearGradient id="paint8_linear_997_13480" x1="38.0986" y1="22.5016" x2="11.0123" y2="22.5016" gradientUnits="userSpaceOnUse">
<stop stop-color="#E0C500"/>
<stop offset="0.4087" stop-color="#E0A600"/>
<stop offset="0.7754" stop-color="#E09100"/>
<stop offset="1" stop-color="#E08900"/>
</linearGradient>
<linearGradient id="paint9_linear_997_13480" x1="38.099" y1="22.5016" x2="11.0128" y2="22.5016" gradientUnits="userSpaceOnUse">
<stop stop-color="#FFE840"/>
<stop offset="0.4087" stop-color="#FFCE40"/>
<stop offset="0.7754" stop-color="#FFBC40"/>
<stop offset="1" stop-color="#FFB540"/>
</linearGradient>
<linearGradient id="paint10_linear_997_13480" x1="24.627" y1="9.86172" x2="5.84062" y2="28.6481" gradientUnits="userSpaceOnUse">
<stop stop-color="#40B8FF"/>
<stop offset="0.00657445" stop-color="#40B9FF"/>
<stop offset="0.2601" stop-color="#40CEFF"/>
<stop offset="0.5122" stop-color="#40DDFF"/>
<stop offset="0.7604" stop-color="#40E7FF"/>
<stop offset="1" stop-color="#40EAFF"/>
</linearGradient>
<linearGradient id="paint11_linear_997_13480" x1="8.39236" y1="0.309174" x2="19.7683" y2="11.6851" gradientUnits="userSpaceOnUse">
<stop stop-color="#65B895"/>
<stop offset="0.0685" stop-color="#62BD95"/>
<stop offset="0.4762" stop-color="#50DB97"/>
<stop offset="0.8009" stop-color="#44ED98"/>
<stop offset="1" stop-color="#40F498"/>
</linearGradient>
</defs>
</svg>
