<svg width="18" height="18" viewBox="0 0 18 18" fill="none" xmlns="http://www.w3.org/2000/svg">
<g id="call 1">
<g id="Group">
<g id="Group_2">
<path id="Vector" d="M15.7162 11.5022C14.7366 11.5022 13.7747 11.349 12.8633 11.0478C12.4167 10.8954 11.8676 11.0352 11.595 11.3151L9.796 12.6732C7.70963 11.5595 6.42446 10.2748 5.32596 8.20404L6.64408 6.45188C6.98654 6.10988 7.10938 5.61029 6.96221 5.14154C6.65971 4.22529 6.50604 3.26392 6.50604 2.28392C6.50608 1.57596 5.93013 1 5.22221 1H2.28387C1.57596 1 1 1.57596 1 2.28387C1 10.3985 7.60158 17 15.7162 17C16.4241 17 17 16.424 17 15.7161V12.786C17 12.0781 16.424 11.5022 15.7162 11.5022Z" fill="#6F73EE"/>
</g>
</g>
</g>
</svg>
