<svg width="18" height="18" viewBox="0 0 18 18" fill="none" xmlns="http://www.w3.org/2000/svg">
<g id="arroba 1" clip-path="url(#clip0_309_9722)">
<path id="Vector" d="M17.6335 7.76236C17.3191 5.47081 16.1073 3.39802 14.2646 1.99997C12.4219 0.601921 10.0993 -0.00686289 7.80777 0.307543C5.51622 0.621949 3.44343 1.83379 2.04538 3.67648C0.647331 5.51916 0.0385473 7.84175 0.352953 10.1333C0.611982 12.0299 1.48357 13.79 2.83507 15.1457C4.18658 16.5014 5.94398 17.3784 7.83983 17.6432C8.22776 17.694 8.61858 17.7196 9.00983 17.7197C10.5905 17.7223 12.1416 17.291 13.4941 16.4727C13.589 16.4155 13.6717 16.3402 13.7375 16.251C13.8034 16.1619 13.851 16.0607 13.8777 15.9531C13.9044 15.8456 13.9096 15.7338 13.8931 15.6242C13.8766 15.5147 13.8387 15.4094 13.7815 15.3145C13.7243 15.2196 13.649 15.1368 13.5599 15.071C13.4707 15.0052 13.3695 14.9576 13.262 14.9309C13.0448 14.877 12.815 14.9116 12.6233 15.027C11.6607 15.6048 10.5737 15.9437 9.45325 16.0153C8.33281 16.0869 7.2115 15.8892 6.18314 15.4387C5.15478 14.9881 4.24927 14.2979 3.54234 13.4256C2.83541 12.5534 2.34763 11.5246 2.1198 10.4252C1.89198 9.32584 1.93072 8.1879 2.23281 7.10657C2.53489 6.02525 3.09152 5.03198 3.85614 4.20986C4.62076 3.38775 5.57113 2.76068 6.62776 2.38113C7.68438 2.00158 8.81654 1.88057 9.92952 2.02823C10.9633 2.16568 11.9535 2.53137 12.8285 3.0988C13.7035 3.66623 14.4413 4.42119 14.9885 5.30899C15.5357 6.19679 15.8785 7.19518 15.9922 8.23184C16.1058 9.26851 15.9875 10.3175 15.6456 11.3027C15.5569 11.5397 15.3967 11.7431 15.1871 11.8848C14.9776 12.0265 14.7291 12.0995 14.4762 12.0936C14.1429 12.0932 13.8234 11.9606 13.5877 11.7249C13.3521 11.4892 13.2195 11.1697 13.219 10.8364V5.62486C13.219 5.40108 13.1301 5.18647 12.9719 5.02823C12.8137 4.87 12.599 4.78111 12.3753 4.78111C12.1515 4.78111 11.9369 4.87 11.7786 5.02823C11.6204 5.18647 11.5315 5.40108 11.5315 5.62486V5.63273C10.8919 5.14996 10.128 4.85936 9.32917 4.79494C8.53038 4.73052 7.72977 4.89495 7.02103 5.26898C6.31229 5.643 5.72474 6.21116 5.32714 6.90695C4.92955 7.60275 4.73835 8.39739 4.77593 9.19789C4.81352 9.99839 5.07832 10.7716 5.53936 11.4271C6.0004 12.0826 6.6386 12.5932 7.37926 12.8992C8.11993 13.2052 8.93243 13.2938 9.72166 13.1549C10.5109 13.0159 11.2442 12.655 11.8358 12.1144C12.0748 12.6123 12.4493 13.0327 12.9163 13.3275C13.3833 13.6223 13.9239 13.7795 14.4762 13.7811C15.0799 13.7869 15.6704 13.6046 16.1658 13.2594C16.6611 12.9143 17.0367 12.4235 17.2403 11.8551C17.695 10.5415 17.8298 9.13846 17.6335 7.76236ZM9.00027 11.5311C8.49963 11.5311 8.01024 11.3827 7.59398 11.1045C7.17772 10.8264 6.85328 10.431 6.6617 9.96852C6.47011 9.506 6.41998 8.99705 6.51765 8.50603C6.61532 8.01502 6.8564 7.56399 7.2104 7.20999C7.5644 6.85599 8.01543 6.61491 8.50644 6.51724C8.99746 6.41957 9.50641 6.4697 9.96893 6.66128C10.4315 6.85287 10.8268 7.17731 11.1049 7.59357C11.3831 8.00983 11.5315 8.49922 11.5315 8.99986C11.5308 9.67096 11.2638 10.3144 10.7893 10.7889C10.3148 11.2634 9.67137 11.5304 9.00027 11.5311Z" fill="#6F73EE"/>
</g>
<defs>
<clipPath id="clip0_309_9722">
<rect width="18" height="18" fill="white"/>
</clipPath>
</defs>
</svg>
