<svg width="21" height="21" viewBox="0 0 21 21" fill="none" xmlns="http://www.w3.org/2000/svg">
<g id="Icon / Filled / Phone">
<path id="Vector" d="M2.83828 4.7209L5.02236 2.53887C5.17643 2.38412 5.35955 2.26134 5.56121 2.17758C5.76287 2.09382 5.9791 2.05073 6.19746 2.05078C6.64248 2.05078 7.06084 2.2251 7.37461 2.53887L9.7248 4.88906C9.87955 5.04313 10.0023 5.22625 10.0861 5.42791C10.1698 5.62957 10.2129 5.8458 10.2129 6.06416C10.2129 6.50918 10.0386 6.92754 9.7248 7.24131L8.00625 8.95986C8.40852 9.84654 8.96781 10.6532 9.65713 11.3408C10.3447 12.0318 11.1513 12.5931 12.0381 12.9979L13.7566 11.2793C13.9107 11.1246 14.0938 11.0018 14.2955 10.918C14.4972 10.8343 14.7134 10.7912 14.9317 10.7912C15.3768 10.7912 15.7951 10.9655 16.1089 11.2793L18.4611 13.6274C18.6161 13.7818 18.739 13.9653 18.8227 14.1673C18.9065 14.3693 18.9495 14.5859 18.9492 14.8046C18.9492 15.2496 18.7749 15.668 18.4611 15.9817L16.2812 18.1617C15.7808 18.6642 15.0896 18.9492 14.3801 18.9492C14.2304 18.9492 14.0868 18.9369 13.9453 18.9123C11.1809 18.457 8.43896 16.9866 6.22617 14.7759C4.01543 12.5672 2.54707 9.82734 2.08564 7.05469C1.94619 6.20772 2.22715 5.33613 2.83828 4.7209Z" fill="#6F73EE"/>
</g>
</svg>
