<svg width="21" height="21" viewBox="0 0 21 21" fill="none" xmlns="http://www.w3.org/2000/svg">
<g id="Icon / Filled / Environment">
<path id="Vector" d="M10.5 6.70605C9.88682 6.70605 9.31055 6.94394 8.87578 7.37871C8.66214 7.59174 8.49272 7.84491 8.37728 8.12366C8.26184 8.40241 8.20266 8.70123 8.20312 9.00293C8.20312 9.61611 8.44307 10.1924 8.87578 10.6271C9.08881 10.8408 9.34198 11.0102 9.62073 11.1256C9.89948 11.2411 10.1983 11.3003 10.5 11.2998C11.1132 11.2998 11.6895 11.0599 12.1242 10.6271C12.559 10.1924 12.7969 9.61611 12.7969 9.00293C12.7969 8.38975 12.559 7.81348 12.1242 7.37871C11.6895 6.94394 11.1132 6.70605 10.5 6.70605ZM17.526 5.92881C17.1399 5.03852 16.5832 4.23244 15.8874 3.55605C15.1893 2.87355 14.3663 2.33186 13.4634 1.96055C12.5241 1.5709 11.5274 1.37402 10.5 1.37402C9.47256 1.37402 8.47588 1.5709 7.53662 1.9585C6.62812 2.33379 5.81396 2.87109 5.1126 3.554C4.41722 4.23077 3.86063 5.03676 3.47402 5.92676C3.07412 6.84961 2.87109 7.82988 2.87109 8.83887C2.87109 10.2867 3.21768 11.7284 3.89854 13.1188C4.44609 14.2365 5.21104 15.3255 6.1749 16.3611C7.82168 18.1289 9.54844 19.2097 10.0386 19.4988C10.1777 19.581 10.3364 19.6242 10.4979 19.6239C10.6579 19.6239 10.8158 19.5829 10.9573 19.4988C11.4475 19.2097 13.1742 18.1289 14.821 16.3611C15.7849 15.3275 16.5498 14.2365 17.0974 13.1188C17.7823 11.7305 18.1289 10.2908 18.1289 8.84092C18.1289 7.83193 17.9259 6.85166 17.526 5.92881ZM10.5 12.6123C8.50664 12.6123 6.89062 10.9963 6.89062 9.00293C6.89062 7.00957 8.50664 5.39355 10.5 5.39355C12.4934 5.39355 14.1094 7.00957 14.1094 9.00293C14.1094 10.9963 12.4934 12.6123 10.5 12.6123Z" fill="#6F73EE"/>
</g>
</svg>
