<svg width="21" height="21" viewBox="0 0 21 21" fill="none" xmlns="http://www.w3.org/2000/svg">
<g id="warning 1">
<g id="surface1">
<path id="Vector" d="M19.2275 8.99667L11.962 1.73118C11.5715 1.34054 11.0521 1.12549 10.4999 1.12549C9.94757 1.12549 9.42818 1.34054 9.03767 1.73118L1.7722 8.99667C1.38169 9.38717 1.1665 9.90642 1.1665 10.4589C1.1665 11.0113 1.38169 11.5305 1.7722 11.921L9.03767 19.1865C9.42818 19.5772 9.94757 19.7922 10.4999 19.7922C11.0521 19.7922 11.5715 19.5772 11.962 19.1865L19.2274 11.921C19.618 11.5305 19.8332 11.0113 19.8332 10.4589C19.8332 9.90642 19.618 9.38717 19.2275 8.99667ZM11.061 14.2114C11.0591 14.2289 11.0566 14.2467 11.0529 14.2642C11.0493 14.2817 11.0449 14.2992 11.0398 14.3165C11.0346 14.3333 11.0285 14.3504 11.0215 14.3667C11.015 14.3831 11.007 14.3996 10.9989 14.4153C10.9906 14.431 10.9811 14.4464 10.9712 14.4613C10.9613 14.4763 10.9507 14.4905 10.9395 14.5043C10.9281 14.5181 10.9157 14.5317 10.9033 14.5445C10.8906 14.5569 10.8771 14.5693 10.8632 14.5805C10.8493 14.5919 10.8351 14.6024 10.8201 14.6123C10.8052 14.6221 10.7898 14.6316 10.7741 14.64C10.7585 14.648 10.7421 14.6557 10.7256 14.6627C10.7092 14.6695 10.6921 14.6758 10.6753 14.6809C10.6581 14.686 10.6407 14.6903 10.6232 14.694C10.6057 14.6973 10.5877 14.7003 10.5702 14.702C10.5524 14.7038 10.5342 14.7046 10.5162 14.7046C10.4984 14.7046 10.4805 14.7038 10.4625 14.702C10.4447 14.7003 10.4269 14.6973 10.4093 14.694C10.3919 14.6903 10.3744 14.686 10.3576 14.6809C10.3403 14.6758 10.3233 14.6695 10.3069 14.6627C10.2904 14.6557 10.2743 14.648 10.2587 14.64C10.2429 14.6316 10.2273 14.6221 10.2123 14.6123C10.1978 14.6024 10.1831 14.5919 10.1693 14.5805C10.1554 14.5693 10.142 14.5569 10.1294 14.5445C10.1168 14.5317 10.1047 14.5181 10.093 14.5043C10.082 14.4905 10.0712 14.4763 10.0612 14.4613C10.0514 14.4464 10.0423 14.431 10.0339 14.4153C10.0256 14.3996 10.0179 14.3831 10.0109 14.3667C10.0044 14.3504 9.99812 14.3333 9.993 14.3165C9.98759 14.2992 9.98317 14.2817 9.97989 14.2642C9.97633 14.2467 9.97377 14.2289 9.97192 14.2114C9.97007 14.1934 9.96907 14.1752 9.96907 14.1574C9.96907 14.1394 9.97007 14.1216 9.97192 14.1037C9.97377 14.0859 9.97633 14.068 9.97989 14.0504C9.98317 14.0329 9.98759 14.0154 9.993 13.9987C9.99812 13.9815 10.0044 13.9647 10.0109 13.9479C10.0179 13.9315 10.0255 13.9154 10.0339 13.8998C10.0423 13.8841 10.0514 13.8684 10.0612 13.8539C10.0712 13.839 10.082 13.8243 10.093 13.8105C10.1047 13.7965 10.1168 13.7831 10.1294 13.7703C10.142 13.7579 10.1554 13.7458 10.1693 13.7341C10.1831 13.7232 10.1976 13.7123 10.2123 13.7024C10.2273 13.6925 10.2429 13.6834 10.2587 13.675C10.2744 13.6666 10.2904 13.6591 10.3069 13.6521C10.3233 13.6451 10.3403 13.6393 10.3576 13.6342C10.3744 13.6287 10.3918 13.6243 10.4093 13.6211C10.4268 13.6175 10.4447 13.6145 10.4625 13.6131C10.498 13.6094 10.5345 13.6094 10.5702 13.6131C10.5877 13.6145 10.6057 13.6175 10.6232 13.6211C10.6406 13.6243 10.6581 13.6287 10.6753 13.6342C10.6921 13.6393 10.7092 13.6451 10.7256 13.6521C10.7421 13.6591 10.7585 13.6666 10.7741 13.675C10.7898 13.6834 10.8052 13.6925 10.8201 13.7024C10.8351 13.7123 10.8493 13.7232 10.8632 13.7341C10.8771 13.7458 10.8906 13.7579 10.9033 13.7703C10.9157 13.7831 10.9282 13.7965 10.9395 13.8105C10.9507 13.8243 10.9613 13.839 10.9712 13.8539C10.9811 13.8684 10.9905 13.8841 10.9989 13.8998C11.007 13.9154 11.015 13.9315 11.0215 13.9479C11.0285 13.9647 11.0346 13.9815 11.0398 13.9987C11.0449 14.0154 11.0493 14.0329 11.0529 14.0504C11.0566 14.068 11.0591 14.0859 11.061 14.1037C11.0628 14.1216 11.0635 14.1394 11.0635 14.1574C11.0635 14.1752 11.0628 14.1934 11.061 14.2114ZM11.0635 12.4427C11.0635 12.7449 10.8186 12.99 10.5164 12.99C10.2142 12.99 9.96907 12.7449 9.96907 12.4427V6.7663C9.96907 6.46409 10.2142 6.21899 10.5164 6.21899C10.8186 6.21899 11.0635 6.46409 11.0635 6.7663V12.4427Z" fill="#6F73EE"/>
</g>
</g>
</svg>
