<svg width="18" height="18" viewBox="0 0 18 18" fill="none" xmlns="http://www.w3.org/2000/svg">
<g id="whatsapp 1" clip-path="url(#clip0_309_9725)">
<g id="Group">
<g id="Group_2">
<path id="Vector" d="M9.00225 0H8.99775C4.03538 0 0 4.0365 0 9C0 10.9688 0.6345 12.7935 1.71337 14.2751L0.59175 17.6186L4.05113 16.5128C5.47425 17.4555 7.17188 18 9.00225 18C13.9646 18 18 13.9624 18 9C18 4.03763 13.9646 0 9.00225 0ZM14.2391 12.7091C14.022 13.3223 13.1602 13.8307 12.4729 13.9792C12.0026 14.0794 11.3884 14.1593 9.32063 13.302C6.67575 12.2063 4.9725 9.51862 4.83975 9.34425C4.71263 9.16988 3.771 7.92112 3.771 6.62963C3.771 5.33813 4.42688 4.70925 4.69125 4.43925C4.90838 4.21763 5.26725 4.11637 5.6115 4.11637C5.72288 4.11637 5.823 4.122 5.913 4.1265C6.17737 4.13775 6.31012 4.1535 6.4845 4.57088C6.70162 5.094 7.23037 6.3855 7.29338 6.51825C7.3575 6.651 7.42163 6.831 7.33162 7.00538C7.24725 7.18538 7.173 7.26525 7.04025 7.41825C6.9075 7.57125 6.7815 7.68825 6.64875 7.8525C6.52725 7.99538 6.39 8.14838 6.543 8.41275C6.696 8.6715 7.22475 9.53437 8.00325 10.2274C9.00787 11.1217 9.82237 11.4075 10.1137 11.529C10.3309 11.619 10.5896 11.5976 10.7483 11.4289C10.9496 11.2118 11.1982 10.8518 11.4514 10.4974C11.6314 10.2431 11.8586 10.2116 12.0971 10.3016C12.3401 10.386 13.626 11.0216 13.8904 11.1532C14.1547 11.286 14.3291 11.349 14.3932 11.4604C14.4562 11.5718 14.4562 12.0949 14.2391 12.7091Z" fill="#6F73EE"/>
</g>
</g>
</g>
<defs>
<clipPath id="clip0_309_9725">
<rect width="18" height="18" fill="white"/>
</clipPath>
</defs>
</svg>
