<svg width="25" height="25" viewBox="0 0 25 25" fill="none" xmlns="http://www.w3.org/2000/svg">
<g id="billfold 1" clip-path="url(#clip0_199_2341)">
<path id="Vector" d="M20.3125 16.6667C17.7281 16.6667 15.625 14.5635 15.625 11.9792C15.625 9.39479 17.7281 7.29167 20.3125 7.29167H22.9167V5.98958C22.9167 4.40937 21.6323 3.125 20.0521 3.125H2.86458C1.28438 3.125 0 4.40937 0 5.98958V19.0104C0 20.5906 1.28438 21.875 2.86458 21.875H20.0521C21.6323 21.875 22.9167 20.5906 22.9167 19.0104V16.6667H20.3125Z" fill="#6F73EE"/>
<path id="Vector_2" d="M24.2187 8.85419H20.3125C18.5896 8.85419 17.1875 10.2563 17.1875 11.9792C17.1875 13.7021 18.5896 15.1042 20.3125 15.1042H24.2187C24.65 15.1042 25 14.7542 25 14.3229V9.63544C25 9.20419 24.65 8.85419 24.2187 8.85419ZM20.3125 13.0209C19.7375 13.0209 19.2708 12.5542 19.2708 11.9792C19.2708 11.4042 19.7375 10.9375 20.3125 10.9375C20.8875 10.9375 21.3542 11.4042 21.3542 11.9792C21.3542 12.5542 20.8875 13.0209 20.3125 13.0209Z" fill="#6F73EE"/>
</g>
<defs>
<clipPath id="clip0_199_2341">
<rect width="25" height="25" fill="white"/>
</clipPath>
</defs>
</svg>
