<svg width="25" height="25" viewBox="0 0 25 25" fill="none" xmlns="http://www.w3.org/2000/svg">
<g id="shopping-cart 2" clip-path="url(#clip0_199_2303)">
<path id="Vector" d="M23.9404 9.0679H18.7539L15.8446 2.40613C15.6827 2.03548 15.251 1.86609 14.8802 2.02805C14.5095 2.18992 14.3403 2.62171 14.5022 2.99241L17.1555 9.06795H7.84456L10.4979 2.99241C10.6597 2.62171 10.4905 2.18997 10.1198 2.02805C9.74915 1.86609 9.31731 2.03538 9.15549 2.40613L6.24612 9.0679H1.05964C0.381177 9.0679 -0.122338 9.68211 0.0260991 10.3286L2.7573 22.2246C2.86575 22.697 3.29514 23.0327 3.79085 23.0327H21.2092C21.7049 23.0327 22.1343 22.697 22.2428 22.2246L24.974 10.3286C25.1224 9.68216 24.6188 9.0679 23.9404 9.0679ZM6.38391 11.3142C6.28606 11.3142 6.1866 11.2945 6.09114 11.2528C5.72044 11.0909 5.55115 10.6592 5.71306 10.2884L6.26326 9.02854H7.86169L7.05544 10.8746C6.93528 11.15 6.66624 11.3142 6.38391 11.3142ZM8.83792 19.1265C8.83792 19.531 8.50999 19.8589 8.10549 19.8589C7.701 19.8589 7.37307 19.531 7.37307 19.1265V13.7554C7.37307 13.3509 7.701 13.023 8.10549 13.023C8.50999 13.023 8.83792 13.3509 8.83792 13.7554V19.1265ZM13.2324 19.1265C13.2324 19.531 12.9045 19.8589 12.5 19.8589C12.0955 19.8589 11.7676 19.531 11.7676 19.1265V13.7554C11.7676 13.3509 12.0955 13.023 12.5 13.023C12.9045 13.023 13.2324 13.3509 13.2324 13.7554V19.1265ZM17.627 19.1265C17.627 19.531 17.299 19.8589 16.8946 19.8589C16.4901 19.8589 16.1621 19.531 16.1621 19.1265V13.7554C16.1621 13.3509 16.4901 13.023 16.8946 13.023C17.299 13.023 17.627 13.3509 17.627 13.7554V19.1265ZM18.9089 11.2528C18.8135 11.2945 18.714 11.3142 18.6161 11.3142C18.3338 11.3142 18.0648 11.15 17.9446 10.8747L17.1383 9.02859H18.7367L19.2869 10.2885C19.4489 10.6592 19.2796 11.0909 18.9089 11.2528Z" fill="#6F73EE"/>
</g>
<defs>
<clipPath id="clip0_199_2303">
<rect width="25" height="25" fill="white"/>
</clipPath>
</defs>
</svg>
