<svg width="25" height="25" viewBox="0 0 25 25" fill="none" xmlns="http://www.w3.org/2000/svg">
<g id="delivery 1" clip-path="url(#clip0_199_2363)">
<g id="Group">
<path id="Vector" fill-rule="evenodd" clip-rule="evenodd" d="M18.4024 6.49967V0.732231C18.4024 0.327873 18.0746 0 17.6702 0H12.7254V5.56831C12.7254 6.09436 12.1645 6.49948 11.6159 6.19602L9.22466 4.98524L6.78516 6.22044C6.29363 6.46877 5.72524 6.10085 5.72562 5.56831L5.72429 0H0.779106C0.374748 0 0.046875 0.327873 0.046875 0.732231V17.6233C0.046875 18.0277 0.374748 18.3556 0.779106 18.3556H10.3273C9.87983 17.1701 9.60994 15.9914 9.60994 14.9408C9.60994 10.1448 13.5986 6.30722 18.4024 6.49967Z" fill="#6F73EE"/>
<path id="Vector_2" fill-rule="evenodd" clip-rule="evenodd" d="M9.55261 3.51429L11.2597 4.3787V0H7.1875V4.3787L8.89343 3.51505C9.09332 3.41377 9.33708 3.40576 9.55261 3.51429Z" fill="#6F73EE"/>
<path id="Vector_3" fill-rule="evenodd" clip-rule="evenodd" d="M18.0578 7.95728C14.2011 7.95728 11.0742 11.0842 11.0742 14.9408C11.0742 16.7837 12.1175 19.2148 13.4485 21.2006C14.8786 23.3343 16.7093 25 18.0578 25C19.4063 25 21.237 23.3343 22.6671 21.2006C23.998 19.2148 25.0414 16.7837 25.0414 14.9408C25.0415 11.0842 21.9146 7.95728 18.0578 7.95728ZM18.0578 17.6287C16.5737 17.6287 15.3701 16.4251 15.3701 14.9408C15.3701 13.4567 16.5737 12.2534 18.0578 12.2534C19.5419 12.2534 20.7454 13.4567 20.7454 14.9408C20.7454 16.4251 19.5421 17.6287 18.0578 17.6287Z" fill="#6F73EE"/>
<path id="Vector_4" fill-rule="evenodd" clip-rule="evenodd" d="M19.2821 14.9408C19.2821 15.6164 18.7345 16.164 18.0589 16.164C17.3835 16.164 16.8359 15.6164 16.8359 14.9408C16.8359 14.2654 17.3835 13.7178 18.0589 13.7178C18.7345 13.7178 19.2821 14.2654 19.2821 14.9408Z" fill="#6F73EE"/>
</g>
</g>
<defs>
<clipPath id="clip0_199_2363">
<rect width="25" height="25" fill="white"/>
</clipPath>
</defs>
</svg>
