<svg width="25" height="25" viewBox="0 0 25 25" fill="none" xmlns="http://www.w3.org/2000/svg">
<g id="percentage-discount 1" clip-path="url(#clip0_199_2369)">
<g id="Group">
<g id="Layer_5_90_">
<g id="Group_2">
<path id="Vector" d="M10.8546 9.70644C11.819 8.66043 12.3503 7.25734 12.3503 5.75522C12.3503 2.89523 10.3075 0 6.40246 0C4.58512 0 3.05198 0.624205 1.96855 1.80509C1.00885 2.85126 0.480469 4.25404 0.480469 5.75522C0.480469 8.61552 2.51463 11.5106 6.40246 11.5106C8.22658 11.5107 9.76643 10.8869 10.8546 9.70644ZM6.40246 2.67599C8.54211 2.67599 9.51655 4.27322 9.51655 5.75725C9.51655 6.56452 9.24491 7.31183 8.75122 7.86127C8.20046 8.47495 7.40005 8.79945 6.43716 8.79945C4.2434 8.79945 3.24401 7.20237 3.24401 5.7185C3.24401 4.2043 4.22078 2.67599 6.40246 2.67599Z" fill="#6F73EE"/>
<path id="Vector_2" d="M20.6066 2.22015C20.2527 2.22655 19.7695 2.44719 19.5328 2.71033L1.96559 22.242C1.72896 22.5053 1.89659 22.8744 2.25048 22.8744H4.54973C4.90362 22.8744 5.38632 22.6586 5.62256 22.3951L23.0812 2.86736C23.3174 2.6036 23.3017 2.17447 22.7169 2.17462L20.6066 2.22015Z" fill="#6F73EE"/>
<path id="Vector_3" d="M18.6843 13.7083C16.902 13.7083 15.3979 14.321 14.335 15.4793C13.3936 16.5052 12.875 17.8816 12.875 19.3542C12.875 22.1598 14.8705 25 18.6843 25C20.4742 25 21.9844 24.3879 23.052 23.2301C23.9982 22.2039 24.5192 20.8274 24.5192 19.3542C24.5192 16.5487 22.515 13.7083 18.6843 13.7083ZM18.7187 22.4091C16.5844 22.4091 15.6119 20.8064 15.6119 19.3179C15.6119 18.5073 15.8834 17.7571 16.3767 17.2056C16.9266 16.5901 17.7245 16.2649 18.6843 16.2649C20.8188 16.2649 21.7909 17.8673 21.7909 19.3563C21.7909 20.1667 21.5193 20.917 21.0264 21.4685C20.4763 22.0839 19.6783 22.4091 18.7187 22.4091Z" fill="#6F73EE"/>
</g>
</g>
</g>
</g>
<defs>
<clipPath id="clip0_199_2369">
<rect width="25" height="25" fill="white"/>
</clipPath>
</defs>
</svg>
