<svg width="20" height="20" viewBox="0 0 20 20" fill="none" xmlns="http://www.w3.org/2000/svg">
<path d="M13.6507 6.89453H12.7346C12.5354 6.89453 12.346 6.99023 12.2288 7.1543L9.15846 11.4121L7.76783 9.48242C7.65064 9.32031 7.46314 9.22266 7.26197 9.22266H6.34595C6.219 9.22266 6.14478 9.36719 6.219 9.4707L8.6526 12.8457C8.71009 12.9259 8.78588 12.9913 8.87368 13.0364C8.96148 13.0815 9.05877 13.1051 9.15748 13.1051C9.2562 13.1051 9.35348 13.0815 9.44129 13.0364C9.52909 12.9913 9.60488 12.9259 9.66237 12.8457L13.7757 7.14258C13.8518 7.03906 13.7776 6.89453 13.6507 6.89453V6.89453Z" fill="white"/>
<path d="M10 1.25C5.16797 1.25 1.25 5.16797 1.25 10C1.25 14.832 5.16797 18.75 10 18.75C14.832 18.75 18.75 14.832 18.75 10C18.75 5.16797 14.832 1.25 10 1.25ZM10 17.2656C5.98828 17.2656 2.73438 14.0117 2.73438 10C2.73438 5.98828 5.98828 2.73438 10 2.73438C14.0117 2.73438 17.2656 5.98828 17.2656 10C17.2656 14.0117 14.0117 17.2656 10 17.2656Z" fill="white"/>
</svg>
