<svg width="18" height="18" viewBox="0 0 18 18" fill="none" xmlns="http://www.w3.org/2000/svg">
<g id="accumulator 1">
<g id="Group">
<g id="Group_2">
<path id="Vector" d="M16.5 3.75001V2.99999C16.5 2.58655 16.1638 2.25 15.75 2.25H13.5C13.0862 2.25 12.75 2.58655 12.75 2.99999V3.74998H12.5303L12.2198 3.43944C11.9407 3.16002 11.554 2.99999 11.1592 2.99999H6.84081C6.44604 2.99999 6.05932 3.16002 5.78025 3.43944L5.46971 3.74998H5.24999V2.99999C5.24999 2.58655 4.91382 2.25 4.5 2.25H2.25C1.83618 2.25 1.50001 2.58655 1.50001 2.99999V3.74998C0.673102 3.75001 0 4.42273 0 5.24999V14.25C0 15.0773 0.673102 15.75 1.50001 15.75H16.5C17.3269 15.75 18 15.0773 18 14.25V5.24999C18 4.42273 17.3269 3.75001 16.5 3.75001ZM4.12499 7.49999H2.62501C2.41773 7.49999 2.25 7.33226 2.25 7.12498C2.25 6.91773 2.41773 6.75 2.62501 6.75H4.12502C4.3323 6.75 4.50004 6.91773 4.50004 7.12501C4.5 7.33229 4.33227 7.49999 4.12499 7.49999ZM15.375 7.49999H15V7.875C15 8.08228 14.8322 8.25001 14.625 8.25001C14.4177 8.25001 14.25 8.08228 14.25 7.875V7.49999H13.8749C13.6677 7.49999 13.4999 7.33226 13.4999 7.12498C13.4999 6.9177 13.6677 6.74996 13.8749 6.74996H14.25V6.37495C14.25 6.16767 14.4177 5.99994 14.625 5.99994C14.8322 5.99994 15 6.16767 15 6.37495V6.75H15.375C15.5823 6.75 15.75 6.91773 15.75 7.12501C15.75 7.33229 15.5823 7.49999 15.375 7.49999Z" fill="#5D6C7B"/>
</g>
</g>
</g>
</svg>
