<svg width="135" height="45" viewBox="0 0 135 45" fill="none" xmlns="http://www.w3.org/2000/svg">
<g clip-path="url(#clip0_334_29179)">
<path d="M124.191 0.00014625H11.0156C10.603 0.00014625 10.1955 0.00014625 9.78401 0.00239625C9.43959 0.00464625 9.09791 0.0111825 8.75019 0.0166837C7.99477 0.0255733 7.24112 0.092032 6.4958 0.215482C5.75153 0.34162 5.03057 0.579426 4.35731 0.920857C3.68487 1.26518 3.07045 1.71258 2.53633 2.24685C1.9994 2.77961 1.55183 3.39541 1.21083 4.07058C0.868888 4.74439 0.631783 5.46645 0.507706 6.21181C0.38245 6.95623 0.315048 7.70923 0.306106 8.46406C0.295666 8.80899 0.294564 9.15506 0.289062 9.50003V35.5036C0.294564 35.8529 0.295666 36.1913 0.306106 36.5407C0.315051 37.2955 0.382453 38.0485 0.507706 38.7928C0.63144 39.5386 0.868559 40.2611 1.21083 40.9352C1.55168 41.6082 1.99931 42.2215 2.53633 42.7513C3.06843 43.2879 3.68325 43.7356 4.35731 44.0773C5.03056 44.4196 5.75144 44.6589 6.4958 44.787C7.24125 44.9094 7.99481 44.9759 8.75019 44.9859C9.09791 44.9935 9.43959 44.9979 9.78401 44.9979C10.1954 45.0001 10.6031 45.0001 11.0156 45.0001H124.191C124.595 45.0001 125.006 45.0001 125.41 44.9979C125.753 44.9979 126.105 44.9935 126.447 44.9859C127.201 44.9764 127.953 44.9099 128.697 44.787C129.444 44.658 130.168 44.4188 130.844 44.0773C131.517 43.7354 132.132 43.2877 132.663 42.7513C133.199 42.2194 133.648 41.6065 133.993 40.9352C134.332 40.2606 134.567 39.5382 134.689 38.7928C134.815 38.0484 134.884 37.2956 134.898 36.5407C134.902 36.1913 134.902 35.8529 134.902 35.5036C134.911 35.0949 134.911 34.6884 134.911 34.273V10.7283C134.911 10.3163 134.911 9.90761 134.902 9.50003C134.902 9.15506 134.902 8.80899 134.898 8.46402C134.884 7.70912 134.815 6.95629 134.689 6.21177C134.567 5.46684 134.332 4.74484 133.993 4.07053C133.298 2.71724 132.197 1.61567 130.844 0.920756C130.168 0.580159 129.444 0.342417 128.697 0.215381C127.954 0.0913869 127.201 0.024905 126.447 0.0165262C126.105 0.0110362 125.753 0.00444375 125.41 0.00225C125.006 0 124.595 0 124.191 0V0.00014625Z" fill="white"/>
<path d="M28.4088 22.3758C28.4214 21.3993 28.6807 20.4419 29.1627 19.5926C29.6448 18.7434 30.3338 18.0298 31.1657 17.5184C30.6372 16.7636 29.94 16.1425 29.1295 15.7043C28.319 15.2661 27.4174 15.0229 26.4965 14.9941C24.532 14.7879 22.6275 16.1697 21.6264 16.1697C20.6059 16.1697 19.0646 15.0146 17.4048 15.0487C16.3313 15.0834 15.285 15.3956 14.3679 15.9549C13.4509 16.5142 12.6944 17.3014 12.172 18.24C9.90954 22.1573 11.5972 27.9143 13.7645 31.0808C14.8489 32.6313 16.1162 34.3632 17.7744 34.3018C19.3971 34.2345 20.0032 33.2671 21.9619 33.2671C23.9024 33.2671 24.471 34.3018 26.1629 34.2628C27.9042 34.2345 29.0012 32.7054 30.0476 31.1402C30.8267 30.0354 31.4262 28.8144 31.8239 27.5223C30.8123 27.0945 29.9491 26.3783 29.3417 25.4631C28.7344 24.5479 28.4099 23.4742 28.4088 22.3758Z" fill="#282739"/>
<path d="M25.2121 12.9118C26.1615 11.772 26.6293 10.3071 26.516 8.82812C25.0656 8.98047 23.7257 9.67369 22.7635 10.7697C22.2931 11.3051 21.9327 11.928 21.7032 12.6027C21.4736 13.2775 21.3792 13.9909 21.4255 14.7021C22.151 14.7096 22.8687 14.5523 23.5246 14.2422C24.1805 13.9321 24.7575 13.4772 25.2121 12.9118Z" fill="#282739"/>
<path d="M47.8789 30.5326H42.5538L41.275 34.3086H39.0195L44.0634 20.3384H46.4067L51.4506 34.3086H49.1566L47.8789 30.5326ZM43.1054 28.7902H47.3263L45.2455 22.662H45.1873L43.1054 28.7902Z" fill="#282739"/>
<path d="M62.3444 29.2164C62.3444 32.3815 60.6503 34.4151 58.0938 34.4151C57.4462 34.449 56.8021 34.2998 56.2353 33.9846C55.6686 33.6695 55.202 33.2011 54.8891 32.6331H54.8407V37.678H52.75V24.1231H54.7737V25.8172H54.8121C55.1395 25.2519 55.6139 24.786 56.185 24.4689C56.7561 24.1518 57.4024 23.9955 58.0553 24.0165C60.6404 24.0165 62.3444 26.06 62.3444 29.2164ZM60.1955 29.2164C60.1955 27.1542 59.1298 25.7985 57.5038 25.7985C55.9064 25.7985 54.8319 27.1828 54.8319 29.2164C54.8319 31.2686 55.9064 32.643 57.5038 32.643C59.1298 32.643 60.1954 31.2972 60.1954 29.2164H60.1955Z" fill="#282739"/>
<path d="M73.5559 29.2164C73.5559 32.3815 71.8612 34.4151 69.3047 34.4151C68.6571 34.449 68.013 34.2998 67.4463 33.9846C66.8795 33.6695 66.4129 33.2011 66.1 32.6331H66.0516V37.678H63.9609V24.1231H65.9846V25.8172H66.0231C66.3504 25.2519 66.8248 24.786 67.3959 24.4689C67.967 24.1518 68.6134 23.9955 69.2662 24.0165C71.8513 24.0165 73.5559 26.06 73.5559 29.2164ZM71.4064 29.2164C71.4064 27.1542 70.3407 25.7985 68.7147 25.7985C67.1173 25.7985 66.0429 27.1828 66.0429 29.2164C66.0429 31.2686 67.1173 32.643 68.7147 32.643C70.3407 32.643 71.4064 31.2972 71.4064 29.2164Z" fill="#282739"/>
<path d="M80.9644 30.4162C81.1193 31.8016 82.4652 32.7112 84.3043 32.7112C86.0665 32.7112 87.3343 31.8015 87.3343 30.5524C87.3343 29.468 86.5696 28.8188 84.7591 28.3738L82.9485 27.9376C80.3832 27.318 79.1923 26.1183 79.1923 24.1715C79.1923 21.7611 81.2929 20.1055 84.2746 20.1055C87.2277 20.1055 89.2514 21.7611 89.3195 24.1715H87.209C87.0827 22.7773 85.9302 21.9358 84.246 21.9358C82.5618 21.9358 81.4093 22.7872 81.4093 24.0265C81.4093 25.0142 82.1454 25.5953 83.9461 26.0402L85.4853 26.4182C88.3516 27.096 89.5414 28.2474 89.5414 30.2909C89.5414 32.9045 87.4606 34.5415 84.1493 34.5415C81.0511 34.5415 78.9594 32.943 78.8242 30.4161L80.9644 30.4162Z" fill="#282739"/>
<path d="M94.0542 21.7129V24.1233H95.9911V25.7789H94.0542V31.394C94.0542 32.2664 94.442 32.6729 95.2935 32.6729C95.5234 32.6688 95.753 32.6527 95.9812 32.6245V34.2702C95.5984 34.3418 95.2093 34.3742 94.8199 34.3669C92.7578 34.3669 91.9536 33.5924 91.9536 31.617V25.7789H90.4727V24.1233H91.9536V21.7129H94.0542Z" fill="#282739"/>
<path d="M97.1094 29.2165C97.1094 26.0118 98.9968 23.998 101.94 23.998C104.893 23.998 106.772 26.0118 106.772 29.2165C106.772 32.4301 104.903 34.4351 101.94 34.4351C98.9781 34.4351 97.1094 32.43 97.1094 29.2165ZM104.642 29.2165C104.642 27.0182 103.634 25.7207 101.94 25.7207C100.246 25.7207 99.2385 27.0281 99.2385 29.2165C99.2385 31.4237 100.246 32.7113 101.94 32.7113C103.634 32.7113 104.642 31.4237 104.642 29.2165H104.642Z" fill="#282739"/>
<path d="M108.496 24.123H110.49V25.8566H110.539C110.673 25.3152 110.991 24.8367 111.437 24.5016C111.883 24.1664 112.431 23.9951 112.988 24.0164C113.229 24.0156 113.47 24.0417 113.705 24.0944V26.05C113.401 25.957 113.083 25.9144 112.765 25.9237C112.462 25.9113 112.159 25.9649 111.878 26.0806C111.597 26.1964 111.344 26.3716 111.137 26.5942C110.93 26.8168 110.774 27.0816 110.679 27.3704C110.584 27.6591 110.552 27.965 110.587 28.267V34.3084H108.496L108.496 24.123Z" fill="#282739"/>
<path d="M123.344 31.3171C123.063 33.1661 121.262 34.4351 118.958 34.4351C115.995 34.4351 114.156 32.4498 114.156 29.2649C114.156 26.0701 116.005 23.998 118.87 23.998C121.688 23.998 123.461 25.9338 123.461 29.0221V29.7384H116.267V29.8647C116.234 30.2396 116.28 30.6172 116.404 30.9725C116.528 31.3279 116.726 31.6527 116.986 31.9256C117.245 32.1985 117.559 32.4131 117.907 32.5552C118.256 32.6973 118.631 32.7636 119.007 32.7498C119.501 32.796 119.997 32.6816 120.42 32.4235C120.844 32.1654 121.173 31.7773 121.359 31.3171L123.344 31.3171ZM116.277 28.2772H121.369C121.388 27.9402 121.336 27.6029 121.219 27.2865C121.101 26.9702 120.919 26.6816 120.684 26.4388C120.45 26.1961 120.168 26.0045 119.855 25.876C119.543 25.7475 119.208 25.6849 118.87 25.6921C118.53 25.6901 118.193 25.7555 117.877 25.8846C117.562 26.0137 117.276 26.2039 117.035 26.4442C116.794 26.6846 116.603 26.9703 116.472 27.2849C116.342 27.5995 116.276 27.9368 116.277 28.2772V28.2772Z" fill="#282739"/>
<path d="M41.618 12.6601H42.5156C42.6701 12.6793 42.827 12.6663 42.9762 12.622C43.1255 12.5776 43.2639 12.5028 43.3828 12.4022C43.5017 12.3017 43.5985 12.1776 43.6671 12.0378C43.7357 11.898 43.7745 11.7456 43.7812 11.59C43.7812 10.9709 43.3154 10.571 42.5255 10.571C42.3672 10.5489 42.2061 10.5587 42.0516 10.5999C41.8972 10.6411 41.7526 10.7128 41.6263 10.8108C41.5 10.9088 41.3947 11.0311 41.3165 11.1705C41.2382 11.3099 41.1887 11.4636 41.1709 11.6224H40.1854C40.2024 11.3341 40.2785 11.0523 40.4091 10.7947C40.5396 10.537 40.7218 10.309 40.9443 10.1249C41.1669 9.9407 41.4249 9.80431 41.7024 9.72419C41.9799 9.64407 42.2709 9.62193 42.5573 9.65915C43.879 9.65915 44.8096 10.3991 44.8096 11.4642C44.8127 11.821 44.6933 12.1681 44.4714 12.4475C44.2494 12.727 43.9384 12.9218 43.5901 12.9995V13.0786C44.003 13.097 44.3918 13.278 44.6716 13.5822C44.9514 13.8863 45.0993 14.2889 45.0831 14.7019C45.0526 14.9988 44.9631 15.2865 44.8199 15.5484C44.6766 15.8102 44.4826 16.0408 44.2491 16.2267C44.0156 16.4126 43.7473 16.55 43.46 16.6308C43.1728 16.7117 42.8722 16.7343 42.5761 16.6975C42.2793 16.738 41.9774 16.7183 41.6884 16.6396C41.3993 16.5609 41.1291 16.4248 40.8939 16.2394C40.6586 16.0541 40.463 15.8232 40.3188 15.5607C40.1747 15.2981 40.0848 15.0092 40.0547 14.7112H41.0555C41.116 15.3534 41.7059 15.7676 42.5761 15.7676C43.4462 15.7676 44.0142 15.3023 44.0142 14.6464C44.0142 13.9812 43.4791 13.5714 42.5442 13.5714H41.618V12.6601Z" fill="#282739"/>
<path d="M46.2188 15.102C46.2188 14.1902 46.8988 13.6645 48.1029 13.5898L49.4751 13.5107V13.0734C49.4751 12.5384 49.1224 12.2363 48.438 12.2363C47.8799 12.2363 47.4943 12.4412 47.3822 12.7993H46.4143C46.5165 11.9292 47.3361 11.3711 48.4852 11.3711C49.7553 11.3711 50.4716 12.0033 50.4716 13.0734V16.5347H49.5081V15.8228H49.429C49.2684 16.0781 49.043 16.2863 48.7756 16.426C48.5083 16.5658 48.2087 16.6321 47.9074 16.6181C47.6947 16.6402 47.4798 16.6176 47.2764 16.5515C47.073 16.4855 46.8858 16.3776 46.7267 16.2347C46.5676 16.0919 46.4402 15.9173 46.3527 15.7222C46.2652 15.5271 46.2196 15.3159 46.2188 15.102ZM49.4751 14.6692V14.2457L48.238 14.3248C47.5404 14.3714 47.2239 14.6088 47.2239 15.0553C47.2239 15.5113 47.6195 15.7766 48.1633 15.7766C48.3227 15.7927 48.4837 15.7766 48.6367 15.7293C48.7897 15.682 48.9316 15.6043 49.054 15.501C49.1764 15.3977 49.2767 15.2708 49.3491 15.1279C49.4214 14.985 49.4643 14.829 49.4751 14.6692Z" fill="#282739"/>
<path d="M53.1248 12.3103V16.5345H52.125V11.4688H55.4605V12.3102L53.1248 12.3103Z" fill="#282739"/>
<path d="M61.5198 14.0005C61.5198 15.61 60.7057 16.6191 59.4269 16.6191C59.113 16.6405 58.7995 16.5718 58.5233 16.4211C58.2471 16.2703 58.0197 16.0438 57.8679 15.7682H57.7888V18.2198H56.7891V11.4698H57.7515V12.307H57.8262C57.9807 12.0217 58.211 11.7847 58.4918 11.6222C58.7725 11.4596 59.0927 11.3778 59.417 11.3858C60.7057 11.3858 61.5198 12.3904 61.5198 14.0005ZM60.4915 14.0005C60.4915 12.9304 59.985 12.2839 59.138 12.2839C58.2965 12.2839 57.7702 12.9442 57.7702 14.0049C57.7702 15.0607 58.2964 15.7215 59.1336 15.7215C59.985 15.7215 60.4915 15.075 60.4915 14.0005Z" fill="#282739"/>
<path d="M62.8523 18.3489V17.4882C62.9605 17.5019 63.0695 17.5081 63.1786 17.5068C63.3916 17.5226 63.6029 17.4592 63.772 17.3287C63.9411 17.1982 64.0561 17.0099 64.0948 16.7999L64.1696 16.5532L62.3359 11.4688H63.4247L64.6947 15.4925H64.7738L66.0395 11.4688H67.0997L65.2111 16.7438C64.7783 17.9765 64.2993 18.372 63.2665 18.372C63.183 18.372 62.9457 18.3627 62.8523 18.3489Z" fill="#282739"/>
<path d="M67.8789 15.0971H68.8743C68.972 15.5437 69.3907 15.7766 69.9762 15.7766C70.642 15.7766 71.0507 15.4833 71.0507 15.0273C71.0507 14.539 70.6837 14.3061 69.9762 14.3061H69.2181V13.5294H69.963C70.5673 13.5294 70.8749 13.297 70.8749 12.8735C70.8749 12.5016 70.5772 12.2176 69.963 12.2176C69.4038 12.2176 68.9951 12.4549 68.9303 12.8548H67.9668C68.0388 12.3953 68.2883 11.9824 68.6616 11.705C69.0349 11.4275 69.5022 11.3076 69.963 11.3711C71.1671 11.3711 71.856 11.9155 71.856 12.7713C71.8616 13.0097 71.7852 13.2427 71.6396 13.4315C71.4941 13.6202 71.2881 13.7533 71.0562 13.8084V13.8875C71.3323 13.9232 71.5857 14.0589 71.7684 14.269C71.9511 14.4791 72.0503 14.749 72.0471 15.0274C72.0471 15.9904 71.2275 16.6275 69.9762 16.6275C68.8699 16.6275 67.9712 16.1205 67.8789 15.0971Z" fill="#282739"/>
<path d="M73.4883 16.5345V11.4688H74.4792V14.9531H74.5583L76.8929 11.4688H77.8839V16.5346H76.8929V13.0316H76.8182L74.4792 16.5346L73.4883 16.5345Z" fill="#282739"/>
<path d="M83.3398 12.3112H81.7445V16.5355H80.7437V12.3112H79.1484V11.4697H83.3398V12.3112Z" fill="#282739"/>
<path d="M88.7258 15.167C88.5896 15.6299 88.2951 16.0303 87.8936 16.2982C87.4922 16.5661 87.0095 16.6844 86.5297 16.6325C86.1959 16.6413 85.8642 16.5774 85.5577 16.4452C85.2511 16.313 84.977 16.1156 84.7543 15.8669C84.5317 15.6181 84.3659 15.3238 84.2683 15.0045C84.1708 14.6852 84.1439 14.3485 84.1896 14.0178C84.1451 13.686 84.1725 13.3486 84.2698 13.0284C84.3671 12.7081 84.532 12.4125 84.7535 12.1615C84.975 11.9106 85.2478 11.7101 85.5535 11.5738C85.8592 11.4374 86.1906 11.3683 86.5253 11.3712C87.9348 11.3712 88.7863 12.3342 88.7863 13.9249V14.2738H85.2091V14.3298C85.1933 14.5158 85.2165 14.703 85.2773 14.8794C85.3382 15.0558 85.4352 15.2176 85.5623 15.3542C85.6893 15.4909 85.8436 15.5995 86.0151 15.673C86.1866 15.7465 86.3716 15.7833 86.5582 15.7811C86.7972 15.8096 87.0393 15.7665 87.2537 15.6572C87.4681 15.5478 87.6452 15.3772 87.7623 15.1669L88.7258 15.167ZM85.2091 13.5344H87.7667C87.7793 13.3645 87.7563 13.1938 87.699 13.0333C87.6418 12.8728 87.5516 12.726 87.4343 12.6024C87.317 12.4789 87.1751 12.3812 87.0178 12.3157C86.8605 12.2502 86.6912 12.2183 86.5209 12.2221C86.3479 12.2197 86.1762 12.2521 86.016 12.3172C85.8557 12.3823 85.7102 12.4789 85.5879 12.6012C85.4656 12.7236 85.3691 12.8692 85.304 13.0295C85.239 13.1897 85.2067 13.3614 85.2091 13.5344H85.2091Z" fill="#282739"/>
<path d="M92.9648 11.4688H95.2489C96.2399 11.4688 96.821 11.9708 96.821 12.7569C96.8226 13.0063 96.7384 13.2487 96.5826 13.4435C96.4268 13.6383 96.2089 13.7736 95.9652 13.8269V13.906C96.2611 13.9247 96.5384 14.0563 96.74 14.2737C96.9416 14.491 97.052 14.7775 97.0485 15.0739C97.0485 15.9577 96.3838 16.5345 95.272 16.5345H92.9648V11.4688ZM93.9558 12.2361V13.5479H94.9468C95.551 13.5479 95.84 13.3155 95.84 12.8871C95.84 12.4921 95.5884 12.2361 95.0578 12.2361L93.9558 12.2361ZM93.9558 14.2829V15.7672H95.1413C95.7323 15.7672 96.0488 15.5062 96.0488 15.0272C96.0488 14.5202 95.6906 14.2829 95.016 14.2829L93.9558 14.2829Z" fill="#282739"/>
</g>
<defs>
<clipPath id="clip0_334_29179">
<rect width="134.622" height="45" fill="white" transform="translate(0.289062)"/>
</clipPath>
</defs>
</svg>
