<svg width="18" height="18" viewBox="0 0 18 18" fill="none" xmlns="http://www.w3.org/2000/svg">
<g id="eva:eye-fill">
<g id="Group">
<path id="Vector" d="M9 10.125C9.62132 10.125 10.125 9.62132 10.125 9C10.125 8.37868 9.62132 7.875 9 7.875C8.37868 7.875 7.875 8.37868 7.875 9C7.875 9.62132 8.37868 10.125 9 10.125Z" fill="#5D6C7B"/>
<path id="Vector_2" d="M16.4016 8.62503C15.9216 7.79253 13.2816 3.61503 8.79657 3.75003C4.64907 3.85503 2.24907 7.50003 1.59657 8.62503C1.53075 8.73904 1.49609 8.86837 1.49609 9.00003C1.49609 9.13168 1.53075 9.26101 1.59657 9.37503C2.06907 10.1925 4.59658 14.25 9.01408 14.25H9.20158C13.3491 14.145 15.7566 10.5 16.4016 9.37503C16.4674 9.26101 16.5021 9.13168 16.5021 9.00003C16.5021 8.86837 16.4674 8.73904 16.4016 8.62503ZM8.99907 11.625C8.4799 11.625 7.97238 11.4711 7.5407 11.1826C7.10902 10.8942 6.77257 10.4842 6.57389 10.0046C6.37521 9.52491 6.32323 8.99711 6.42451 8.48791C6.5258 7.97871 6.77581 7.51098 7.14292 7.14387C7.51003 6.77676 7.97776 6.52675 8.48696 6.42546C8.99616 6.32418 9.52396 6.37616 10.0036 6.57484C10.4833 6.77352 10.8932 7.10998 11.1817 7.54165C11.4701 7.97333 11.6241 8.48085 11.6241 9.00003C11.6241 9.69622 11.3475 10.3639 10.8552 10.8562C10.3629 11.3485 9.69527 11.625 8.99907 11.625Z" fill="#5D6C7B"/>
</g>
</g>
</svg>
