<svg width="152" height="45" viewBox="0 0 152 45" fill="none" xmlns="http://www.w3.org/2000/svg">
<g clip-path="url(#clip0_1166_20383)">
<path d="M145.69 44.8882H5.76498C2.68663 44.8882 0.167969 42.3695 0.167969 39.2912V5.70908C0.167969 2.63072 2.68663 0.112064 5.76498 0.112064H145.69C148.769 0.112064 151.287 2.63072 151.287 5.70908V39.2912C151.287 42.3695 148.769 44.8882 145.69 44.8882Z" fill="white"/>
<path d="M145.69 0.112064H5.76498C2.68663 0.112064 0.167969 2.63072 0.167969 5.70908V39.2912C0.167969 42.3695 2.68663 44.8882 5.76498 44.8882H145.69C148.769 44.8882 151.287 42.3695 151.287 39.2912V5.70908C151.287 2.63072 148.769 0.112064 145.69 0.112064ZM145.69 1.00759C148.283 1.00759 150.392 3.11699 150.392 5.70908V39.2912C150.392 41.8837 148.283 43.9931 145.69 43.9931H5.76498C3.17289 43.9931 1.06349 41.8837 1.06349 39.2912V5.70908C1.06349 3.11699 3.17289 1.00759 5.76498 1.00759H145.69Z" fill="white"/>
<path d="M119.872 33.6939H121.96V19.7H119.872V33.6939ZM138.685 24.7409L136.291 30.808H136.219L133.734 24.7409H131.484L135.211 33.2208L133.086 37.9376H135.266L141.008 24.7409H138.685ZM126.84 32.1045C126.155 32.1045 125.201 31.7625 125.201 30.916C125.201 29.8359 126.39 29.4218 127.415 29.4218C128.334 29.4218 128.765 29.6199 129.324 29.8902C129.161 31.1862 128.045 32.1045 126.84 32.1045ZM127.092 24.4348C125.579 24.4348 124.013 25.1012 123.365 26.5774L125.219 27.3514C125.615 26.5774 126.353 26.3251 127.128 26.3251C128.208 26.3251 129.306 26.9736 129.324 28.1258V28.2696C128.945 28.0536 128.136 27.7296 127.145 27.7296C125.147 27.7296 123.112 28.8275 123.112 30.8801C123.112 32.7525 124.751 33.9589 126.587 33.9589C127.992 33.9589 128.765 33.3288 129.252 32.5908H129.324V33.6708H131.34V28.3055C131.34 25.8214 129.486 24.4348 127.092 24.4348ZM114.183 26.4444H111.212V21.6477H114.183C115.744 21.6477 116.631 22.9406 116.631 24.046C116.631 25.1305 115.744 26.4444 114.183 26.4444ZM114.129 19.7H109.124V33.6939H111.212V28.3921H114.129C116.444 28.3921 118.72 26.716 118.72 24.046C118.72 21.3761 116.444 19.7 114.129 19.7ZM86.8368 32.1071C85.3938 32.1071 84.1856 30.8989 84.1856 29.2395C84.1856 27.5626 85.3938 26.3361 86.8368 26.3361C88.2615 26.3361 89.3796 27.5626 89.3796 29.2395C89.3796 30.8989 88.2615 32.1071 86.8368 32.1071ZM89.2353 25.5245H89.1631C88.6944 24.9656 87.7923 24.4606 86.6563 24.4606C84.2758 24.4606 82.0938 26.5525 82.0938 29.2395C82.0938 31.9086 84.2758 33.9825 86.6563 33.9825C87.7923 33.9825 88.6944 33.4774 89.1631 32.9007H89.2353V33.5859C89.2353 35.4076 88.2615 36.3814 86.6926 36.3814C85.4122 36.3814 84.6186 35.4614 84.2937 34.6861L82.4725 35.4434C82.9955 36.7058 84.3842 38.2568 86.6926 38.2568C89.1452 38.2568 91.2191 36.8138 91.2191 33.2973V24.7492H89.2353V25.5245ZM92.6617 33.6939H94.7536V19.6996H92.6617V33.6939ZM97.8376 29.0773C97.7834 27.2377 99.2622 26.3002 100.326 26.3002C101.156 26.3002 101.859 26.7147 102.093 27.3103L97.8376 29.0773ZM104.33 27.4904C103.933 26.4261 102.725 24.4606 100.254 24.4606C97.8013 24.4606 95.7636 26.3903 95.7636 29.2216C95.7636 31.8907 97.7834 33.9825 100.488 33.9825C102.671 33.9825 103.933 32.648 104.456 31.8727L102.833 30.7904C102.292 31.5841 101.553 32.1071 100.488 32.1071C99.4244 32.1071 98.6671 31.62 98.18 30.6645L104.546 28.0313L104.33 27.4904ZM53.6116 25.9215V27.9412H58.4446C58.3003 29.0773 57.9216 29.9068 57.3445 30.4839C56.6414 31.1875 55.5412 31.9628 53.6116 31.9628C50.6359 31.9628 48.3097 29.5643 48.3097 26.5887C48.3097 23.6131 50.6359 21.2144 53.6116 21.2144C55.2167 21.2144 56.3886 21.8457 57.2544 22.6573L58.679 21.2327C57.4709 20.0783 55.8656 19.1946 53.6116 19.1946C49.5358 19.1946 46.1094 22.513 46.1094 26.5887C46.1094 30.6645 49.5358 33.9825 53.6116 33.9825C55.8119 33.9825 57.4709 33.2615 58.7692 31.9086C60.1037 30.574 60.5187 28.6986 60.5187 27.1839C60.5187 26.7147 60.4827 26.2822 60.4102 25.9215H53.6116ZM66.0134 32.1071C64.5703 32.1071 63.3259 30.9168 63.3259 29.2216C63.3259 27.5083 64.5703 26.3361 66.0134 26.3361C67.4558 26.3361 68.7003 27.5083 68.7003 29.2216C68.7003 30.9168 67.4558 32.1071 66.0134 32.1071ZM66.0134 24.4606C63.3801 24.4606 61.234 26.4624 61.234 29.2216C61.234 31.9628 63.3801 33.9825 66.0134 33.9825C68.6461 33.9825 70.7922 31.9628 70.7922 29.2216C70.7922 26.4624 68.6461 24.4606 66.0134 24.4606ZM76.4386 32.1071C74.9961 32.1071 73.7516 30.9168 73.7516 29.2216C73.7516 27.5083 74.9961 26.3361 76.4386 26.3361C77.8812 26.3361 79.1256 27.5083 79.1256 29.2216C79.1256 30.9168 77.8812 32.1071 76.4386 32.1071ZM76.4386 24.4606C73.8054 24.4606 71.6598 26.4624 71.6598 29.2216C71.6598 31.9628 73.8054 33.9825 76.4386 33.9825C79.0714 33.9825 81.2176 31.9628 81.2176 29.2216C81.2176 26.4624 79.0714 24.4606 76.4386 24.4606Z" fill="black"/>
<path d="M11.9294 36.3691L11.8462 36.2896C11.5204 35.9449 11.3281 35.4097 11.3281 34.7167V34.8798V10.1231C11.3281 10.1208 11.3281 10.1191 11.3281 10.1174C11.3281 10.1195 11.3281 10.1213 11.3281 10.1235V10.2871C11.3281 9.5366 11.5523 8.97131 11.928 8.63235L25.7972 22.5012L11.9294 36.3691ZM11.3281 10.116C11.3281 10.0543 11.3298 9.99444 11.3329 9.93545C11.3298 9.99399 11.3281 10.0543 11.3281 10.116ZM11.3329 9.93276C11.3329 9.93198 11.3329 9.93108 11.3333 9.93019C11.3329 9.93108 11.3329 9.93198 11.3329 9.93276ZM11.3333 9.92493C11.3333 9.92448 11.3333 9.92403 11.3333 9.92358C11.3333 9.92403 11.3333 9.92448 11.3333 9.92493Z" fill="url(#paint0_linear_1166_20383)"/>
<path d="M30.4231 27.2896L30.5286 27.2297L36.0057 24.1176C36.5279 23.8207 36.8759 23.4609 37.0496 23.08C36.8764 23.4609 36.5282 23.8212 36.0057 24.1181L30.5286 27.2301L30.4231 27.2896ZM30.4245 27.1256L25.8008 22.5011L30.424 17.8774L36.0057 21.0484C36.7145 21.4512 37.1125 21.9703 37.179 22.5006C37.179 22.5011 37.179 22.502 37.179 22.5028C37.1125 23.0319 36.7145 23.5514 36.0057 23.9541L30.4245 27.1256Z" fill="url(#paint1_linear_1166_20383)"/>
<path d="M12.9242 36.897C12.5367 36.897 12.1987 36.771 11.935 36.5332L11.9355 36.5327C12.1991 36.7706 12.5376 36.897 12.925 36.897C12.9586 36.897 12.9928 36.8961 13.0274 36.8944C12.9923 36.8961 12.9577 36.897 12.9242 36.897ZM12.9246 36.733C12.5372 36.7334 12.1991 36.607 11.9355 36.3692V36.3688L25.8033 22.5009L30.427 27.1254L14.1787 36.3574C13.7291 36.6123 13.3032 36.733 12.9246 36.733ZM11.9316 36.5301C11.9071 36.5079 11.883 36.4842 11.8594 36.4597L11.9316 36.5301Z" fill="url(#paint2_linear_1166_20383)"/>
<path d="M25.7989 22.5005L11.9297 8.63165C12.1933 8.39422 12.5309 8.26829 12.9179 8.26829C13.2975 8.26829 13.7238 8.38941 14.1742 8.64474L30.4221 17.8768L25.7989 22.5005ZM30.5267 17.7724L14.1742 8.48131C13.7238 8.22586 13.2975 8.10474 12.9179 8.10474C12.9161 8.10474 12.9149 8.10474 12.9131 8.10474C12.9153 8.10474 12.917 8.10474 12.9197 8.10474C13.2984 8.10474 13.7242 8.22541 14.1742 8.48086L30.5267 17.7724Z" fill="url(#paint3_linear_1166_20383)"/>
<path d="M13.0227 36.8945C13.3746 36.8744 13.7643 36.7533 14.174 36.5211L30.421 27.2895L14.174 36.5211C13.7646 36.7537 13.3746 36.8744 13.0227 36.8945ZM11.9304 36.5333L11.9269 36.5303C11.9281 36.5312 11.9295 36.5324 11.9304 36.5333ZM11.8547 36.4599L11.8477 36.4529V36.4525C11.8503 36.4551 11.8525 36.4576 11.8547 36.4599Z" fill="white"/>
<path d="M30.4258 27.2896L30.5312 27.2297L30.4258 27.2896Z" fill="url(#paint4_linear_1166_20383)"/>
<path d="M12.9243 36.897C12.5369 36.897 12.1984 36.7706 11.9347 36.5327L11.9343 36.5332C11.9334 36.5323 11.932 36.531 11.9308 36.5301L11.8586 36.4597C11.8564 36.4575 11.8542 36.4549 11.8516 36.4523L11.9347 36.3692C12.1984 36.607 12.5364 36.7334 12.9238 36.733C13.3024 36.733 13.7284 36.6123 14.1779 36.3574L30.4263 27.1254L30.5304 27.2295L30.4249 27.2894L14.1779 36.521C13.7682 36.7531 13.3785 36.8742 13.0266 36.8944C12.992 36.8961 12.9579 36.897 12.9243 36.897Z" fill="url(#paint5_linear_1166_20383)"/>
<path d="M11.8501 36.4526C11.5243 36.108 11.332 35.5728 11.332 34.8798V34.8793C11.332 35.5728 11.5243 36.1075 11.8501 36.4522V36.4526Z" fill="white"/>
<path d="M11.8462 36.4521C11.5204 36.1075 11.3281 35.5727 11.3281 34.8793V34.7162C11.3281 35.4092 11.5204 35.9444 11.8462 36.2891L11.9294 36.3686L11.8462 36.4521Z" fill="url(#paint6_linear_1166_20383)"/>
<path d="M11.8516 36.4521L11.9347 36.3686V36.369L11.8516 36.4521Z" fill="url(#paint7_linear_1166_20383)"/>
<path d="M37.0508 23.0801C37.1369 22.8911 37.1802 22.697 37.1802 22.5028C37.1802 22.5025 37.1802 22.502 37.1802 22.502C37.1802 22.6966 37.1369 22.8907 37.0508 23.0801Z" fill="white"/>
<path d="M30.526 27.2295L30.4219 27.1254L36.0031 23.9539C36.7119 23.5512 37.1099 23.0317 37.1764 22.5026C37.1764 22.6968 37.133 22.8909 37.0469 23.0799C36.8733 23.4607 36.5253 23.8206 36.0031 24.1174L30.526 27.2295Z" fill="url(#paint8_linear_1166_20383)"/>
<path d="M37.1782 22.501V22.5005C37.1777 21.915 36.7864 21.3295 36.0049 20.8852L30.5278 17.7732H30.5273L30.5278 17.7728L36.0049 20.8848C36.7873 21.3291 37.1791 21.9154 37.1782 22.501Z" fill="#404040"/>
<path d="M37.1768 22.5C37.1103 21.9696 36.7124 21.4506 36.0036 21.0478L30.4219 17.8768L30.526 17.7727H30.5264L36.0036 20.8847C36.785 21.329 37.1763 21.9144 37.1768 22.5Z" fill="url(#paint9_linear_1166_20383)"/>
<path d="M11.332 10.1172C11.332 10.1167 11.332 10.1163 11.332 10.1158C11.332 10.1163 11.332 10.1167 11.332 10.1172ZM11.3368 9.93528C11.3368 9.93439 11.3368 9.93349 11.3368 9.9326C11.3368 9.93349 11.3368 9.93439 11.3368 9.93528ZM11.3372 9.93002C11.3372 9.92823 11.3372 9.92655 11.3372 9.92476C11.3372 9.92655 11.3372 9.92823 11.3372 9.93002ZM11.3372 9.92342C11.402 8.77346 12.0273 8.1092 12.9118 8.10529C12.5283 8.10752 12.1943 8.23346 11.9328 8.46909V8.46864L11.9297 8.47178C11.9021 8.49663 11.8759 8.52293 11.8501 8.55002C11.5562 8.86088 11.3709 9.32655 11.3372 9.92342Z" fill="#404040"/>
<path d="M11.3281 10.2871V10.1236C11.3281 10.1213 11.3281 10.1195 11.3281 10.1174C11.3281 10.117 11.3281 10.1165 11.3281 10.1161C11.3281 10.0544 11.3298 9.99405 11.3329 9.93551C11.3329 9.93461 11.3329 9.93372 11.3329 9.93282C11.3329 9.93204 11.3329 9.93114 11.3333 9.93024C11.3333 9.92845 11.3333 9.92677 11.3333 9.92498C11.3333 9.92454 11.3333 9.92409 11.3333 9.92364C11.367 9.32677 11.5523 8.8611 11.8462 8.55024L11.928 8.63241C11.5523 8.97136 11.3281 9.53666 11.3281 10.2871ZM11.9258 8.472L11.9289 8.46886C11.928 8.47021 11.9267 8.4711 11.9258 8.472Z" fill="url(#paint10_linear_1166_20383)"/>
<path d="M30.4258 17.8774L14.1779 8.64539C13.7275 8.39005 13.3012 8.26893 12.9216 8.26893C12.5346 8.26893 12.197 8.39487 11.9334 8.63229L11.8516 8.55013C11.8774 8.52304 11.9036 8.49673 11.9312 8.47188C11.932 8.47099 11.9334 8.47009 11.9343 8.4692C12.1958 8.23356 12.5298 8.10763 12.9133 8.10539C12.9142 8.10539 12.9154 8.10539 12.9168 8.10539C12.9186 8.10539 12.9198 8.10539 12.9216 8.10539C13.3012 8.10539 13.7275 8.22651 14.1779 8.48196L30.5304 17.773L30.5299 17.7733L30.4258 17.8774Z" fill="url(#paint11_linear_1166_20383)"/>
<path d="M48.8574 11.2685C48.8705 12.3311 48.6576 13.1881 48.2202 13.8388H51.6156V8.7726H48.8574V11.2685ZM47.3095 16.0894H46.4844V13.8388H47.1411C47.7227 13.3376 48.0069 12.4815 47.9951 11.2685V7.94749H52.4792V13.8388H53.2292V16.0894H52.4037V14.6639H47.3095V16.0894Z" fill="black"/>
<path d="M48.8561 11.2689L48.7441 11.2702L48.745 11.3607C48.7446 12.366 48.5347 13.1689 48.1258 13.7766L48.0087 13.9511H51.7262V8.66102H48.7441V11.2698V11.2702L48.8561 11.2689H48.968V8.8849H51.5023V13.7272H48.2189V13.8392L48.3117 13.9013C48.752 13.2462 48.9689 12.3961 48.9689 11.3607L48.968 11.2676L48.8561 11.2689H48.968H48.8561ZM47.3081 16.0897V15.9778H46.595V13.9511H47.1398H47.1813L47.2128 13.924C47.8179 13.4019 48.1062 12.5321 48.1062 11.3423L48.1057 11.268V11.2689V8.05979H52.3659V13.9511H53.116V15.9778H52.5143V14.6643V14.5523H47.1962V16.0897H47.3081V15.9778V16.0897H47.4201V14.7762H52.2904V16.0897V16.2017H53.2279H53.3398V13.7272H52.5898V7.83591H47.8818V11.2693V11.2698L47.8823 11.3423C47.8818 12.5007 47.6011 13.2952 47.0667 13.7539L47.1398 13.8392V13.7272H46.483H46.3711V16.2017H47.3081H47.4201V16.0897H47.3081Z" fill="black"/>
<path d="M55.6735 13.2337C56.1711 13.737 56.7789 13.9884 57.4982 13.9884C58.2174 13.9884 58.8262 13.737 59.3224 13.2337C59.8201 12.7304 60.0693 12.0871 60.0693 11.3058C60.0693 10.5244 59.8201 9.88109 59.3224 9.37781C58.8262 8.87452 58.2174 8.62311 57.4982 8.62311C56.7789 8.62311 56.1711 8.87452 55.6735 9.37781C55.1771 9.88109 54.928 10.5244 54.928 11.3058C54.928 12.0871 55.1771 12.7304 55.6735 13.2337ZM59.9609 13.796C59.3006 14.475 58.4798 14.814 57.4982 14.814C56.5165 14.814 55.6953 14.475 55.0363 13.796C54.3761 13.1177 54.0469 12.2875 54.0469 11.3058C54.0469 10.324 54.3761 9.49367 55.0363 8.81553C55.6953 8.13639 56.5165 7.7971 57.4982 7.7971C58.4741 7.7971 59.2932 8.13818 59.9564 8.8199C60.6189 9.50161 60.9503 10.3302 60.9503 11.3058C60.9503 12.2875 60.6202 13.1177 59.9609 13.796Z" fill="black"/>
<path d="M55.6721 13.2341L55.5926 13.3128C56.108 13.8362 56.7513 14.1021 57.4969 14.1007C58.242 14.1021 58.8865 13.8362 59.4007 13.3128C59.9197 12.7889 60.1808 12.1111 60.1799 11.3061C60.1808 10.5012 59.9197 9.82336 59.4007 9.29948C58.8865 8.77604 58.242 8.51019 57.4969 8.51153C56.7513 8.51019 56.108 8.77604 55.5926 9.29948C55.0748 9.82336 54.8138 10.5012 54.8147 11.3061C54.8138 12.1111 55.0748 12.7889 55.5926 13.3128L55.6721 13.2341L55.7522 13.1554C55.2772 12.6721 55.0398 12.0643 55.0386 11.3061C55.0398 10.5479 55.2772 9.94011 55.7522 9.45687H55.7517C56.2309 8.97373 56.8033 8.73675 57.4969 8.73541C58.1899 8.73675 58.7636 8.97373 59.2415 9.45687L59.2433 9.45866L59.2415 9.45687C59.7177 9.94011 59.9548 10.5479 59.956 11.3061C59.9548 12.0643 59.7177 12.6721 59.2415 13.1554C58.7636 13.6385 58.1899 13.8755 57.4969 13.8768C56.8033 13.8755 56.2309 13.6385 55.7517 13.1554L55.6721 13.2341ZM59.9596 13.7963L59.8795 13.7185C59.238 14.3762 58.4527 14.701 57.4969 14.7024C56.5406 14.701 55.7557 14.3762 55.115 13.7185C54.4748 13.0587 54.1587 12.2629 54.1575 11.3061C54.1587 10.3494 54.4748 9.55358 55.115 8.89369C55.7557 8.23604 56.5406 7.91075 57.4969 7.9094C58.447 7.91075 59.2302 8.23739 59.8752 8.89851C60.5179 9.56142 60.8358 10.356 60.8371 11.3061C60.8358 12.2629 60.5188 13.0587 59.8795 13.7185L59.9596 13.7963L60.0399 13.8741C60.7186 13.1772 61.0618 12.3127 61.061 11.3061C61.0618 10.3053 60.7177 9.44254 60.0356 8.74246C59.3534 8.0397 58.4991 7.68429 57.4969 7.68552C56.4894 7.68429 55.6323 8.03802 54.9546 8.73809V8.73765C54.2746 9.43504 53.9327 10.2996 53.9336 11.3061C53.9327 12.3127 54.2746 13.1772 54.9546 13.8746V13.8741C55.6323 14.5742 56.4894 14.9272 57.4969 14.9263C58.5039 14.9272 59.3609 14.5742 60.0399 13.8741L59.9596 13.7963Z" fill="black"/>
<path d="M65.2941 14.814C64.3059 14.814 63.4773 14.4795 62.8082 13.81C62.1379 13.141 61.8047 12.3062 61.8047 11.3058C61.8047 10.3052 62.1379 9.47049 62.8082 8.80154C63.4773 8.13202 64.3059 7.7971 65.2941 7.7971C66.3064 7.7971 67.1294 8.16314 67.7612 8.89467L67.1599 9.47665C66.7043 8.90732 66.0812 8.62311 65.2941 8.62311C64.5617 8.62311 63.9438 8.87016 63.4409 9.36426C62.9372 9.85837 62.6858 10.5056 62.6858 11.3058C62.6858 12.1059 62.9372 12.7536 63.4409 13.2472C63.9438 13.7414 64.5617 13.9884 65.2941 13.9884C66.1009 13.9884 66.7883 13.6634 67.3579 13.0133L67.9579 13.6132C67.651 13.9822 67.267 14.2747 66.8035 14.4899C66.3413 14.7059 65.8372 14.814 65.2941 14.814Z" fill="black"/>
<path d="M65.2928 14.8143V14.7024C64.3295 14.701 63.5359 14.3797 62.886 13.7312C62.2367 13.0818 61.9162 12.2817 61.9153 11.3061C61.9162 10.3306 62.2367 9.53041 62.886 8.88104C63.5359 8.23213 64.3295 7.91075 65.2928 7.9094C66.2784 7.91119 67.062 8.26011 67.675 8.96802L67.7598 8.89504L67.682 8.81455L67.0808 9.39698L67.1586 9.47702L67.246 9.40705C66.7712 8.81153 66.1061 8.50985 65.2928 8.51153C64.5349 8.51063 63.883 8.7709 63.3613 9.28459C62.8344 9.80019 62.5712 10.4831 62.5725 11.3061C62.5712 12.1291 62.8344 12.8129 63.3613 13.3276C63.883 13.8413 64.5349 14.1016 65.2928 14.1007C66.1301 14.1021 66.8556 13.7583 67.4406 13.0875L67.3566 13.0137L67.2775 13.0928L67.8775 13.6927L67.9566 13.6135L67.8704 13.5423C67.574 13.8982 67.2049 14.1799 66.7549 14.3888C66.3076 14.5978 65.8215 14.7019 65.2928 14.7024V14.8143V14.9263C65.8507 14.9263 66.372 14.8152 66.8494 14.5918C67.3269 14.3705 67.7249 14.0675 68.0427 13.6853L68.1078 13.6071L67.4359 12.9345L67.351 12.8497L67.2723 12.9398C66.7187 13.5699 66.069 13.8755 65.2928 13.8768C64.5853 13.8755 64.0024 13.642 63.5183 13.1676H63.5179C63.0369 12.6953 62.7973 12.0835 62.7964 11.3061C62.7973 10.5287 63.0369 9.91784 63.5179 9.44466H63.5183C64.0024 8.97026 64.5853 8.73675 65.2928 8.73541C66.0532 8.7372 66.6343 9.00396 67.0712 9.54698L67.1481 9.64325L67.8376 8.97552L67.9137 8.90198L67.8447 8.82205C67.1944 8.06645 66.3317 7.68429 65.2928 7.68552C64.2791 7.68463 63.4155 8.03321 62.7278 8.72276C62.0364 9.41097 61.6901 10.2812 61.6914 11.3061C61.6901 12.331 62.0364 13.2013 62.7278 13.8899C63.4155 14.579 64.2791 14.9272 65.2928 14.9263V14.8143Z" fill="black"/>
<path d="M71.4503 14.6641H70.5868V8.77275H68.7109V7.94764H73.3262V8.77275H71.4503V14.6641Z" fill="black"/>
<path d="M71.449 14.6644V14.5525H70.6974V8.66118H68.8215V8.05995H73.213V8.66118H71.3371V14.6644H71.449V14.5525V14.6644H71.5609V8.88506H73.4368V7.94801V7.83607H68.5977V8.77312V8.88506H70.4736V14.7764H71.449H71.5609V14.6644H71.449Z" fill="black"/>
<path d="M79.2484 7.94755L76.707 13.6132C76.3559 14.4139 75.8351 14.814 75.1407 14.814C74.9343 14.814 74.7121 14.7642 74.4739 14.664L74.699 13.8664C74.8433 13.9481 74.9933 13.9884 75.1495 13.9884C75.3497 13.9884 75.5049 13.9494 75.6142 13.8717C75.7236 13.7934 75.825 13.6503 75.9191 13.4444L76.163 12.9092L73.9023 7.94755H74.9155L76.5758 11.8029H76.613L78.2348 7.94755H79.2484Z" fill="black"/>
<path d="M79.2506 7.94789L79.1483 7.902L76.6069 13.5681L76.6064 13.569C76.261 14.3451 75.7892 14.6985 75.1429 14.7024C74.9544 14.7024 74.7471 14.6569 74.5193 14.5611L74.4761 14.6643L74.584 14.6949L74.8088 13.8973L74.7012 13.8667L74.6466 13.9642C74.8058 14.0543 74.9758 14.1011 75.1517 14.1007C75.3655 14.1007 75.5447 14.0601 75.6816 13.9629C75.8163 13.8654 75.9243 13.7067 76.0231 13.4915L76.2671 12.9563L76.2881 12.9095L74.0786 8.05983H74.8443L76.5041 11.9152H76.6152H76.6895L78.3113 8.05983H79.2506V7.94789L79.1483 7.902L79.2506 7.94789V7.83595H78.237H78.1626L76.5115 11.76L76.6152 11.8032V11.6913H76.578V11.8032L76.6808 11.7591L74.9916 7.83595H73.9045H73.7305L76.0419 12.9095L75.8194 13.3984C75.7306 13.5947 75.6353 13.7215 75.5513 13.7805C75.4696 13.8396 75.3379 13.8773 75.1517 13.8768C75.0148 13.8768 74.8858 13.8422 74.7563 13.7692L74.6321 13.6993L74.3685 14.6337L74.3413 14.729L74.4328 14.7675C74.6815 14.872 74.9182 14.9262 75.1429 14.9262C75.8849 14.9297 76.4551 14.4829 76.8115 13.6586L76.8111 13.6594L79.4233 7.83595H79.2506V7.94789Z" fill="black"/>
<path d="M80.2266 14.6641V7.94764H85.0859V14.6641H84.2224V8.77275H81.0888V14.6641H80.2266Z" fill="black"/>
<path d="M80.2291 14.6644H80.3411V8.05995H84.9762V14.5525H84.3369V8.66118H80.9795V14.5525H80.2291V14.6644H80.3411H80.2291V14.7764H81.0914H81.2033V8.88506H84.113V14.7764H85.0884H85.2004V7.83607H80.1172V14.7764H80.2291V14.6644Z" fill="black"/>
<path d="M86.625 14.6641V7.94764H87.4877V10.8271H90.8459V7.94764H91.7095V14.6641H90.8459V11.6338H87.4877V14.6641H86.625Z" fill="black"/>
<path d="M86.6237 14.6644H86.7356V8.05995H87.3744V10.9394H90.9565V8.05995H91.5963V14.5525H90.9565V11.5223H87.3744V14.5525H86.6237V14.6644H86.7356H86.6237V14.7764H87.4864H87.5983V11.7461H90.7326V14.7764H91.7082H91.8201V7.83607H90.8446H90.7326V10.7155H87.5983V7.83607H86.6237H86.5117V14.7764H86.6237V14.6644Z" fill="black"/>
<path d="M94.4508 13.2337C94.9485 13.737 95.5562 13.9884 96.2756 13.9884C96.9949 13.9884 97.6036 13.737 98.0998 13.2337C98.5974 12.7304 98.8467 12.0871 98.8467 11.3058C98.8467 10.5244 98.5974 9.88109 98.0998 9.37781C97.6036 8.87452 96.9949 8.62311 96.2756 8.62311C95.5562 8.62311 94.9485 8.87452 94.4508 9.37781C93.955 9.88109 93.7053 10.5244 93.7053 11.3058C93.7053 12.0871 93.955 12.7304 94.4508 13.2337ZM98.7382 13.796C98.0785 14.475 97.2573 14.814 96.2756 14.814C95.2939 14.814 94.4732 14.475 93.8138 13.796C93.1535 13.1177 92.8242 12.2875 92.8242 11.3058C92.8242 10.324 93.1535 9.49367 93.8138 8.81553C94.4732 8.13639 95.2939 7.7971 96.2756 7.7971C97.252 7.7971 98.0705 8.13818 98.7339 8.8199C99.3963 9.50161 99.7278 10.3302 99.7278 11.3058C99.7278 12.2875 99.3977 13.1177 98.7382 13.796Z" fill="black"/>
<path d="M94.4534 13.2341L94.3739 13.3128C94.8898 13.8362 95.5326 14.1021 96.2781 14.1007C97.0237 14.1021 97.6678 13.8362 98.1825 13.3128C98.7011 12.7889 98.9621 12.1111 98.9612 11.3061C98.9621 10.5012 98.7011 9.82336 98.1825 9.29948C97.6678 8.77604 97.0237 8.51019 96.2781 8.51153C95.5326 8.51019 94.8898 8.77604 94.3739 9.29948C93.8562 9.82336 93.595 10.5012 93.5959 11.3061C93.595 12.1111 93.8562 12.7889 94.3739 13.3128L94.4534 13.2341L94.5334 13.1554C94.0586 12.6721 93.8212 12.0643 93.8198 11.3061C93.8212 10.5479 94.0586 9.94011 94.5334 9.45687C95.0123 8.97373 95.5851 8.73675 96.2781 8.73541C96.9713 8.73675 97.545 8.97373 98.0228 9.45687L98.0263 9.46045L98.0228 9.45687C98.499 9.94011 98.7365 10.5479 98.7374 11.3061C98.7365 12.0643 98.499 12.6721 98.0228 13.1554C97.545 13.6385 96.9713 13.8755 96.2781 13.8768C95.5851 13.8755 95.0123 13.6385 94.5334 13.1554L94.4534 13.2341ZM98.7408 13.7963L98.6608 13.7185C98.0194 14.3762 97.234 14.701 96.2781 14.7024C95.3223 14.701 94.537 14.3762 93.8968 13.7185L93.8934 13.7151L93.8968 13.7185C93.2562 13.0587 92.9401 12.2629 92.9387 11.3061C92.9401 10.3494 93.2562 9.55358 93.8968 8.89369C94.537 8.23604 95.3223 7.91075 96.2781 7.9094C97.2284 7.91075 98.0115 8.23739 98.6564 8.89851C99.2993 9.56142 99.6175 10.356 99.6184 11.3061C99.6175 12.2629 99.3001 13.0587 98.6608 13.7185L98.7408 13.7963L98.8213 13.8741C99.5004 13.1772 99.8432 12.3127 99.8423 11.3061C99.8432 10.3053 99.4991 9.44254 98.817 8.74246C98.1348 8.0397 97.2803 7.68429 96.2781 7.68552C95.2707 7.68429 94.4141 8.03802 93.7359 8.73809V8.73765C93.0559 9.43504 92.7139 10.2996 92.7148 11.3061C92.7139 12.3127 93.0559 13.1772 93.7359 13.8746V13.8741C94.4141 14.5742 95.2707 14.9272 96.2781 14.9263C97.2856 14.9272 98.1423 14.5742 98.8213 13.8741L98.7408 13.7963Z" fill="black"/>
<path d="M104.12 13.8389H105.856C106.187 13.8389 106.456 13.7231 106.663 13.4909C106.869 13.2604 106.972 13.0068 106.972 12.7313C106.972 12.4563 106.866 12.2048 106.653 11.9766C106.441 11.7484 106.162 11.6338 105.818 11.6338H104.12V13.8389ZM104.12 10.8271H105.687C106.013 10.8271 106.273 10.72 106.471 10.5035C106.668 10.2879 106.766 10.0522 106.766 9.79555C106.766 9.53932 106.671 9.30402 106.479 9.09245C106.289 8.87943 106.037 8.77275 105.725 8.77275H104.12V10.8271ZM103.258 14.6641V7.94764H105.687C106.212 7.94764 106.668 8.12171 107.051 8.46794C107.437 8.81563 107.629 9.25152 107.629 9.77675C107.629 10.0954 107.546 10.3771 107.379 10.6211C107.215 10.865 106.994 11.0496 106.719 11.1747V11.2118C107.049 11.3242 107.322 11.5183 107.535 11.7934C107.747 12.0688 107.854 12.3881 107.854 12.7506C107.854 13.3006 107.653 13.7571 107.248 14.1197C106.845 14.4826 106.369 14.6641 105.818 14.6641H103.258Z" fill="black"/>
<path d="M104.122 13.8393V13.9513H105.859C106.216 13.9526 106.523 13.8214 106.748 13.566C106.97 13.3198 107.088 13.0356 107.086 12.7317C107.088 12.4274 106.966 12.1444 106.737 11.9005C106.506 11.649 106.189 11.5209 105.82 11.5223H104.01V13.9513H104.122V13.8393H104.234V11.7461H105.82C106.141 11.7474 106.381 11.8489 106.574 12.0531C106.771 12.2664 106.861 12.4864 106.863 12.7317C106.861 12.9787 106.773 13.2018 106.582 13.4169C106.395 13.6251 106.164 13.7256 105.859 13.7274H104.122V13.8393H104.234H104.122ZM104.122 10.8274V10.9394H105.689C106.039 10.9406 106.339 10.8199 106.556 10.5791V10.5795C106.767 10.3486 106.881 10.0818 106.881 9.79592C106.881 9.5117 106.772 9.24584 106.565 9.01759V9.01804C106.356 8.78095 106.064 8.65983 105.728 8.66118H104.01V10.9394H104.122V10.8274H104.234V8.88506H105.728C106.015 8.88685 106.228 8.97864 106.398 9.16715L106.399 9.16793L106.398 9.16759C106.574 9.36349 106.656 9.56812 106.657 9.79592C106.656 10.0228 106.572 10.2283 106.39 10.4282V10.4286C106.213 10.6206 105.991 10.7142 105.689 10.7155H104.122V10.8274H104.234H104.122ZM103.26 14.6644H103.372V8.05995H105.689C106.19 8.06084 106.613 8.22259 106.979 8.55147C107.343 8.88114 107.519 9.27953 107.52 9.77711C107.52 10.0767 107.442 10.3333 107.29 10.5585C107.136 10.7859 106.933 10.9555 106.675 11.0732L106.61 11.1029V11.2122V11.2922L106.685 11.318C106.997 11.4248 107.249 11.604 107.449 11.8624L107.45 11.8637L107.449 11.862C107.646 12.1191 107.745 12.4103 107.745 12.7509C107.744 13.2739 107.558 13.6923 107.176 14.037C106.791 14.382 106.347 14.5516 105.82 14.5525H103.26V14.6644H103.372H103.26V14.7764H105.82C106.396 14.7773 106.904 14.5839 107.326 14.2031C107.751 13.8231 107.97 13.3285 107.969 12.7509C107.97 12.3666 107.853 12.0194 107.626 11.7255L107.625 11.7242L107.626 11.7251C107.401 11.4339 107.108 11.2248 106.757 11.1064L106.722 11.2122H106.834V11.175H106.722L106.767 11.2769C107.06 11.1445 107.299 10.9454 107.475 10.6839V10.6844C107.654 10.4217 107.744 10.1151 107.744 9.77711C107.745 9.2248 107.536 8.75084 107.129 8.38524L107.127 8.38312L107.129 8.38524C106.726 8.02099 106.239 7.83517 105.689 7.83606H103.148V14.7764H103.26V14.6644Z" fill="black"/>
</g>
<defs>
<linearGradient id="paint0_linear_1166_20383" x1="24.5674" y1="9.8619" x2="5.78104" y2="28.6483" gradientUnits="userSpaceOnUse">
<stop stop-color="#00A0FF"/>
<stop offset="0.00657445" stop-color="#00A1FF"/>
<stop offset="0.2601" stop-color="#00BEFF"/>
<stop offset="0.5122" stop-color="#00D2FF"/>
<stop offset="0.7604" stop-color="#00DFFF"/>
<stop offset="1" stop-color="#00E3FF"/>
</linearGradient>
<linearGradient id="paint1_linear_1166_20383" x1="38.0426" y1="22.5018" x2="10.9564" y2="22.5018" gradientUnits="userSpaceOnUse">
<stop stop-color="#FFE000"/>
<stop offset="0.4087" stop-color="#FFBD00"/>
<stop offset="0.7754" stop-color="#FFA500"/>
<stop offset="1" stop-color="#FF9C00"/>
</linearGradient>
<linearGradient id="paint2_linear_1166_20383" x1="27.9622" y1="25.0703" x2="2.4865" y2="50.546" gradientUnits="userSpaceOnUse">
<stop stop-color="#FF3A44"/>
<stop offset="1" stop-color="#C31162"/>
</linearGradient>
<linearGradient id="paint3_linear_1166_20383" x1="8.33495" y1="0.308772" x2="19.7109" y2="11.6847" gradientUnits="userSpaceOnUse">
<stop stop-color="#32A071"/>
<stop offset="0.0685" stop-color="#2DA771"/>
<stop offset="0.4762" stop-color="#15CF74"/>
<stop offset="0.8009" stop-color="#06E775"/>
<stop offset="1" stop-color="#00F076"/>
</linearGradient>
<linearGradient id="paint4_linear_1166_20383" x1="38.0448" y1="22.502" x2="10.96" y2="22.502" gradientUnits="userSpaceOnUse">
<stop stop-color="#CCB300"/>
<stop offset="0.4087" stop-color="#CC9700"/>
<stop offset="0.7754" stop-color="#CC8400"/>
<stop offset="1" stop-color="#CC7D00"/>
</linearGradient>
<linearGradient id="paint5_linear_1166_20383" x1="27.9614" y1="25.0703" x2="2.48573" y2="50.546" gradientUnits="userSpaceOnUse">
<stop stop-color="#CC2E36"/>
<stop offset="1" stop-color="#9C0E4E"/>
</linearGradient>
<linearGradient id="paint6_linear_1166_20383" x1="24.5675" y1="9.86142" x2="5.78108" y2="28.6479" gradientUnits="userSpaceOnUse">
<stop stop-color="#008DE0"/>
<stop offset="0.00657445" stop-color="#008DE0"/>
<stop offset="0.2601" stop-color="#00A7E0"/>
<stop offset="0.5122" stop-color="#00B8E0"/>
<stop offset="0.7604" stop-color="#00C4E0"/>
<stop offset="1" stop-color="#00C7E0"/>
</linearGradient>
<linearGradient id="paint7_linear_1166_20383" x1="27.962" y1="25.0703" x2="2.48671" y2="50.5468" gradientUnits="userSpaceOnUse">
<stop stop-color="#E0333C"/>
<stop offset="1" stop-color="#AB0F56"/>
</linearGradient>
<linearGradient id="paint8_linear_1166_20383" x1="38.04" y1="22.5016" x2="10.9538" y2="22.5016" gradientUnits="userSpaceOnUse">
<stop stop-color="#E0C500"/>
<stop offset="0.4087" stop-color="#E0A600"/>
<stop offset="0.7754" stop-color="#E09100"/>
<stop offset="1" stop-color="#E08900"/>
</linearGradient>
<linearGradient id="paint9_linear_1166_20383" x1="38.0404" y1="22.5011" x2="10.9542" y2="22.5011" gradientUnits="userSpaceOnUse">
<stop stop-color="#FFE840"/>
<stop offset="0.4087" stop-color="#FFCE40"/>
<stop offset="0.7754" stop-color="#FFBC40"/>
<stop offset="1" stop-color="#FFB540"/>
</linearGradient>
<linearGradient id="paint10_linear_1166_20383" x1="24.5674" y1="9.86196" x2="5.78106" y2="28.6484" gradientUnits="userSpaceOnUse">
<stop stop-color="#40B8FF"/>
<stop offset="0.00657445" stop-color="#40B9FF"/>
<stop offset="0.2601" stop-color="#40CEFF"/>
<stop offset="0.5122" stop-color="#40DDFF"/>
<stop offset="0.7604" stop-color="#40E7FF"/>
<stop offset="1" stop-color="#40EAFF"/>
</linearGradient>
<linearGradient id="paint11_linear_1166_20383" x1="8.33865" y1="0.309419" x2="19.7146" y2="11.6854" gradientUnits="userSpaceOnUse">
<stop stop-color="#65B895"/>
<stop offset="0.0685" stop-color="#62BD95"/>
<stop offset="0.4762" stop-color="#50DB97"/>
<stop offset="0.8009" stop-color="#44ED98"/>
<stop offset="1" stop-color="#40F498"/>
</linearGradient>
<clipPath id="clip0_1166_20383">
<rect width="151.119" height="45" fill="white" transform="translate(0.167969)"/>
</clipPath>
</defs>
</svg>
