<svg width="100" height="34" viewBox="0 0 70 14" fill="none" xmlns="http://www.w3.org/2000/svg">
<g id="Kugoo">
<path d="M0 0.30067V13.455H3.26742V0.30067H0ZM7.71112 0.30067L2.35254 6.55839L7.86049 13.455H11.688L6.10541 6.46443L11.408 0.30067H7.71112Z" fill="#282739"/>
<path d="M12.9617 0.30067V9.13289C12.9617 9.95973 13.0924 10.6801 13.3538 11.294C13.6277 11.9078 14.0011 12.4152 14.4741 12.8161C14.9595 13.2045 15.5197 13.4989 16.1545 13.6993C16.7893 13.8998 17.4739 14 18.2083 14C18.9427 14 19.6273 13.8998 20.2621 13.6993C20.9094 13.4989 21.4695 13.2045 21.9425 12.8161C22.4279 12.4152 22.8014 11.9078 23.0627 11.294C23.3366 10.6801 23.4735 9.95973 23.4735 9.13289V0.30067H20.3181V8.90738C20.3181 9.57137 20.1439 10.1101 19.7953 10.5235C19.4468 10.9369 18.9178 11.1436 18.2083 11.1436C17.5112 11.1436 16.9885 10.9369 16.6399 10.5235C16.2914 10.1101 16.1171 9.57137 16.1171 8.90738V0.30067H12.9617Z" fill="#282739"/>
<path d="M32.6255 8.70067H36.0983C35.9863 9.03893 35.8307 9.35839 35.6315 9.65906C35.4448 9.94721 35.2083 10.204 34.922 10.4295C34.6482 10.6425 34.3183 10.8116 33.9325 10.9369C33.5591 11.0497 33.1358 11.106 32.6628 11.106C31.8911 11.106 31.2065 10.9369 30.609 10.5987C30.024 10.2479 29.5572 9.75929 29.2087 9.13289C28.8726 8.49396 28.7046 7.74228 28.7046 6.87785C28.7046 6.0009 28.8789 5.26175 29.2274 4.6604C29.5884 4.04653 30.0676 3.57673 30.665 3.25101C31.2625 2.92528 31.9285 2.76242 32.6628 2.76242C33.4221 2.76242 34.0507 2.93781 34.5486 3.28859C35.059 3.62685 35.4635 4.05906 35.7622 4.58523L38.5629 3.11946C38.1521 2.50559 37.6604 1.96689 37.0879 1.50336C36.5277 1.02729 35.8805 0.657718 35.1461 0.39463C34.4117 0.131544 33.5839 0 32.6628 0C31.6297 0 30.6713 0.162863 29.7875 0.48859C28.9038 0.814317 28.132 1.27785 27.4723 1.87919C26.8126 2.48054 26.3023 3.20716 25.9413 4.05906C25.5803 4.89843 25.3998 5.83803 25.3998 6.87785C25.3998 7.91767 25.5741 8.8698 25.9226 9.73423C26.2836 10.5861 26.7815 11.3253 27.4163 11.9517C28.0511 12.5656 28.8042 13.0416 29.6755 13.3799C30.5468 13.7056 31.5052 13.8685 32.5508 13.8685C33.6586 13.8685 34.642 13.6743 35.5008 13.2859C36.3597 12.885 37.0754 12.3338 37.648 11.6322C38.2206 10.9306 38.6438 10.1226 38.9176 9.20805C39.1915 8.29351 39.2973 7.31007 39.235 6.25772H32.6255V8.70067Z" fill="#282739"/>
<path d="M43.9486 6.87785C43.9486 6.10112 44.0979 5.41834 44.3967 4.82953C44.7079 4.22819 45.1373 3.75839 45.685 3.42013C46.2451 3.08188 46.8986 2.91275 47.6454 2.91275C48.4047 2.91275 49.0582 3.08188 49.6059 3.42013C50.1536 3.75839 50.5768 4.22819 50.8755 4.82953C51.1743 5.41834 51.3236 6.10112 51.3236 6.87785C51.3236 7.65459 51.168 8.34363 50.8568 8.94497C50.5581 9.53378 50.1287 9.99732 49.5685 10.3356C49.0209 10.6738 48.3798 10.843 47.6454 10.843C46.8986 10.843 46.2451 10.6738 45.685 10.3356C45.1373 9.99732 44.7079 9.53378 44.3967 8.94497C44.0979 8.34363 43.9486 7.65459 43.9486 6.87785ZM40.6065 6.87785C40.6065 7.89262 40.7745 8.82595 41.1106 9.67785C41.4591 10.5298 41.9446 11.2689 42.5669 11.8953C43.2017 12.5217 43.9486 13.0103 44.8074 13.3611C45.6663 13.6993 46.6123 13.8685 47.6454 13.8685C48.6661 13.8685 49.6059 13.6993 50.4648 13.3611C51.3236 13.0103 52.0642 12.5217 52.6866 11.8953C53.3214 11.2689 53.8069 10.5298 54.1429 9.67785C54.4915 8.82595 54.6657 7.89262 54.6657 6.87785C54.6657 5.86309 54.4915 4.93602 54.1429 4.09664C53.7944 3.25727 53.3027 2.53065 52.6679 1.91678C52.0331 1.30291 51.2863 0.833109 50.4274 0.507383C49.581 0.169128 48.6537 0 47.6454 0C46.6496 0 45.7223 0.169128 44.8635 0.507383C44.0046 0.833109 43.2578 1.30291 42.6229 1.91678C41.9881 2.53065 41.4902 3.25727 41.1293 4.09664C40.7807 4.93602 40.6065 5.86309 40.6065 6.87785Z" fill="#282739"/>
<path d="M59.2829 6.87785C59.2829 6.10112 59.4322 5.41834 59.731 4.82953C60.0421 4.22819 60.4716 3.75839 61.0193 3.42013C61.5794 3.08188 62.2329 2.91275 62.9797 2.91275C63.739 2.91275 64.3925 3.08188 64.9402 3.42013C65.4878 3.75839 65.9111 4.22819 66.2098 4.82953C66.5085 5.41834 66.6579 6.10112 66.6579 6.87785C66.6579 7.65459 66.5023 8.34363 66.1911 8.94497C65.8924 9.53378 65.4629 9.99732 64.9028 10.3356C64.3551 10.6738 63.7141 10.843 62.9797 10.843C62.2329 10.843 61.5794 10.6738 61.0193 10.3356C60.4716 9.99732 60.0421 9.53378 59.731 8.94497C59.4322 8.34363 59.2829 7.65459 59.2829 6.87785ZM55.9407 6.87785C55.9407 7.89262 56.1088 8.82595 56.4449 9.67785C56.7934 10.5298 57.2788 11.2689 57.9012 11.8953C58.536 12.5217 59.2829 13.0103 60.1417 13.3611C61.0006 13.6993 61.9466 13.8685 62.9797 13.8685C64.0004 13.8685 64.9402 13.6993 65.799 13.3611C66.6579 13.0103 67.3985 12.5217 68.0209 11.8953C68.6557 11.2689 69.1411 10.5298 69.4772 9.67785C69.8257 8.82595 70 7.89262 70 6.87785C70 5.86309 69.8257 4.93602 69.4772 4.09664C69.1287 3.25727 68.637 2.53065 68.0022 1.91678C67.3674 1.30291 66.6206 0.833109 65.7617 0.507383C64.9153 0.169128 63.9879 0 62.9797 0C61.9839 0 61.0566 0.169128 60.1977 0.507383C59.3389 0.833109 58.592 1.30291 57.9572 1.91678C57.3224 2.53065 56.8245 3.25727 56.4635 4.09664C56.115 4.93602 55.9407 5.86309 55.9407 6.87785Z" fill="#282739"/>
</g>
</svg>
