<svg width="35" height="24" viewBox="0 0 35 24" fill="none" xmlns="http://www.w3.org/2000/svg">
<rect x="0.243409" y="0.559815" width="33.5905" height="22.8805" rx="2.6775" fill="white" stroke="#EAEBED" stroke-width="0.486818"/>
<path fill-rule="evenodd" clip-rule="evenodd" d="M16.0946 15.659V12.7177H17.6127C18.2347 12.7177 18.7598 12.5093 19.1878 12.0982L19.2905 11.994C20.0724 11.1428 20.021 9.81692 19.1878 9.02948C18.7712 8.6126 18.2005 8.38679 17.6127 8.39837H15.1758V15.659H16.0946ZM16.0947 11.826V9.28998H17.6359C17.9669 9.28998 18.2809 9.41736 18.5149 9.64896C19.0115 10.1353 19.0229 10.9459 18.5434 11.4496C18.3094 11.6986 17.9783 11.8376 17.6359 11.826H16.0947ZM23.5765 11.0792C23.1828 10.7144 22.6463 10.5291 21.9672 10.5291C21.094 10.5291 20.4377 10.8534 20.0039 11.4961L20.8143 12.0114C21.1111 11.5713 21.5163 11.3513 22.0299 11.3513C22.3552 11.3513 22.6691 11.4729 22.9145 11.6929C23.1542 11.9014 23.2912 12.2024 23.2912 12.5209V12.7351C22.9373 12.5383 22.4922 12.434 21.9443 12.434C21.3051 12.434 20.7915 12.5846 20.4091 12.8914C20.0268 13.1983 19.8327 13.6036 19.8327 14.1189C19.8213 14.5879 20.0211 15.0337 20.3749 15.3348C20.7344 15.6591 21.191 15.8212 21.7275 15.8212C22.3609 15.8212 22.8632 15.5375 23.2455 14.97H23.2855V15.6591H24.1644V12.5962C24.1644 11.9535 23.9703 11.4439 23.5765 11.0792ZM21.0827 14.744C20.8944 14.605 20.7802 14.3792 20.7802 14.136C20.7802 13.8639 20.9058 13.6381 21.1512 13.4586C21.4024 13.2791 21.7163 13.1865 22.0873 13.1865C22.601 13.1807 23.0006 13.2965 23.286 13.5281C23.286 13.9218 23.1319 14.2634 22.8294 14.5529C22.5554 14.8308 22.1844 14.9872 21.7962 14.9872C21.5394 14.9929 21.2882 14.9061 21.0827 14.744ZM26.139 17.8419L29.2094 10.6912H28.2106L26.7896 14.2579H26.7725L25.3172 10.6912H24.3185L26.333 15.3406L25.1916 17.8419H26.139Z" fill="#282739"/>
<path d="M12.9201 12.0812C12.9201 11.7975 12.8973 11.5138 12.8516 11.2358H8.97656V12.8397H11.1966C11.1053 13.355 10.8085 13.8182 10.3748 14.1077V15.1499H11.6988C12.475 14.4261 12.9201 13.355 12.9201 12.0812Z" fill="#4285F4"/>
<path d="M8.97821 16.1574C10.0854 16.1574 11.0213 15.7868 11.7005 15.1499L10.3764 14.1077C10.0055 14.3625 9.53179 14.5072 8.97821 14.5072C7.90529 14.5072 6.99787 13.7719 6.67257 12.7876H5.30859V13.8645C6.00485 15.2715 7.4259 16.1574 8.97821 16.1574Z" fill="#34A853"/>
<path d="M6.67232 12.7873C6.50108 12.272 6.50108 11.7104 6.67232 11.1893V10.1182H5.30813C4.72021 11.2935 4.72021 12.6831 5.30813 13.8585L6.67232 12.7873Z" fill="#FBBC04"/>
<path d="M8.97821 9.46973C9.56604 9.45815 10.131 9.68396 10.5534 10.0951L11.729 8.90231C10.9814 8.19594 9.99977 7.80801 8.97821 7.81959C7.4259 7.81959 6.00485 8.71125 5.30859 10.1182L6.67257 11.1951C6.99787 10.2051 7.90529 9.46973 8.97821 9.46973Z" fill="#EA4335"/>
</svg>
