<svg width="36" height="24" viewBox="0 0 36 24" fill="none" xmlns="http://www.w3.org/2000/svg">
<rect x="1.18872" y="0.559815" width="33.5905" height="22.8805" rx="2.6775" fill="white" stroke="#EAEBED" stroke-width="0.486818"/>
<path fill-rule="evenodd" clip-rule="evenodd" d="M10.2718 8.43958C9.98574 8.7822 9.52809 9.05244 9.07044 9.01383C9.01324 8.55057 9.23729 8.05836 9.49949 7.75434C9.78552 7.40207 10.2861 7.15114 10.6913 7.13184C10.739 7.6144 10.553 8.08731 10.2718 8.43958ZM10.6865 9.10562C10.2833 9.08214 9.91546 9.22836 9.61831 9.34648C9.42709 9.42248 9.26516 9.48685 9.14196 9.48685C9.00371 9.48685 8.83509 9.41904 8.64578 9.34291C8.39771 9.24316 8.1141 9.12911 7.81669 9.13458C7.13498 9.14423 6.50094 9.53511 6.15294 10.1576C5.43786 11.4026 5.96702 13.246 6.65826 14.2594C6.99673 14.7613 7.40194 15.3114 7.93586 15.2921C8.17076 15.2831 8.33973 15.2105 8.5146 15.1354C8.71592 15.049 8.92505 14.9591 9.25161 14.9591C9.56684 14.9591 9.76683 15.0466 9.95881 15.1306C10.1413 15.2105 10.3166 15.2871 10.5769 15.2824C11.1299 15.2728 11.4779 14.7806 11.8163 14.2787C12.1816 13.7401 12.3421 13.2144 12.3665 13.1346L12.3693 13.1254C12.3688 13.1248 12.3642 13.1227 12.3563 13.119C12.2342 13.0624 11.3009 12.6299 11.292 11.4702C11.283 10.4967 12.0322 10.0035 12.1501 9.9259L12.1501 9.9259C12.1573 9.92118 12.1622 9.91799 12.1644 9.91633C11.6876 9.20214 10.944 9.12493 10.6865 9.10562ZM14.5146 15.2293V7.70613H17.3034C18.7431 7.70613 19.749 8.70986 19.749 10.1769C19.749 11.6438 18.724 12.6572 17.2653 12.6572H15.6683V15.2293H14.5146ZM15.6682 8.69046H16.9982C17.9993 8.69046 18.5714 9.23093 18.5714 10.1816C18.5714 11.1322 17.9993 11.6775 16.9935 11.6775H15.6682V8.69046ZM23.558 14.3268C23.2529 14.9155 22.5807 15.2871 21.8561 15.2871C20.7835 15.2871 20.0351 14.6405 20.0351 13.6657C20.0351 12.7006 20.7597 12.1456 22.0992 12.0636L23.5389 11.9767V11.5617C23.5389 10.9489 23.1433 10.6159 22.4377 10.6159C21.8561 10.6159 21.4318 10.9199 21.346 11.3832H20.3068C20.3402 10.4084 21.2459 9.69904 22.4711 9.69904C23.7916 9.69904 24.6497 10.3988 24.6497 11.4845V15.2292H23.5818V14.3268H23.558ZM22.1659 14.3943C21.5509 14.3943 21.16 14.0952 21.16 13.6367C21.16 13.1638 21.5366 12.8888 22.2564 12.8453L23.5388 12.7633V13.1879C23.5388 13.8925 22.9477 14.3943 22.1659 14.3943ZM28.1917 15.5237C27.7293 16.8411 27.2001 17.2754 26.0751 17.2754C25.9893 17.2754 25.7032 17.2657 25.6365 17.2464V16.3441C25.708 16.3537 25.8844 16.3634 25.975 16.3634C26.485 16.3634 26.7711 16.1462 26.9475 15.5816L27.0523 15.2486L25.0978 9.77154H26.3039L27.6625 14.2159H27.6864L29.045 9.77154H30.2177L28.1917 15.5237Z" fill="#282739"/>
</svg>
