<svg width="35" height="24" viewBox="0 0 35 24" fill="none" xmlns="http://www.w3.org/2000/svg">
<rect x="1.13403" y="0.559815" width="33.5905" height="22.8805" rx="2.6775" fill="white" stroke="#EAEBED" stroke-width="0.486818"/>
<path fill-rule="evenodd" clip-rule="evenodd" d="M11.2372 16.1459H9.17279L7.62472 10.24C7.55125 9.96828 7.39523 9.72811 7.16574 9.61491C6.59302 9.33044 5.96191 9.10404 5.27344 8.98986V8.76248H8.59906C9.05804 8.76248 9.40228 9.10404 9.45966 9.50073L10.2629 13.7609L12.3263 8.76248H14.3333L11.2372 16.1459ZM15.4808 16.1459H13.5312L15.1366 8.76248H17.0863L15.4808 16.1459ZM19.6086 10.808C19.666 10.4103 20.0102 10.183 20.4118 10.183C21.0429 10.1259 21.7304 10.24 22.3041 10.5235L22.6484 8.93385C22.0746 8.70647 21.4435 8.59229 20.8708 8.59229C18.9785 8.59229 17.6015 9.615 17.6015 11.0344C17.6015 12.1142 18.5769 12.6812 19.2654 13.0227C20.0102 13.3633 20.2971 13.5907 20.2397 13.9313C20.2397 14.4421 19.666 14.6695 19.0932 14.6695C18.4048 14.6695 17.7163 14.4992 17.0862 14.2148L16.742 15.8054C17.4304 16.0889 18.1753 16.2031 18.8637 16.2031C20.9855 16.2592 22.3041 15.2375 22.3041 13.7039C22.3041 11.7726 19.6086 11.6594 19.6086 10.808ZM29.1276 16.1459L27.5795 8.76248H25.9167C25.5724 8.76248 25.2282 8.98986 25.1135 9.33044L22.2468 16.1459H24.2539L24.6545 15.0671H27.1205L27.35 16.1459H29.1276ZM26.2035 10.7509L26.7763 13.5336H25.1708L26.2035 10.7509Z" fill="#172B85"/>
</svg>
