<svg width="35" height="24" viewBox="0 0 35 24" fill="none" xmlns="http://www.w3.org/2000/svg">
<rect x="1.07935" y="0.559815" width="33.5905" height="22.8805" rx="2.6775" fill="white" stroke="#EAEBED" stroke-width="0.486818"/>
<path fill-rule="evenodd" clip-rule="evenodd" d="M18.0666 17.2389C16.9064 18.24 15.4016 18.8443 13.7572 18.8443C10.0878 18.8443 7.11328 15.8352 7.11328 12.1233C7.11328 8.41144 10.0878 5.40234 13.7572 5.40234C15.4017 5.40234 16.9067 6.00678 18.0668 7.00802C19.227 6.00691 20.7318 5.40256 22.3763 5.40256C26.0456 5.40256 29.0201 8.41166 29.0201 12.1236C29.0201 15.8355 26.0456 18.8446 22.3763 18.8446C20.7317 18.8446 19.2268 18.2401 18.0666 17.2389Z" fill="#ED0006"/>
<path fill-rule="evenodd" clip-rule="evenodd" d="M18.0664 17.2393C19.4949 16.0065 20.4008 14.1722 20.4008 12.1238C20.4008 10.0755 19.4949 8.24113 18.0664 7.00837C19.2266 6.00721 20.7315 5.40283 22.3759 5.40283C26.0452 5.40283 29.0198 8.41193 29.0198 12.1238C29.0198 15.8357 26.0452 18.8448 22.3759 18.8448C20.7315 18.8448 19.2266 18.2404 18.0664 17.2393Z" fill="#F9A000"/>
<path fill-rule="evenodd" clip-rule="evenodd" d="M18.0687 17.2391C19.4972 16.0064 20.403 14.172 20.403 12.1237C20.403 10.0754 19.4972 8.24106 18.0687 7.0083C16.6402 8.24106 15.7344 10.0754 15.7344 12.1237C15.7344 14.172 16.6402 16.0064 18.0687 17.2391Z" fill="#FF5E00"/>
</svg>
