<svg width="35" height="24" viewBox="0 0 35 24" fill="none" xmlns="http://www.w3.org/2000/svg">
<rect x="1.02466" y="0.559815" width="33.5905" height="22.8805" rx="2.6775" fill="white" stroke="#EAEBED" stroke-width="0.486818"/>
<path d="M20.3463 12.1233C20.3463 15.8352 17.3718 18.8443 13.7025 18.8443C10.0332 18.8443 7.05859 15.8352 7.05859 12.1233C7.05859 8.41144 10.0332 5.40234 13.7025 5.40234C17.3718 5.40234 20.3463 8.41144 20.3463 12.1233Z" fill="#ED0006"/>
<path d="M28.9635 12.1233C28.9635 15.8352 25.989 18.8443 22.3197 18.8443C18.6503 18.8443 15.6758 15.8352 15.6758 12.1233C15.6758 8.41144 18.6503 5.40234 22.3197 5.40234C25.989 5.40234 28.9635 8.41144 28.9635 12.1233Z" fill="#0099DF"/>
<path fill-rule="evenodd" clip-rule="evenodd" d="M18.014 17.2391C19.4425 16.0064 20.3483 14.172 20.3483 12.1237C20.3483 10.0754 19.4425 8.24106 18.014 7.0083C16.5855 8.24106 15.6797 10.0754 15.6797 12.1237C15.6797 14.172 16.5855 16.0064 18.014 17.2391Z" fill="#6C6BBD"/>
</svg>
