<svg width="35" height="24" viewBox="0 0 35 24" fill="none" xmlns="http://www.w3.org/2000/svg">
<rect x="0.969972" y="0.559815" width="33.5905" height="22.8805" rx="2.6775" fill="white" stroke="#EAEBED" stroke-width="0.486818"/>
<path fill-rule="evenodd" clip-rule="evenodd" d="M13.5471 16.0489C13.6997 15.9697 13.9589 15.8657 14.2336 15.8657C14.864 15.8657 15.2048 16.2914 15.2048 17.0835C15.2048 18.0089 14.7473 18.4594 14.0099 18.4594C13.7403 18.4594 13.3234 18.3752 13.0182 18.2166V14.762L13.5471 14.6382V16.0489ZM13.5421 18.0336C13.7047 18.103 13.8828 18.1128 14.0099 18.1128C14.3862 18.1128 14.6709 17.8852 14.6709 17.0836C14.6709 16.4548 14.437 16.2519 14.0963 16.2519C13.8928 16.2519 13.7455 16.3063 13.5421 16.4152V18.0336ZM8.12622 15.9298H8.16184L8.85324 18.3998H9.40238L10.2263 14.8904H9.63126L9.11261 17.5089H9.07718L8.37021 14.8904H7.91767L7.25665 17.5089H7.22104L6.65149 14.8904H6.08203L6.90582 18.3998H7.45487L8.12622 15.9298ZM12.4796 18.2315V17.8554C12.1999 18.0187 11.9457 18.1127 11.6712 18.1127C11.1474 18.1127 10.8983 17.8503 10.8983 17.2564H12.5558V17.0734C12.5558 16.2667 12.1643 15.8657 11.5288 15.8657C10.7661 15.8657 10.3745 16.4102 10.3745 17.1624C10.3745 17.9446 10.7253 18.4594 11.5795 18.4594C11.9457 18.4594 12.2508 18.3604 12.4796 18.2315ZM12.0728 16.9249H10.9086C10.9644 16.4301 11.2032 16.1974 11.5136 16.1974C11.7882 16.1974 12.0476 16.4051 12.0728 16.9249ZM17.544 17.6573H17.5184L16.3794 14.8904H15.7642V18.3998H16.2219V15.9151H16.2676L17.305 18.3998H17.6303L18.6677 15.8557H18.7136V18.3998H19.2627V14.8904H18.6321L17.544 17.6573ZM19.8222 17.1624C19.8222 16.2962 20.3103 15.8657 20.9815 15.8657C21.6528 15.8657 22.141 16.2962 22.141 17.1624C22.141 18.0089 21.6782 18.4594 20.9815 18.4594C20.2848 18.4594 19.8222 18.0089 19.8222 17.1624ZM21.6068 17.1625C21.6068 16.4944 21.327 16.2124 20.9813 16.2124C20.6457 16.2124 20.3559 16.4944 20.3559 17.1625C20.3559 17.8409 20.6204 18.1128 20.9813 18.1128C21.3423 18.1128 21.6068 17.8409 21.6068 17.1625ZM23.9204 15.8657C23.3359 15.8657 22.8527 16.0983 22.6239 16.232V18.4H23.1528V16.4399C23.3103 16.3509 23.5697 16.2616 23.7732 16.2616C24.0325 16.2616 24.2306 16.331 24.2306 16.722V18.4H24.7594V16.608C24.7594 16.0983 24.5308 15.8657 23.9204 15.8657ZM27.3373 17.8554V18.2315C27.1086 18.3604 26.8036 18.4594 26.4373 18.4594C25.5832 18.4594 25.2323 17.9446 25.2323 17.1624C25.2323 16.4102 25.624 15.8657 26.3866 15.8657C27.0224 15.8657 27.414 16.2667 27.414 17.0734V17.2564H25.7563C25.7563 17.8503 26.0054 18.1127 26.5291 18.1127C26.8036 18.1127 27.0579 18.0187 27.3373 17.8554ZM25.7663 16.9249H26.9307C26.9054 16.4051 26.6459 16.1974 26.3713 16.1974C26.0611 16.1974 25.8224 16.4301 25.7663 16.9249ZM29.9361 15.9498H29.392L28.8121 17.7712H28.7818L28.1309 15.9498H27.5716L28.5479 18.4247C28.4257 18.7908 28.2123 19.0584 27.8665 19.0584V19.464C28.451 19.464 28.7613 19.1078 29.0156 18.4247L29.9361 15.9498Z" fill="#0068A3"/>
<path fill-rule="evenodd" clip-rule="evenodd" d="M17.6676 4.51562C18.3674 4.51562 19.0301 4.67425 19.6203 4.95586C19.713 4.99867 19.8055 5.04576 19.8982 5.09776L19.4879 5.45518L18.8715 4.83479L17.8312 5.73802L17.2133 5.08157L15.2753 6.78193L16.5177 8.11472L16.0295 8.53272L17.2532 9.86752L16.7678 10.2846L18.5165 12.1792L19.5545 11.249L20.4519 12.2458C20.2734 12.3809 20.079 12.508 19.8648 12.6254C19.2158 12.9857 18.4658 13.1919 17.6676 13.1919C15.2129 13.1919 13.2109 11.2429 13.2109 8.8539C13.2109 6.46434 15.2129 4.51562 17.6676 4.51562ZM16.8555 8.57949L17.9153 7.65052L18.8696 8.68234L17.8099 9.61096L16.8555 8.57949ZM18.6689 9.4333L17.609 10.362L18.5635 11.3938L19.6233 10.4649L18.6689 9.4333ZM16.0971 6.81784L17.1569 5.88913L18.1109 6.92069L17.0511 7.8494L16.0971 6.81784ZM18.8367 5.62148L18.0419 6.31794L18.7575 7.09187L19.5523 6.39515L18.8367 5.62148ZM19.4541 9.50867L20.2492 8.81194L20.9648 9.58579L20.17 10.2823L19.4541 9.50867ZM20.9481 10.3746L20.1534 11.0714L20.869 11.8448L21.6639 11.1483L20.9481 10.3746ZM20.4735 7.48975L21.0034 7.02536L21.4804 7.54114L20.9508 8.00545L20.4735 7.48975ZM20.3264 5.49288L19.7965 5.95719L20.2735 6.47297L20.8035 6.00866L20.3264 5.49288ZM21.1509 9.02223L21.6808 8.55784L22.1579 9.07353L21.628 9.53793L21.1509 9.02223ZM19.5692 7.17701L18.7745 7.87383L19.4903 8.64724L20.2848 7.95068L19.5692 7.17701Z" fill="#0068A3"/>
</svg>
