<svg width="35" height="24" viewBox="0 0 35 24" fill="none" xmlns="http://www.w3.org/2000/svg">
<rect x="0.915284" y="0.559815" width="33.5905" height="22.8805" rx="2.6775" fill="white" stroke="#EAEBED" stroke-width="0.486818"/>
<path fill-rule="evenodd" clip-rule="evenodd" d="M10.4102 11.5788C10.4102 15.3487 13.4847 18.4232 17.2912 18.4232C17.7584 18.4232 18.2256 18.3823 18.7624 18.3353C19.3611 18.2829 20.0463 18.2229 20.9147 18.2036C22.2323 18.2036 23.6598 18.6794 25.2336 20.0702C25.38 20.2167 25.5996 20.0336 25.4532 19.8506C23.8794 17.9108 22.4519 17.5448 21.0245 17.2154C19.2676 16.8127 18.3526 15.8611 17.7304 14.7631C17.6206 14.5435 17.5474 14.5801 17.5474 14.8729C17.5108 15.3121 17.5474 15.7147 17.6206 16.1173H17.401C14.9121 16.1173 12.8624 14.0677 12.8624 11.5788C12.8624 9.0899 14.9121 7.04023 17.401 7.04023C19.8899 7.04023 21.9395 9.0899 21.9395 11.5788C21.9395 11.7252 21.9395 11.9082 21.9029 12.0912C21.5369 12.018 20.9147 12.018 20.4389 12.0546C20.2559 12.0546 20.2559 12.1278 20.4023 12.1644C21.8663 12.4572 22.8912 13.3722 23.1474 15.0559C23.1474 15.1291 23.184 15.1291 23.2206 15.0925C23.8062 14.0677 24.1722 12.8598 24.1722 11.5788C24.1722 7.77225 21.0977 4.69775 17.2912 4.69775C13.4847 4.69775 10.4102 7.80885 10.4102 11.5788ZM22.2689 14.3971C22.5251 14.507 22.6349 14.873 22.6349 15.056C22.6715 15.3488 22.5983 15.4952 22.4885 15.4952C22.3787 15.4952 22.2323 15.3854 22.0859 15.1292C21.9395 14.873 21.8663 14.6168 21.9395 14.4704C22.0493 14.3972 22.1591 14.3605 22.2689 14.3971ZM20.7683 15.5319C20.9147 15.5319 21.0977 15.6051 21.2807 15.7515C21.5735 16.0077 21.6833 16.3005 21.5369 16.5201C21.4637 16.6299 21.2807 16.7031 21.1343 16.7031C20.9513 16.7031 20.7683 16.6299 20.6585 16.5201C20.3657 16.2639 20.2925 15.8979 20.4755 15.6783C20.5121 15.6051 20.6219 15.5319 20.7683 15.5319Z" fill="#F28A1A"/>
</svg>
