<svg width="8" height="9" viewBox="0 0 8 9" fill="none" xmlns="http://www.w3.org/2000/svg">
<path d="M0.0265625 2.56C0.0265625 2.24667 0.0965625 1.96333 0.236563 1.71C0.383229 1.45 0.586563 1.24333 0.846563 1.09C1.10656 0.936666 1.3999 0.86 1.72656 0.86C2.06656 0.86 2.36323 0.936666 2.61656 1.09C2.87656 1.24333 3.07656 1.45 3.21656 1.71C3.36323 1.96333 3.43656 2.24667 3.43656 2.56C3.43656 2.87333 3.36323 3.16 3.21656 3.42C3.07656 3.67333 2.87656 3.87667 2.61656 4.03C2.36323 4.18333 2.06656 4.26 1.72656 4.26C1.3999 4.26 1.10656 4.18333 0.846563 4.03C0.586563 3.87667 0.383229 3.67333 0.236563 3.42C0.0965625 3.16 0.0265625 2.87333 0.0265625 2.56ZM0.946563 2.56C0.946563 2.70667 0.979896 2.84667 1.04656 2.98C1.11323 3.10667 1.20323 3.21 1.31656 3.29C1.43656 3.36333 1.57323 3.4 1.72656 3.4C1.89323 3.4 2.03323 3.36333 2.14656 3.29C2.2599 3.21 2.3499 3.10667 2.41656 2.98C2.48323 2.84667 2.51656 2.70667 2.51656 2.56C2.51656 2.40667 2.48323 2.26667 2.41656 2.14C2.3499 2.01333 2.2599 1.91333 2.14656 1.84C2.03323 1.76667 1.89323 1.73 1.72656 1.73C1.57323 1.73 1.43656 1.76667 1.31656 1.84C1.20323 1.91333 1.11323 2.01333 1.04656 2.14C0.979896 2.26667 0.946563 2.40667 0.946563 2.56ZM4.19656 6.44C4.19656 6.12 4.2699 5.83333 4.41656 5.58C4.56323 5.32 4.76323 5.11667 5.01656 4.97C5.27656 4.81667 5.57323 4.74 5.90656 4.74C6.2399 4.74 6.53323 4.81667 6.78656 4.97C7.04656 5.11667 7.24656 5.32 7.38656 5.58C7.53323 5.83333 7.60656 6.12 7.60656 6.44C7.60656 6.74667 7.53323 7.03 7.38656 7.29C7.24656 7.55 7.04656 7.75667 6.78656 7.91C6.53323 8.05667 6.2399 8.13 5.90656 8.13C5.57323 8.13 5.27656 8.05667 5.01656 7.91C4.76323 7.75667 4.56323 7.55 4.41656 7.29C4.2699 7.03 4.19656 6.74667 4.19656 6.44ZM5.12656 6.43C5.12656 6.57667 5.15656 6.71667 5.21656 6.85C5.28323 6.97667 5.37323 7.08 5.48656 7.16C5.60656 7.23333 5.74656 7.27 5.90656 7.27C6.06656 7.27 6.20323 7.23333 6.31656 7.16C6.43656 7.08 6.52656 6.97667 6.58656 6.85C6.65323 6.72333 6.68656 6.58333 6.68656 6.43C6.68656 6.28333 6.65323 6.14667 6.58656 6.02C6.52656 5.89333 6.43656 5.79333 6.31656 5.72C6.20323 5.64 6.06656 5.6 5.90656 5.6C5.74656 5.6 5.60656 5.64 5.48656 5.72C5.37323 5.79333 5.28323 5.89333 5.21656 6.02C5.15656 6.14667 5.12656 6.28333 5.12656 6.43ZM5.70656 1H6.77656L1.92656 8H0.856563L5.70656 1Z" fill="white"/>
</svg>
