<svg width="18" height="18" viewBox="0 0 18 18" fill="none" xmlns="http://www.w3.org/2000/svg">
<g id="power 1">
<path id="Vector" d="M14.224 0.260732C14.1407 0.101188 13.9756 0 13.7955 0H6.72992C6.51625 0 6.32795 0.141421 6.26681 0.346092L3.74286 8.80412C3.69918 8.95043 3.72721 9.10792 3.81843 9.23032C3.90965 9.35277 4.05337 9.42405 4.20596 9.42405H8.16763L6.57164 17.4212C6.52519 17.6538 6.65434 17.8862 6.87653 17.9691C6.93193 17.9898 6.98908 18 7.04544 18C7.21495 18 7.37746 17.9106 7.46554 17.7559L13.6896 6.82597C13.7748 6.67634 13.774 6.49172 13.6875 6.34287C13.601 6.19402 13.4418 6.10147 13.2697 6.10147H10.4671L14.1919 0.760267C14.2949 0.612563 14.3073 0.420397 14.224 0.260732Z" fill="#5D6C7B"/>
</g>
</svg>
