<svg width="12" height="12" viewBox="0 0 12 12" fill="none" xmlns="http://www.w3.org/2000/svg">
<g id="Icon / Outlined / Search" clip-path="url(#clip0_395_22173)">
<path id="Vector" d="M11.9639 11.1375L8.06847 7.24197C8.67296 6.46047 8.99996 5.50498 8.99996 4.49998C8.99996 3.29699 8.53046 2.16899 7.68147 1.31849C6.83247 0.467998 5.70148 0 4.49998 0C3.29849 0 2.16749 0.469498 1.31849 1.31849C0.467998 2.16749 0 3.29699 0 4.49998C0 5.70148 0.469498 6.83247 1.31849 7.68147C2.16749 8.53196 3.29699 8.99996 4.49998 8.99996C5.50498 8.99996 6.45897 8.67296 7.24047 8.06996L11.136 11.9639C11.1474 11.9754 11.1609 11.9844 11.1759 11.9906C11.1908 11.9968 11.2068 12 11.223 12C11.2391 12 11.2551 11.9968 11.27 11.9906C11.285 11.9844 11.2985 11.9754 11.31 11.9639L11.9639 11.3115C11.9754 11.3 11.9844 11.2865 11.9906 11.2715C11.9968 11.2566 12 11.2406 12 11.2245C12 11.2083 11.9968 11.1923 11.9906 11.1774C11.9844 11.1624 11.9754 11.1489 11.9639 11.1375ZM6.87597 6.87597C6.23997 7.51047 5.39698 7.85997 4.49998 7.85997C3.60298 7.85997 2.75999 7.51047 2.12399 6.87597C1.48949 6.23997 1.13999 5.39698 1.13999 4.49998C1.13999 3.60298 1.48949 2.75849 2.12399 2.12399C2.75999 1.48949 3.60298 1.13999 4.49998 1.13999C5.39698 1.13999 6.24147 1.48799 6.87597 2.12399C7.51047 2.75999 7.85997 3.60298 7.85997 4.49998C7.85997 5.39698 7.51047 6.24147 6.87597 6.87597Z" fill="#5D6C7B"/>
</g>
<defs>
<clipPath id="clip0_395_22173">
<rect width="12" height="12" fill="white"/>
</clipPath>
</defs>
</svg>
