<svg width="20" height="20" viewBox="0 0 20 20" fill="none" xmlns="http://www.w3.org/2000/svg">
<g id="shopping-cart 2" clip-path="url(#clip0_179_30)">
<path id="Vector" d="M19.1523 7.25427H15.0031L12.6756 1.92486C12.5462 1.62833 12.2008 1.49282 11.9042 1.62239C11.6076 1.75189 11.4722 2.09732 11.6017 2.39388L13.7244 7.25431H6.27564L8.3983 2.39388C8.52779 2.09732 8.3924 1.75193 8.09584 1.62239C7.79932 1.49282 7.45385 1.62825 7.32439 1.92486L4.99689 7.25427H0.847715C0.304942 7.25427 -0.0978707 7.74564 0.0208793 8.26286L2.20584 17.7797C2.2926 18.1576 2.63611 18.4261 3.03268 18.4261H16.9674C17.3639 18.4261 17.7074 18.1576 17.7942 17.7797L19.9792 8.26286C20.0979 7.74568 19.6951 7.25427 19.1523 7.25427ZM5.10713 9.0513C5.02885 9.0513 4.94928 9.03552 4.87291 9.00216C4.57635 8.87267 4.44092 8.52728 4.57045 8.23068L5.01061 7.22278H6.28936L5.64436 8.69966C5.54822 8.91993 5.33299 9.0513 5.10713 9.0513ZM7.07033 15.3011C7.07033 15.6247 6.80799 15.8871 6.48439 15.8871C6.1608 15.8871 5.89846 15.6247 5.89846 15.3011V11.0043C5.89846 10.6807 6.1608 10.4183 6.48439 10.4183C6.80799 10.4183 7.07033 10.6807 7.07033 11.0043V15.3011ZM10.586 15.3011C10.586 15.6247 10.3236 15.8871 10 15.8871C9.67643 15.8871 9.41408 15.6247 9.41408 15.3011V11.0043C9.41408 10.6807 9.67643 10.4183 10 10.4183C10.3236 10.4183 10.586 10.6807 10.586 11.0043V15.3011ZM14.1016 15.3011C14.1016 15.6247 13.8392 15.8871 13.5156 15.8871C13.1921 15.8871 12.9297 15.6247 12.9297 15.3011V11.0043C12.9297 10.6807 13.1921 10.4183 13.5156 10.4183C13.8392 10.4183 14.1016 10.6807 14.1016 11.0043V15.3011ZM15.1271 9.00216C15.0508 9.03552 14.9712 9.0513 14.8929 9.0513C14.6671 9.0513 14.4518 8.91997 14.3556 8.6997L13.7106 7.22282H14.9894L15.4296 8.23071C15.5591 8.52728 15.4237 8.87267 15.1271 9.00216Z" fill="#6F73EE"/>
</g>
<defs>
<clipPath id="clip0_179_30">
<rect width="20" height="20" fill="white"/>
</clipPath>
</defs>
</svg>
