<svg width="18" height="18" viewBox="0 0 18 18" fill="none" xmlns="http://www.w3.org/2000/svg">
<g id="speedometer 1">
<g id="Group">
<path id="Vector" d="M8.47243 4.56419V1.23584C6.43963 1.35252 4.53332 2.14245 3.01172 3.49853L5.36494 5.85175C6.25052 5.11452 7.32585 4.66895 8.47243 4.56419Z" fill="#5D6C7B"/>
<path id="Vector_2" d="M4.61876 6.59732L2.26557 4.24414C0.908332 5.76531 0.117422 7.67176 0 9.70505H3.32849C3.43396 8.55822 3.88044 7.48283 4.61876 6.59732Z" fill="#5D6C7B"/>
<path id="Vector_3" d="M14.6692 9.70505H17.9977C17.8802 7.67176 17.0894 5.76531 15.7321 4.24414L13.3789 6.59732C14.1172 7.4828 14.5637 8.55822 14.6692 9.70505Z" fill="#5D6C7B"/>
<path id="Vector_4" d="M14.6696 10.7598C14.4951 12.6757 13.4434 13.8447 13.0258 14.2622C12.8195 14.4685 12.8195 14.803 13.0258 15.0093L14.6259 16.6094C14.729 16.7126 14.8642 16.7641 14.9994 16.7641C15.1346 16.7641 15.2697 16.7126 15.3729 16.6094C16.9523 15.0302 17.8732 12.9695 17.9992 10.7598H14.6696Z" fill="#5D6C7B"/>
<path id="Vector_5" d="M3.27189 13.7856C3.41919 13.5541 3.64215 13.2055 3.90962 12.7931C3.63544 12.2496 3.40358 11.5721 3.32965 10.7598H0C0.126035 12.9695 1.04695 15.0302 2.62628 16.6094C2.72943 16.7126 2.8646 16.7642 2.99978 16.7642C3.13495 16.7642 3.27016 16.7126 3.37331 16.6094L3.92119 16.0615C3.76249 15.9851 3.61607 15.8819 3.48785 15.7537C2.95952 15.2253 2.87068 14.416 3.27189 13.7856Z" fill="#5D6C7B"/>
<path id="Vector_6" d="M9.52734 1.23584V4.56419C10.6739 4.66895 11.7493 5.11449 12.6348 5.85175L14.9881 3.49853C13.4665 2.14241 11.5601 1.35252 9.52734 1.23584Z" fill="#5D6C7B"/>
<path id="Vector_7" d="M7.82725 9.06949C7.01106 9.88568 4.44992 13.8968 4.16059 14.3515C4.02787 14.56 4.05783 14.8327 4.23259 15.0075C4.40735 15.1823 4.68006 15.2123 4.88861 15.0795C5.34328 14.7902 9.35448 12.2291 10.1707 11.4129C10.8167 10.7668 10.8167 9.71559 10.1707 9.06953C9.5246 8.42346 8.47332 8.42343 7.82725 9.06949Z" fill="#5D6C7B"/>
</g>
</g>
</svg>
