<svg width="18" height="18" viewBox="0 0 18 18" fill="none" xmlns="http://www.w3.org/2000/svg">
<g id="timer 1" clip-path="url(#clip0_11_9481)">
<g id="09-timer">
<path id="Vector" d="M14.4525 5.35819L15.5303 4.28044L14.4698 3.21956L13.3168 4.3725C12.2636 3.62609 11.0345 3.16607 9.75 3.0375V1.5H11.25V0H6.75V1.5H8.25V3.0375C6.96551 3.16607 5.73644 3.62609 4.68319 4.3725L3.53025 3.21956L2.46975 4.28044L3.5475 5.35819C2.54149 6.42334 1.86948 7.75982 1.61448 9.20259C1.35947 10.6454 1.53263 12.1312 2.11257 13.4767C2.69252 14.8222 3.65384 15.9683 4.87783 16.7736C6.10182 17.5788 7.53487 18.008 9 18.008C10.4651 18.008 11.8982 17.5788 13.1222 16.7736C14.3462 15.9683 15.3075 14.8222 15.8874 13.4767C16.4674 12.1312 16.6405 10.6454 16.3855 9.20259C16.1305 7.75982 15.4585 6.42334 14.4525 5.35819ZM9 16.5C7.81332 16.5 6.65328 16.1481 5.66658 15.4888C4.67989 14.8295 3.91085 13.8925 3.45673 12.7961C3.0026 11.6997 2.88378 10.4933 3.11529 9.32946C3.3468 8.16557 3.91825 7.09647 4.75736 6.25736C5.59648 5.41824 6.66558 4.8468 7.82946 4.61529C8.99335 4.38378 10.1997 4.5026 11.2961 4.95672C12.3925 5.41085 13.3295 6.17988 13.9888 7.16658C14.6481 8.15327 15 9.31331 15 10.5C14.9982 12.0908 14.3655 13.6158 13.2407 14.7407C12.1158 15.8655 10.5908 16.4982 9 16.5Z" fill="#5D6C7B"/>
<path id="Vector_2" d="M9 6V10.5H4.5C4.5 11.39 4.76392 12.26 5.25839 13.0001C5.75285 13.7401 6.45566 14.3169 7.27792 14.6575C8.10019 14.9981 9.00499 15.0872 9.87791 14.9135C10.7508 14.7399 11.5526 14.3113 12.182 13.682C12.8113 13.0526 13.2399 12.2508 13.4135 11.3779C13.5872 10.505 13.4981 9.60019 13.1575 8.77792C12.8169 7.95566 12.2401 7.25285 11.5001 6.75839C10.76 6.26392 9.89002 6 9 6Z" fill="#5D6C7B"/>
</g>
</g>
<defs>
<clipPath id="clip0_11_9481">
<rect width="18" height="18" fill="white"/>
</clipPath>
</defs>
</svg>
