<svg width="12" height="13" viewBox="0 0 12 13" fill="none" xmlns="http://www.w3.org/2000/svg">
<g id="viber 1" clip-path="url(#clip0_178_23)">
<path id="Vector" d="M6.40692 7.27975C6.26968 7.41708 6.04712 7.41708 5.90979 7.27975L4.31219 5.68216C4.24627 5.61624 4.20919 5.52679 4.20919 5.43359C4.20919 5.3403 4.24627 5.25095 4.31219 5.18494L4.59619 4.90103L3.76205 4.06689L3.0787 4.75024C2.84872 4.98022 2.84881 5.3544 3.0787 5.58438L6.00756 8.51343C6.11825 8.62411 6.26638 8.685 6.42468 8.685C6.58297 8.685 6.73111 8.62402 6.84179 8.51334L7.52514 7.83008L6.69101 6.99585L6.40692 7.27975Z" fill="#5D6C7B"/>
<path id="Vector_2" d="M11.4957 4.73541C11.4957 3.60831 11.0541 2.54593 10.2519 1.74384C9.4498 0.941742 8.38742 0.5 7.26041 0.5H4.75085C4.75085 0.5 4.75085 0.5 4.75076 0.5C3.62384 0.5 2.56146 0.941742 1.75946 1.74374C0.957367 2.54584 0.515625 3.60831 0.515625 4.73532V6.70792C0.515625 7.58069 0.78186 8.42032 1.28558 9.13599C1.72998 9.76733 2.32764 10.2604 3.02444 10.5732V11.7062C3.02444 12.2921 3.35248 12.4999 3.63336 12.5C3.83405 12.5 4.03482 12.4009 4.23019 12.2057L5.49243 10.9432H7.2605C8.38751 10.9432 9.44989 10.5015 10.252 9.6994C11.0541 8.89731 11.4958 7.83493 11.4958 6.70792L11.4957 4.73541ZM8.27197 8.07864L7.33997 9.01056C7.09644 9.25409 6.77179 9.38803 6.42572 9.38803C6.07965 9.38803 5.755 9.254 5.51147 9.01056L2.58252 6.08151C2.07852 5.57733 2.07852 4.75711 2.58252 4.25302L3.51453 3.32111C3.58044 3.2551 3.6698 3.21811 3.76309 3.21811C3.85629 3.21811 3.94574 3.2551 4.01166 3.32111L5.34302 4.65247C5.40894 4.71838 5.44592 4.80783 5.44592 4.90103C5.44592 4.99423 5.40894 5.08368 5.34293 5.1496L5.05902 5.4335L6.15948 6.53397L6.44348 6.24997C6.58081 6.11273 6.80338 6.11273 6.94061 6.25006L8.27197 7.58142C8.33798 7.64734 8.37497 7.73679 8.37497 7.82999C8.37497 7.92328 8.33798 8.01273 8.27197 8.07864ZM5.73944 3.91299C5.73944 3.7189 5.89682 3.56143 6.091 3.56143C7.30911 3.56143 8.30017 4.5524 8.30017 5.77042C8.30017 5.9646 8.14279 6.12198 7.94861 6.12198C7.75452 6.12198 7.59705 5.9646 7.59705 5.77042C7.59705 4.94012 6.92148 4.26456 6.091 4.26456C5.89682 4.26456 5.73944 4.10718 5.73944 3.91299ZM9.45474 6.12216C9.26056 6.12216 9.10318 5.96469 9.10318 5.7706C9.10327 4.96594 8.78989 4.20953 8.22098 3.64053C7.65198 3.07162 6.89557 2.75824 6.09091 2.75824C5.89682 2.75824 5.73935 2.60086 5.73935 2.40668C5.73935 2.21259 5.89682 2.05511 6.09091 2.05511C7.08334 2.05511 8.01636 2.44165 8.71811 3.1434C9.41995 3.84515 9.8064 4.77817 9.8063 5.7706C9.8063 5.96469 9.64893 6.12216 9.45474 6.12216Z" fill="#5D6C7B"/>
</g>
<defs>
<clipPath id="clip0_178_23">
<rect width="12" height="12" fill="white" transform="translate(0 0.5)"/>
</clipPath>
</defs>
</svg>
