<svg width="20" height="20" viewBox="0 0 20 20" fill="none" xmlns="http://www.w3.org/2000/svg">
<g id="018-youtube 1" clip-path="url(#clip0_213_15798)">
<path id="Vector" d="M0.436161 14.8949C0.844494 16.3433 2.09366 16.6083 2.17699 16.6591C4.23283 17.2191 15.7562 17.2208 17.8428 16.6591C19.272 16.2458 19.5345 14.9783 19.5837 14.8949C20.1278 11.9999 20.1637 8.22575 19.5587 4.94075L19.5837 5.10409C19.1753 3.65575 17.9262 3.39075 17.8428 3.33992C15.8145 2.78909 4.26116 2.76825 2.17699 3.33992C0.747827 3.75409 0.485327 5.02075 0.436161 5.10409C-0.146339 8.14659 -0.175506 11.6374 0.436161 14.8949ZM8.00783 13.0424V6.96492L13.2295 10.0083L8.00783 13.0424Z" fill="#E53935"/>
</g>
<defs>
<clipPath id="clip0_213_15798">
<rect width="20" height="20" fill="white"/>
</clipPath>
</defs>
</svg>
