<svg width="16" height="17" viewBox="0 0 16 17" fill="none" xmlns="http://www.w3.org/2000/svg">
<g id="scooter-2 1" clip-path="url(#clip0_521_19177)">
<g id="Group">
<path id="Vector" d="M9.57304 5.26829L10.4347 4.89349L8.83378 0.890625H6.51172V1.82997H8.19753L9.57304 5.26829Z" fill="#5D6C7B"/>
<path id="Vector_2" d="M14.2558 11.2713C13.6083 9.76645 12.2059 6.50817 11.713 5.36279L9.01365 6.53666L9.6643 8.04901L7.34036 12.163H5.9805C5.9805 10.4077 4.59434 9.15712 3.02188 9.15712H0V10.0965H3.02188C4.08803 10.0965 5.04116 10.9381 5.04116 12.163H4.49289C3.85382 11.302 2.70312 10.9269 1.66045 11.3098C0.773708 11.6329 0.0898641 12.4683 0.0350689 13.5003C-0.0560476 15.1921 1.54178 16.4646 3.15808 16.0197C3.67409 15.8772 4.15222 15.5653 4.49289 15.1063H8.79008L11.0148 11.1864C11.4409 12.1765 11.4735 12.2457 11.4744 12.2529C10.8648 13.1518 10.928 14.3351 11.5871 15.1674C12.5155 16.3588 14.3178 16.432 15.3398 15.3148C16.5854 13.9716 15.9817 11.8029 14.2558 11.2713Z" fill="#5D6C7B"/>
</g>
</g>
<defs>
<clipPath id="clip0_521_19177">
<rect width="16" height="16" fill="white" transform="translate(0 0.5)"/>
</clipPath>
</defs>
</svg>
