<svg width="16" height="17" viewBox="0 0 16 17" fill="none" xmlns="http://www.w3.org/2000/svg">
<g id="mountain-bike 1" clip-path="url(#clip0_521_19198)">
<path id="Vector" d="M12.2965 7.10321L11.4513 4.54837H12.161C12.4449 4.54837 12.6771 4.31611 12.6771 4.03224C12.6771 3.74837 12.4449 3.51611 12.161 3.51611H10.7384C10.3868 3.51611 10.1384 3.86127 10.2481 4.19353L10.7546 5.72579L10.3868 6.19353H5.98037L5.41585 5.25805H5.54488C5.82876 5.25805 6.06101 5.02579 6.06101 4.74192C6.06101 4.45805 5.82876 4.22579 5.54488 4.22579H3.93198C3.64811 4.22579 3.41585 4.45805 3.41585 4.74192C3.41585 5.02579 3.64811 5.25805 3.93198 5.25805H4.2094L6.92876 9.77418H6.36101C5.96101 7.28386 2.84166 6.11934 0.938433 8.02256C-0.316406 9.2774 -0.319632 11.2871 0.938433 12.5419C2.79327 14.3968 5.93521 13.3516 6.35779 10.8064H7.83843C7.9965 10.8064 8.14811 10.7322 8.24488 10.6097L11.1417 6.90644L11.3126 7.42579C10.2836 7.96127 9.57714 9.03869 9.57714 10.2742C9.57714 12.0451 11.0159 13.4839 12.7868 13.4839C14.5578 13.4839 15.9997 12.0451 15.9997 10.2742C15.9997 8.31934 14.2513 6.79998 12.2965 7.10321ZM4.56747 9.77418C4.36101 9.20321 3.81263 8.79676 3.17069 8.79676C2.35134 8.79676 1.68359 9.46127 1.68359 10.2839C1.68359 11.1032 2.34811 11.771 3.17069 11.771C3.80617 11.771 4.34811 11.371 4.56101 10.8097H5.3094C5.07392 11.7516 4.21908 12.4548 3.20295 12.4548C2.00617 12.4548 1.03198 11.4806 1.03198 10.2839C1.03198 9.08708 2.00617 8.11289 3.20295 8.11289C4.22553 8.11289 5.08359 8.82256 5.31263 9.77418H4.56747ZM7.89972 9.3774L6.60295 7.22579H9.58037L7.89972 9.3774ZM12.79 12.4516C11.59 12.4516 10.6126 11.4742 10.6126 10.2742C10.6126 9.49353 11.0255 8.80644 11.6449 8.42256L11.8739 9.11289C11.5288 9.38385 11.3062 9.80644 11.3062 10.2806C11.3062 11.1 11.9707 11.7677 12.7933 11.7677C13.6159 11.7677 14.2804 11.1032 14.2804 10.2806C14.2804 9.48063 13.6513 8.82902 12.8578 8.79676L12.6288 8.10321C13.9029 8.00644 14.9707 9.01934 14.9707 10.2742C14.9675 11.4742 13.99 12.4516 12.79 12.4516Z" fill="#5D6C7B"/>
</g>
<defs>
<clipPath id="clip0_521_19198">
<rect width="16" height="16" fill="white" transform="translate(0 0.5)"/>
</clipPath>
</defs>
</svg>
