<svg width="16" height="17" viewBox="0 0 16 17" fill="none" xmlns="http://www.w3.org/2000/svg">
<g id="vacuum-cleaner 1" clip-path="url(#clip0_521_19188)">
<path id="Vector" d="M2.69141 2.51941L3.52783 3.35583C4.76782 2.27502 6.33777 1.68469 7.99854 1.68469C8.70691 1.68469 9.39856 1.79248 10.0553 1.99939C10.0675 2.00269 10.0795 2.00647 10.0913 2.01086C10.9607 2.29016 11.7678 2.74438 12.4692 3.35583L13.3057 2.51941C11.8925 1.26392 10.0332 0.5 7.99854 0.5C5.96387 0.5 4.10461 1.26392 2.69141 2.51941Z" fill="#5D6C7B"/>
<path id="Vector_2" d="M13.9806 3.19287L13.1442 4.0293C14.2251 5.26929 14.8153 6.83923 14.8153 8.5C14.8153 10.3204 14.1064 12.0319 12.8192 13.3192C11.532 14.6064 9.82043 15.3153 8 15.3153C6.17957 15.3153 4.46814 14.6064 3.18079 13.3192C1.89355 12.0319 1.18469 10.3204 1.18469 8.5C1.18469 6.83923 1.7749 5.26929 2.85583 4.0293L2.01941 3.19287C0.763916 4.60608 0 6.46533 0 8.5C0 12.9113 3.58875 16.5 8 16.5C12.4113 16.5 16 12.9113 16 8.5C16 6.46533 15.2361 4.60608 13.9806 3.19287Z" fill="#5D6C7B"/>
<path id="Vector_3" d="M8.00085 2.63721C7.49878 2.63721 7.01135 2.70068 6.5459 2.81995C6.55481 3.83789 6.54297 8.19092 6.54297 8.38855C6.54297 8.96899 6.74072 9.51514 7.26782 9.82153C7.70581 10.0762 8.27917 10.0793 8.71997 9.82947C9.27783 9.51331 9.4176 8.99805 9.45044 8.43665C9.45764 8.31311 9.45874 3.65955 9.45874 2.82068C8.99255 2.70093 8.50403 2.63721 8.00085 2.63721ZM8.00085 8.97632C7.73389 8.97632 7.53625 8.75818 7.52466 8.50012C7.51318 8.24292 7.75183 8.02393 8.00085 8.02393C8.26782 8.02393 8.46545 8.24207 8.47705 8.50012C8.48853 8.75732 8.24988 8.97632 8.00085 8.97632Z" fill="#5D6C7B"/>
<path id="Vector_4" d="M5.58936 3.15576C3.5553 4.07678 2.13672 6.12585 2.13672 8.50012C2.13672 11.7329 4.76672 14.363 7.99963 14.363C11.2325 14.363 13.8625 11.7329 13.8625 8.50012C13.8625 6.12585 12.444 4.07678 10.4099 3.15576V6.03113V7.96228C10.4099 8.41064 10.4374 8.87036 10.2928 9.30237C9.90955 10.4484 8.75342 11.126 7.56787 10.9298C6.42798 10.7413 5.59985 9.69751 5.58936 8.55969C5.57983 7.53308 5.58936 6.5061 5.58936 5.47961C5.58936 4.70496 5.58936 3.93042 5.58936 3.15576Z" fill="#5D6C7B"/>
</g>
<defs>
<clipPath id="clip0_521_19188">
<rect width="16" height="16" fill="white" transform="translate(0 0.5)"/>
</clipPath>
</defs>
</svg>
