<svg width="20" height="20" viewBox="0 0 20 20" fill="none" xmlns="http://www.w3.org/2000/svg">
<g id="charger 1" clip-path="url(#clip0_258_9343)">
<g id="Group">
<path id="Vector" d="M8.42715 6.13675H11.1218V4.96487H8.42715V2.53222H11.1218V1.36034H8.42715V0.627686H5.48633V6.86937H8.42715V6.13675Z" fill="#5D6C7B"/>
<path id="Vector_2" d="M4.31531 0H1.18945C0.542227 0 0.0175781 0.524648 0.0175781 1.17188V8.39625C0.0175781 9.04348 0.542227 9.56812 1.18945 9.56812H4.31531V0Z" fill="#5D6C7B"/>
<path id="Vector_3" d="M18.1528 14.2601H19.3246V3.46242C19.3246 1.55324 17.7714 0 15.8623 0C13.9531 0 12.3998 1.55324 12.3998 3.46242V14.1721C12.3998 16.7395 10.3112 18.8281 7.74387 18.8281C5.17656 18.8281 3.08789 16.7395 3.08789 14.1721V10.74H1.91602V14.1721C1.91602 17.3856 4.53035 20 7.74387 20C10.9574 20 13.5717 17.3856 13.5717 14.1721V3.46242C13.5717 2.19941 14.5993 1.17188 15.8623 1.17188C17.1253 1.17188 18.1528 2.19941 18.1528 3.46242V14.2601H18.1528Z" fill="#5D6C7B"/>
<path id="Vector_4" d="M17.498 15.4319V18.136H18.1547V19.9999H19.3266V18.136H19.9832V15.4319H17.498Z" fill="#5D6C7B"/>
</g>
</g>
<defs>
<clipPath id="clip0_258_9343">
<rect width="20" height="20" fill="white"/>
</clipPath>
</defs>
</svg>
