<svg width="18" height="16" viewBox="0 0 18 16" fill="none" xmlns="http://www.w3.org/2000/svg">
<path id="Vector" d="M16.9932 3.51484C16.7325 2.90528 16.3566 2.35291 15.8866 1.88864C15.4163 1.42298 14.8617 1.05293 14.2531 0.798611C13.622 0.533848 12.9452 0.398328 12.2618 0.399916C11.3031 0.399916 10.3677 0.665058 9.5548 1.16588C9.36033 1.28569 9.17559 1.41727 9.00057 1.56065C8.82555 1.41727 8.64081 1.28569 8.44634 1.16588C7.63347 0.665058 6.69809 0.399916 5.73936 0.399916C5.04901 0.399916 4.38004 0.533469 3.74803 0.798611C3.1374 1.05393 2.58706 1.4212 2.1145 1.88864C1.64389 2.35239 1.26795 2.90489 1.00799 3.51484C0.737681 4.14922 0.599609 4.82287 0.599609 5.51617C0.599609 6.17019 0.731847 6.8517 0.994377 7.54499C1.21412 8.12438 1.52916 8.72537 1.93171 9.33225C2.56956 10.2926 3.4466 11.2943 4.53562 12.3097C6.34027 13.9929 8.12742 15.1555 8.20326 15.2027L8.66414 15.5012C8.86833 15.6328 9.13086 15.6328 9.33505 15.5012L9.79594 15.2027C9.87178 15.1536 11.657 13.9929 13.4636 12.3097C14.5526 11.2943 15.4296 10.2926 16.0675 9.33225C16.47 8.72537 16.787 8.12438 17.0048 7.54499C17.2674 6.8517 17.3996 6.17019 17.3996 5.51617C17.4015 4.82287 17.2635 4.14922 16.9932 3.51484ZM9.00057 13.9477C9.00057 13.9477 2.07756 9.46776 2.07756 5.51617C2.07756 3.51484 3.71691 1.89257 5.73936 1.89257C7.16092 1.89257 8.39384 2.69388 9.00057 3.86443C9.60731 2.69388 10.8402 1.89257 12.2618 1.89257C14.2842 1.89257 15.9236 3.51484 15.9236 5.51617C15.9236 9.46776 9.00057 13.9477 9.00057 13.9477Z" fill="#6F73EE"/>
</svg>
