<svg width="20" height="20" viewBox="0 0 20 20" fill="none" xmlns="http://www.w3.org/2000/svg">
<g id="file 1" clip-path="url(#clip0_258_9323)">
<g id="Group">
<path id="Vector" d="M17.0821 2.26416H16.4973V16.6313C16.4973 17.5858 15.7204 18.3627 14.7659 18.3627H8.84069H4.12891V18.8953C4.12891 19.5052 4.62389 20.0001 5.23375 20.0001H11.1569H17.08C17.6899 20.0001 18.1849 19.5052 18.1849 18.8953V3.36901C18.1849 2.75915 17.692 2.26416 17.0821 2.26416Z" fill="#5D6C7B"/>
<path id="Vector_2" d="M8.84036 17.736H14.7635C15.3734 17.736 15.8684 17.241 15.8684 16.6312V2.26399V1.10485C15.8684 0.494987 15.3734 0 14.7635 0H8.84036H6.87085V0.365497C6.87501 0.403091 6.87712 0.442774 6.87712 0.482456V2.89056V3.50877C6.87712 4.36717 6.17954 5.06474 5.32114 5.06474H4.70293H2.29482C2.26349 5.06474 2.23008 5.06266 2.19875 5.06057H1.81445V16.6312C1.81445 17.241 2.30944 17.736 2.9193 17.736H4.13066H8.84036ZM9.06383 13.9808H5.20209C4.91387 13.9808 4.67995 13.7468 4.67995 13.4586C4.67995 13.1704 4.91387 12.9365 5.20209 12.9365H9.06592C9.35414 12.9365 9.58806 13.1704 9.58806 13.4586C9.58806 13.7468 9.35206 13.9808 9.06383 13.9808ZM12.9277 11.3158H5.20209C4.91387 11.3158 4.67995 11.0819 4.67995 10.7937C4.67995 10.5054 4.91387 10.2715 5.20209 10.2715H12.9277C13.2159 10.2715 13.4498 10.5054 13.4498 10.7937C13.4498 11.0819 13.2159 11.3158 12.9277 11.3158ZM5.20209 7.44152H12.9277C13.2159 7.44152 13.4498 7.67544 13.4498 7.96366C13.4498 8.25188 13.2159 8.4858 12.9277 8.4858H5.20209C4.91387 8.4858 4.67995 8.25188 4.67995 7.96366C4.67995 7.67544 4.91387 7.44152 5.20209 7.44152Z" fill="#5D6C7B"/>
<path id="Vector_3" d="M2.295 4.43807H5.32131C5.3234 4.43807 5.32758 4.43807 5.32967 4.43807C5.8351 4.43389 6.24445 4.02454 6.24863 3.51911C6.24863 3.51702 6.24863 3.51284 6.24863 3.51075V0.482349C6.24863 0.202483 6.01889 0.0166016 5.78081 0.0166016C5.66594 0.0166016 5.55107 0.0583727 5.455 0.154446L1.96501 3.64442C1.67261 3.93682 1.87938 4.43807 2.295 4.43807Z" fill="#5D6C7B"/>
</g>
</g>
<defs>
<clipPath id="clip0_258_9323">
<rect width="20" height="20" fill="white"/>
</clipPath>
</defs>
</svg>
