<svg width="20" height="20" viewBox="0 0 20 20" fill="none" xmlns="http://www.w3.org/2000/svg">
<g id="scooter 1" clip-path="url(#clip0_258_9387)">
<path id="Vector" d="M18.0755 15.1239L16.9903 2.10109C16.9451 1.56 16.7299 1.04715 16.3842 0.656881C16.009 0.233446 15.5248 0.000244141 15.0209 0.000244141H13.7656C13.4421 0.000244141 13.1797 0.262586 13.1797 0.586178C13.1797 0.90977 13.4421 1.17211 13.7656 1.17211H15.0209C15.3596 1.17211 15.772 1.59363 15.8225 2.19847L16.6911 12.6228C14.5174 12.9899 12.8421 14.7525 12.5861 16.9455H7.4137C7.12277 14.4751 5.0161 12.5522 2.46881 12.5522C1.72237 12.5522 1.00428 12.7136 0.33464 13.0317C0.0423374 13.1705 -0.0820369 13.52 0.0568295 13.8123C0.195657 14.1046 0.545186 14.2289 0.837489 14.0901C1.34878 13.8472 1.89764 13.7241 2.46881 13.7241C4.36899 13.7241 5.94832 15.1232 6.23097 16.9454H4.86668C4.6029 15.8662 3.62818 15.0627 2.46877 15.0627C1.10753 15.0627 0.000111089 16.1701 0.000111089 17.5314C0.000111089 18.8926 1.10753 20 2.46877 20C3.62818 20 4.6029 19.1965 4.86668 18.1173H13.138C13.4616 18.1173 13.7239 17.8549 13.7239 17.5314C13.7239 15.6855 15.0311 14.1409 16.7888 13.7959L16.9012 15.1444C15.8442 15.4236 15.0625 16.3878 15.0625 17.5313C15.0625 18.8926 16.17 20 17.5312 20C18.8925 20 20 18.8926 20 17.5313C20 16.3572 19.1757 15.3725 18.0755 15.1239Z" fill="#5D6C7B"/>
</g>
<defs>
<clipPath id="clip0_258_9387">
<rect width="20" height="20" fill="white"/>
</clipPath>
</defs>
</svg>
