<svg width="22" height="22" viewBox="0 0 22 22" fill="none" xmlns="http://www.w3.org/2000/svg">
<g id="Icon / Outlined / CheckCircle">
<path id="Vector" d="M15.0159 7.58398H14.0083C13.7892 7.58398 13.5808 7.68926 13.4519 7.86973L10.0745 12.5533L8.54481 10.4307C8.4159 10.2523 8.20965 10.1449 7.98836 10.1449H6.98074C6.84109 10.1449 6.75945 10.3039 6.84109 10.4178L9.51805 14.1303C9.58129 14.2185 9.66466 14.2905 9.76124 14.3401C9.85783 14.3897 9.96485 14.4156 10.0734 14.4156C10.182 14.4156 10.289 14.3897 10.3856 14.3401C10.4822 14.2905 10.5656 14.2185 10.6288 14.1303L15.1534 7.85684C15.2372 7.74297 15.1556 7.58398 15.0159 7.58398Z" fill="#6F73EE"/>
<path id="Vector_2" d="M11 1.375C5.68477 1.375 1.375 5.68477 1.375 11C1.375 16.3152 5.68477 20.625 11 20.625C16.3152 20.625 20.625 16.3152 20.625 11C20.625 5.68477 16.3152 1.375 11 1.375ZM11 18.9922C6.58711 18.9922 3.00781 15.4129 3.00781 11C3.00781 6.58711 6.58711 3.00781 11 3.00781C15.4129 3.00781 18.9922 6.58711 18.9922 11C18.9922 15.4129 15.4129 18.9922 11 18.9922Z" fill="#6F73EE"/>
</g>
</svg>
