<svg width="15" height="15" viewBox="0 0 15 15" fill="none" xmlns="http://www.w3.org/2000/svg">
<g id="pin 2">
<g id="Group">
<g id="Group_2">
<path id="Vector" d="M11.9464 1.84193C10.7587 0.654143 9.17937 0 7.49965 0C5.81991 0 4.24069 0.654114 3.05284 1.84193C1.86508 3.02969 1.21094 4.60886 1.21094 6.2886C1.21094 7.96834 1.86508 9.54757 3.05284 10.7354L7.18893 14.8713C7.27474 14.9571 7.38721 15 7.49965 15C7.61213 15 7.7246 14.9571 7.81038 14.8713L11.9463 10.7354C13.1341 9.5476 13.7882 7.96837 13.7883 6.28863C13.7882 4.60883 13.1341 3.02966 11.9464 1.84193ZM9.47462 8.26351C8.9471 8.79103 8.24573 9.08157 7.49968 9.08157C6.75364 9.08157 6.05227 8.79106 5.52477 8.26354C4.99722 7.73602 4.70671 7.03465 4.70671 6.2886C4.70671 5.54258 4.99722 4.84121 5.52477 4.31366C6.05227 3.78614 6.75364 3.49563 7.49968 3.49563C8.24573 3.49563 8.9471 3.78614 9.47462 4.31366C10.0021 4.84115 10.2927 5.54252 10.2927 6.28857C10.2927 7.03462 10.0021 7.73602 9.47462 8.26351Z" fill="white"/>
</g>
</g>
</g>
</svg>
