<svg width="16" height="16" viewBox="0 0 16 16" fill="none" xmlns="http://www.w3.org/2000/svg">
<g id="scooter-svgrepo-com 1" clip-path="url(#clip0_244_8372)">
<g id="Group">
<path id="Vector" d="M12.9414 10.847L10.3164 1.86258L12.082 1.67196C12.4477 1.63133 12.7133 1.30321 12.6727 0.937581C12.632 0.571956 12.307 0.303206 11.9383 0.346956L6.84141 0.896956C6.47578 0.937581 6.21016 1.26571 6.25078 1.63133C6.28828 1.97196 6.57578 2.22508 6.91328 2.22508C6.93828 2.22508 6.96016 2.22508 6.98516 2.22196L8.97266 2.00946L11.6477 11.1845C11.1195 11.4938 10.7227 11.9938 10.5477 12.5876H5.45391C5.16016 11.5845 4.22578 10.847 3.11328 10.847C1.76641 10.847 0.675781 11.9251 0.675781 13.2532C0.675781 14.5813 1.76641 15.6595 3.11328 15.6595C4.22578 15.6595 5.16016 14.9251 5.45391 13.9188H10.5445C10.8383 14.922 11.7727 15.6595 12.8852 15.6595C14.232 15.6595 15.3227 14.5813 15.3227 13.2532C15.3227 11.9407 14.2633 10.8751 12.9414 10.847Z" fill="white"/>
</g>
</g>
<defs>
<clipPath id="clip0_244_8372">
<rect width="16" height="16" fill="white"/>
</clipPath>
</defs>
</svg>
