<svg width="16" height="16" viewBox="0 0 16 16" fill="none" xmlns="http://www.w3.org/2000/svg">
<g id="billfold 1" clip-path="url(#clip0_234_3819)">
<path id="Vector" d="M13 10.6667C11.346 10.6667 10 9.32067 10 7.66667C10 6.01267 11.346 4.66667 13 4.66667H14.6667V3.83333C14.6667 2.822 13.8447 2 12.8333 2H1.83333C0.822 2 0 2.822 0 3.83333V12.1667C0 13.178 0.822 14 1.83333 14H12.8333C13.8447 14 14.6667 13.178 14.6667 12.1667V10.6667H13Z" fill="#6F73EE"/>
<path id="Vector_2" d="M15.5 5.6665H13C11.8973 5.6665 11 6.56384 11 7.6665C11 8.76917 11.8973 9.6665 13 9.6665H15.5C15.776 9.6665 16 9.4425 16 9.1665V6.1665C16 5.8905 15.776 5.6665 15.5 5.6665ZM13 8.33317C12.632 8.33317 12.3333 8.0345 12.3333 7.6665C12.3333 7.2985 12.632 6.99984 13 6.99984C13.368 6.99984 13.6667 7.2985 13.6667 7.6665C13.6667 8.0345 13.368 8.33317 13 8.33317Z" fill="#6F73EE"/>
</g>
<defs>
<clipPath id="clip0_234_3819">
<rect width="16" height="16" fill="white"/>
</clipPath>
</defs>
</svg>
