<svg width="16" height="16" viewBox="0 0 16 16" fill="none" xmlns="http://www.w3.org/2000/svg">
<g id="box 1" clip-path="url(#clip0_234_3822)">
<g id="Group">
<g id="Group_2">
<path id="Vector" d="M15.6457 3.95755C15.6457 3.94063 15.6457 3.94063 15.6457 3.92372C15.6288 3.88989 15.6288 3.85607 15.6119 3.82224V3.80533C15.595 3.77151 15.5612 3.73768 15.5443 3.72077L15.5273 3.70386C15.5104 3.68694 15.4766 3.67003 15.4597 3.65312L15.4428 3.63621H15.4259L15.409 3.61929L8.22111 0.0507378C8.08581 -0.0169126 7.91668 -0.0169126 7.76447 0.0507378L5.34597 1.25153L12.5676 4.95539L12.5846 4.9723C12.6015 4.9723 12.6015 4.98921 12.6184 4.98921C12.6353 5.00613 12.6353 5.02304 12.6522 5.03995C12.6522 5.05686 12.6522 5.05686 12.6522 5.07378V5.09069V9.01441C12.6522 9.08206 12.6184 9.1328 12.5676 9.16662L11.1132 9.92769C11.0286 9.97843 10.9271 9.9446 10.8764 9.86004C10.8595 9.84313 10.8595 9.8093 10.8595 9.77547V5.93632L3.55324 2.16481L3.53632 2.1479L0.610445 3.60238L0.593533 3.61929H0.57662L0.559707 3.63621C0.542795 3.65312 0.50897 3.67003 0.492057 3.68694L0.475144 3.70386C0.441319 3.73768 0.424407 3.77151 0.390582 3.80533V3.82224C0.373669 3.85607 0.356756 3.88989 0.356756 3.92372C0.356756 3.94063 0.356756 3.94063 0.356756 3.95755C0.356756 3.99137 0.339844 4.00828 0.339844 4.04211V4.05902V11.9403C0.339844 12.1263 0.441319 12.3124 0.627358 12.3969L7.74756 15.9486C7.84903 15.9993 7.96742 16.0162 8.08581 15.9824L8.11963 15.9655C8.15346 15.9655 8.17037 15.9486 8.2042 15.9317L15.3751 12.38C15.5443 12.2955 15.6626 12.1263 15.6626 11.9234V4.05902V4.04211C15.6457 4.00828 15.6457 3.99137 15.6457 3.95755Z" fill="#6F73EE"/>
</g>
</g>
</g>
<defs>
<clipPath id="clip0_234_3822">
<rect width="16" height="16" fill="white"/>
</clipPath>
</defs>
</svg>
