<svg width="22" height="22" viewBox="0 0 22 22" fill="none" xmlns="http://www.w3.org/2000/svg">
<g id="calendar 2" clip-path="url(#clip0_1251_20367)">
<g id="Group">
<g id="Group_2">
<path id="Vector" d="M19.8 2.2H18.7V1.1C18.7 0.44 18.26 0 17.6 0C16.94 0 16.5 0.44 16.5 1.1V2.2H5.5V1.1C5.5 0.44 5.06 0 4.4 0C3.74 0 3.3 0.44 3.3 1.1V2.2H1.1C0.55 2.2 0 2.64 0 3.3V18.7C0 19.36 0.55 19.8 1.1 19.8H7.81C7.04 18.48 6.6 16.94 6.6 15.4C6.6 10.56 10.56 6.6 15.4 6.6C17.49 6.6 19.36 7.37 20.9 8.58V3.3C20.9 2.75 20.35 2.2 19.8 2.2Z" fill="white"/>
</g>
</g>
<g id="Group_3">
<g id="Group_4">
<path id="Vector_2" d="M15.4008 8.80005C11.7708 8.80005 8.80078 11.7701 8.80078 15.4001C8.80078 19.0301 11.7708 22.0001 15.4008 22.0001C19.0308 22.0001 22.0008 19.0301 22.0008 15.4001C22.0008 11.7701 19.0308 8.80005 15.4008 8.80005ZM17.6008 16.5001H15.4008C14.7408 16.5001 14.3008 16.0601 14.3008 15.4001V12.1001C14.3008 11.4401 14.7408 11.0001 15.4008 11.0001C16.0608 11.0001 16.5008 11.4401 16.5008 12.1001V14.3001H17.6008C18.2608 14.3001 18.7008 14.7401 18.7008 15.4001C18.7008 16.0601 18.2608 16.5001 17.6008 16.5001Z" fill="white"/>
</g>
</g>
</g>
<defs>
<clipPath id="clip0_1251_20367">
<rect width="22" height="22" fill="white"/>
</clipPath>
</defs>
</svg>
