<svg width="17" height="17" viewBox="0 0 17 17" fill="none" xmlns="http://www.w3.org/2000/svg">
<path d="M11.6037 5.86035H10.8251C10.6558 5.86035 10.4948 5.9417 10.3952 6.08115L7.78538 9.70029L6.60334 8.06006C6.50373 7.92227 6.34435 7.83926 6.17336 7.83926H5.39474C5.28683 7.83926 5.22375 7.96211 5.28683 8.0501L7.35539 10.9188C7.40426 10.9871 7.46868 11.0426 7.54331 11.081C7.61795 11.1193 7.70064 11.1393 7.78455 11.1393C7.86845 11.1393 7.95115 11.1193 8.02578 11.081C8.10041 11.0426 8.16483 10.9871 8.2137 10.9188L11.71 6.07119C11.7747 5.9832 11.7117 5.86035 11.6037 5.86035Z" fill="#6F73EE"/>
<path d="M8.5 1.0625C4.39277 1.0625 1.0625 4.39277 1.0625 8.5C1.0625 12.6072 4.39277 15.9375 8.5 15.9375C12.6072 15.9375 15.9375 12.6072 15.9375 8.5C15.9375 4.39277 12.6072 1.0625 8.5 1.0625ZM8.5 14.6758C5.09004 14.6758 2.32422 11.91 2.32422 8.5C2.32422 5.09004 5.09004 2.32422 8.5 2.32422C11.91 2.32422 14.6758 5.09004 14.6758 8.5C14.6758 11.91 11.91 14.6758 8.5 14.6758Z" fill="#6F73EE"/>
</svg>
