<svg width="18" height="18" viewBox="0 0 18 18" fill="none" xmlns="http://www.w3.org/2000/svg">
<g id="Icon / Outlined / CheckCircle">
<path id="Vector" d="M12.2854 6.20508H11.461C11.2817 6.20508 11.1112 6.29121 11.0057 6.43887L8.24242 10.2709L6.99085 8.53418C6.88538 8.38828 6.71663 8.30039 6.53558 8.30039H5.71116C5.5969 8.30039 5.53011 8.43047 5.5969 8.52363L7.78714 11.5611C7.83889 11.6334 7.9071 11.6922 7.98612 11.7328C8.06514 11.7734 8.1527 11.7946 8.24154 11.7946C8.33038 11.7946 8.41794 11.7734 8.49696 11.7328C8.57599 11.6922 8.6442 11.6334 8.69594 11.5611L12.3979 6.42832C12.4665 6.33516 12.3997 6.20508 12.2854 6.20508Z" fill="white"/>
<path id="Vector_2" d="M9 1.125C4.65117 1.125 1.125 4.65117 1.125 9C1.125 13.3488 4.65117 16.875 9 16.875C13.3488 16.875 16.875 13.3488 16.875 9C16.875 4.65117 13.3488 1.125 9 1.125ZM9 15.5391C5.38945 15.5391 2.46094 12.6105 2.46094 9C2.46094 5.38945 5.38945 2.46094 9 2.46094C12.6105 2.46094 15.5391 5.38945 15.5391 9C15.5391 12.6105 12.6105 15.5391 9 15.5391Z" fill="white"/>
</g>
</svg>
