<svg width="16" height="16" viewBox="0 0 16 16" fill="none" xmlns="http://www.w3.org/2000/svg">
<g id="money 1" clip-path="url(#clip0_1251_20293)">
<g id="Group">
<g id="Group_2">
<path id="Vector" d="M0.218101 8.02052C0.0461068 8.08386 -0.0425462 8.27451 0.0201078 8.44716L0.229444 9.02314L1.82336 7.4292L0.218101 8.02052Z" fill="#6F73EE"/>
</g>
</g>
<g id="Group_3">
<g id="Group_4">
<path id="Vector_2" d="M1.72656 13.1406L2.68653 15.7805C2.71653 15.8639 2.77918 15.9319 2.85918 15.9685C2.90383 15.9892 2.95183 15.9999 2.99983 15.9999C3.03917 15.9999 3.07783 15.9932 3.11517 15.9792L4.17447 15.5886L1.72656 13.1406Z" fill="#6F73EE"/>
</g>
</g>
<g id="Group_5">
<g id="Group_6">
<path id="Vector_3" d="M15.9788 10.8868L14.8802 7.86621L12.2437 10.5028L13.5503 10.0214C13.7216 9.95611 13.9149 10.0454 13.9782 10.2188C14.0422 10.3914 13.9536 10.5834 13.7809 10.6468L12.121 11.2587C12.083 11.2727 12.0443 11.2794 12.0056 11.2794C11.8703 11.2794 11.7423 11.1961 11.693 11.0614C11.6923 11.0594 11.693 11.0574 11.6923 11.0554L8.89844 13.8493L15.7808 11.3134C15.9535 11.2501 16.0421 11.0594 15.9788 10.8868Z" fill="#6F73EE"/>
</g>
</g>
<g id="Group_7">
<g id="Group_8">
<path id="Vector_4" d="M15.9016 5.43066L10.5685 0.0974967C10.4385 -0.0324989 10.2271 -0.0324989 10.0971 0.0974967L0.0974965 10.0972C-0.0324988 10.2272 -0.0324988 10.4385 0.0974965 10.5685L5.43065 15.9016C5.4953 15.967 5.58064 15.9996 5.66598 15.9996C5.75132 15.9996 5.83663 15.967 5.90198 15.9023L15.9016 5.90264C16.0316 5.77199 16.0316 5.56131 15.9016 5.43066ZM3.90205 9.23587L2.56875 10.5691C2.50341 10.6338 2.4181 10.6665 2.33276 10.6665C2.24742 10.6665 2.16211 10.6338 2.09677 10.5691C1.96677 10.4391 1.96677 10.2278 2.09677 10.0978L3.43006 8.76451C3.56006 8.63452 3.7714 8.63452 3.90139 8.76451C4.03139 8.89454 4.03204 9.10519 3.90205 9.23587ZM9.6585 9.65917C9.4225 9.89516 9.10186 10.0085 8.74518 10.0085C8.15586 10.0085 7.46723 9.69986 6.89125 9.12319C6.46992 8.70186 6.17393 8.19788 6.05863 7.70458C5.93063 7.1546 6.03597 6.67596 6.35527 6.35597C6.6746 6.03598 7.15324 5.93064 7.70388 6.05933C8.19721 6.17466 8.70119 6.46997 9.12248 6.89195C10.0485 7.81723 10.2845 9.03319 9.6585 9.65917ZM13.9017 5.90264L12.5684 7.23594C12.503 7.3006 12.4177 7.33328 12.3324 7.33328C12.2471 7.33328 12.1618 7.30063 12.0964 7.23594C11.9664 7.10595 11.9664 6.89461 12.0964 6.76461L13.4297 5.43131C13.5597 5.30132 13.771 5.30132 13.901 5.43131C14.031 5.56131 14.0317 5.77199 13.9017 5.90264Z" fill="#6F73EE"/>
</g>
</g>
</g>
<defs>
<clipPath id="clip0_1251_20293">
<rect width="16" height="16" fill="white"/>
</clipPath>
</defs>
</svg>
