<svg width="20" height="20" viewBox="0 0 20 20" fill="none" xmlns="http://www.w3.org/2000/svg">
<g id="012-vk 1" clip-path="url(#clip0_238_4353)">
<path id="Vector" d="M16.5958 10.8568C16.2725 10.4485 16.365 10.2668 16.5958 9.90181C16.6 9.89764 19.2692 6.20931 19.5442 4.95848L19.5458 4.95764C19.6825 4.50181 19.5458 4.16681 18.885 4.16681H16.6983C16.1417 4.16681 15.885 4.45431 15.7475 4.77598C15.7475 4.77598 14.6342 7.44098 13.0592 9.16848C12.5508 9.66764 12.3158 9.82764 12.0383 9.82764C11.9017 9.82764 11.6892 9.66764 11.6892 9.21181V4.95764C11.6892 4.41098 11.5333 4.16681 11.0725 4.16681H7.63417C7.285 4.16681 7.0775 4.42181 7.0775 4.65931C7.0775 5.17764 7.865 5.29681 7.94667 6.75514V9.91931C7.94667 10.6126 7.82083 10.7401 7.54167 10.7401C6.79833 10.7401 4.99417 8.06431 3.925 5.00181C3.70917 4.40764 3.49833 4.16764 2.9375 4.16764H0.75C0.125833 4.16764 0 4.45514 0 4.77681C0 5.34514 0.743333 8.17098 3.45667 11.9043C5.265 14.4526 7.81167 15.8335 10.1283 15.8335C11.5208 15.8335 11.6908 15.5268 11.6908 14.9993C11.6908 12.5643 11.565 12.3343 12.2625 12.3343C12.5858 12.3343 13.1425 12.4943 14.4425 13.7235C15.9283 15.181 16.1725 15.8335 17.0042 15.8335H19.1908C19.8142 15.8335 20.13 15.5268 19.9483 14.9218C19.5325 13.6493 16.7225 11.0318 16.5958 10.8568Z" fill="white"/>
</g>
<defs>
<clipPath id="clip0_238_4353">
<rect width="20" height="20" fill="white"/>
</clipPath>
</defs>
</svg>
