<svg width="20" height="20" viewBox="0 0 20 20" fill="none" xmlns="http://www.w3.org/2000/svg">
<g id="018-youtube 1" clip-path="url(#clip0_238_4413)">
<path id="Vector" d="M0.436161 14.8951C0.844494 16.3434 2.09366 16.6084 2.17699 16.6593C4.23283 17.2193 15.7562 17.2209 17.8428 16.6593C19.272 16.2459 19.5345 14.9784 19.5837 14.8951C20.1278 12.0001 20.1637 8.22594 19.5587 4.94094L19.5837 5.10427C19.1753 3.65594 17.9262 3.39094 17.8428 3.3401C15.8145 2.78927 4.26116 2.76844 2.17699 3.3401C0.747827 3.75427 0.485327 5.02094 0.436161 5.10427C-0.146339 8.14677 -0.175506 11.6376 0.436161 14.8951ZM8.00783 13.0426V6.9651L13.2295 10.0084L8.00783 13.0426Z" fill="white"/>
</g>
<defs>
<clipPath id="clip0_238_4413">
<rect width="20" height="20" fill="white"/>
</clipPath>
</defs>
</svg>
