<svg width="19" height="19" viewBox="0 0 19 19" fill="none" xmlns="http://www.w3.org/2000/svg">
<g id="search 1" clip-path="url(#clip0_360_56951)">
<path id="Vector" d="M4.48918 11.3775L3.86262 13.7165L1.57258 13.7649C0.888195 12.4956 0.5 11.0432 0.5 9.49986C0.5 8.00744 0.862953 6.60006 1.50631 5.36084H1.5068L3.54559 5.73462L4.43869 7.76117C4.25177 8.30613 4.14989 8.89112 4.14989 9.49986C4.14996 10.1605 4.26963 10.7935 4.48918 11.3775Z" fill="#FBBB00"/>
<path id="Vector_2" d="M18.3402 7.8186C18.4436 8.36303 18.4975 8.92529 18.4975 9.49992C18.4975 10.1443 18.4297 10.7728 18.3006 11.3791C17.8625 13.4421 16.7177 15.2436 15.1319 16.5184L15.1314 16.5179L12.5634 16.3869L12.2 14.1181C13.2523 13.501 14.0747 12.5352 14.5079 11.3791H9.69531V7.8186H14.5781H18.3402Z" fill="#518EF8"/>
<path id="Vector_3" d="M15.1355 16.5181L15.136 16.5185C13.5937 17.7583 11.6344 18.5 9.50164 18.5C6.07422 18.5 3.09434 16.5843 1.57422 13.7651L4.49082 11.3777C5.25086 13.4061 7.20762 14.8501 9.50164 14.8501C10.4877 14.8501 11.4114 14.5835 12.2041 14.1182L15.1355 16.5181Z" fill="#28B446"/>
<path id="Vector_4" d="M15.2423 2.57197L12.3267 4.95894C11.5063 4.44615 10.5365 4.14992 9.49759 4.14992C7.15165 4.14992 5.15829 5.66013 4.43632 7.76131L1.5044 5.36099H1.50391C3.00177 2.47307 6.01923 0.5 9.49759 0.5C11.6813 0.5 13.6836 1.27787 15.2423 2.57197Z" fill="#F14336"/>
</g>
<defs>
<clipPath id="clip0_360_56951">
<rect width="18" height="18" fill="white" transform="translate(0.5 0.5)"/>
</clipPath>
</defs>
</svg>
