<svg width="23" height="23" viewBox="0 0 23 23" fill="none" xmlns="http://www.w3.org/2000/svg">
<g id="outlook 1" clip-path="url(#clip0_360_56988)">
<path id="Vector" d="M21.8125 5.31299H12.1875C11.808 5.31299 11.5 5.62099 11.5 6.00049C11.5 6.37999 11.808 6.68799 12.1875 6.68799H19.8091L15.5851 9.97286L12.556 8.04649L11.819 9.20699L15.2565 11.3932C15.3679 11.4647 15.4971 11.5005 15.625 11.5005C15.7735 11.5005 15.9234 11.4524 16.0471 11.3561L21.125 7.40574V16.313H12.1875C11.808 16.313 11.5 16.621 11.5 17.0005C11.5 17.38 11.808 17.688 12.1875 17.688H21.8125C22.192 17.688 22.5 17.38 22.5 17.0005V6.00049C22.5 5.62099 22.192 5.31299 21.8125 5.31299Z" fill="#1976D2"/>
<path id="Vector_2" d="M12.6261 1.34606C12.4694 1.21544 12.259 1.15906 12.061 1.20031L1.061 3.26281C0.735125 3.32331 0.5 3.60656 0.5 3.93794V19.0629C0.5 19.3929 0.735125 19.6776 1.061 19.7381L12.061 21.8006C12.1023 21.8088 12.1449 21.8129 12.1875 21.8129C12.347 21.8129 12.5024 21.7579 12.6261 21.6548C12.7843 21.5242 12.875 21.3289 12.875 21.1254V1.87544C12.875 1.67056 12.7843 1.47669 12.6261 1.34606Z" fill="#2196F3"/>
<path id="Vector_3" d="M6.6875 16.313C4.79275 16.313 3.25 14.4622 3.25 12.188C3.25 9.91373 4.79275 8.06299 6.6875 8.06299C8.58225 8.06299 10.125 9.91373 10.125 12.188C10.125 14.4622 8.58225 16.313 6.6875 16.313ZM6.6875 9.43799C5.55037 9.43799 4.625 10.6714 4.625 12.188C4.625 13.7046 5.55037 14.938 6.6875 14.938C7.82463 14.938 8.75 13.7046 8.75 12.188C8.75 10.6714 7.82463 9.43799 6.6875 9.43799Z" fill="#FAFAFA"/>
</g>
<defs>
<clipPath id="clip0_360_56988">
<rect width="22" height="22" fill="white" transform="translate(0.5 0.5)"/>
</clipPath>
</defs>
</svg>
