<svg width="23" height="23" viewBox="0 0 23 23" fill="none" xmlns="http://www.w3.org/2000/svg">
<g id="yahoo 1" clip-path="url(#clip0_360_57012)">
<path id="Vector" d="M22.1899 3.81252H22.1896H13.5408C13.4533 3.81252 13.3699 3.84943 13.3111 3.91418C13.2523 3.97898 13.2235 4.06543 13.2319 4.15262L13.4006 5.90114C13.4153 6.05377 13.5393 6.17271 13.6924 6.18113L15.4993 6.28056L12.0301 11.094L8.24696 3.5569L10.9782 3.45248C11.1434 3.44621 11.2745 3.31172 11.2766 3.1465L11.2965 1.58279C11.2975 1.49977 11.2653 1.41985 11.2071 1.36081C11.1488 1.30186 11.0693 1.26855 10.9864 1.26855H0.810234C0.638832 1.26855 0.5 1.40739 0.5 1.57883V3.32156C0.5 3.49116 0.636211 3.62934 0.805723 3.63179L3.68106 3.67321L9.14914 13.3192L9.12473 19.3436L5.32286 19.4996C5.15884 19.5063 5.02852 19.6397 5.02538 19.8037L4.99462 21.4153C4.99303 21.4986 5.02508 21.579 5.08352 21.6386C5.14179 21.698 5.22154 21.7314 5.30485 21.7314H17.197C17.2821 21.7314 17.3635 21.6965 17.4221 21.6348C17.4806 21.5731 17.5114 21.4901 17.5069 21.4051L17.4238 19.8096C17.4156 19.6509 17.2889 19.5242 17.1302 19.5159L13.8592 19.3444L13.383 13.4761L19.255 6.40091L21.6457 6.2922C21.7774 6.2861 21.8908 6.19759 21.9288 6.07139L22.4835 4.22296C22.4941 4.19163 22.5 4.15782 22.5 4.12275C22.5 3.95148 22.3613 3.81252 22.1899 3.81252Z" fill="#7F40BD"/>
</g>
<defs>
<clipPath id="clip0_360_57012">
<rect width="22" height="22" fill="white" transform="translate(0.5 0.5)"/>
</clipPath>
</defs>
</svg>
