<svg width="23" height="23" viewBox="0 0 23 23" fill="none" xmlns="http://www.w3.org/2000/svg">
<g id="yandex 1" clip-path="url(#clip0_360_56971)">
<path id="Vector" d="M16.1214 0.5H12.9957C9.82893 0.5 6.63352 2.83845 6.63352 8.06276C6.63352 10.7688 7.7804 12.8764 9.88277 14.075L6.03484 21.0399C5.85239 21.3693 5.84762 21.7426 6.02203 22.0385C6.19232 22.3274 6.50371 22.5 6.85468 22.5H8.80121C9.2434 22.5 9.58818 22.2863 9.75352 21.9118L13.3614 14.855H13.6247V21.6205C13.6247 22.0973 14.027 22.5 14.5032 22.5H16.2037C16.7378 22.5 17.1106 22.1271 17.1106 21.5932V1.46263C17.1107 0.895871 16.7039 0.5 16.1214 0.5ZM13.6247 11.7203H13.1602C11.3592 11.7203 10.284 10.2501 10.284 7.78763C10.284 4.72572 11.6422 3.63479 12.9134 3.63479H13.6247V11.7203Z" fill="#D7143A"/>
</g>
<defs>
<clipPath id="clip0_360_56971">
<rect width="22" height="22" fill="white" transform="translate(0.5 0.5)"/>
</clipPath>
</defs>
</svg>
