<svg width="20" height="20" viewBox="0 0 20 20" fill="none" xmlns="http://www.w3.org/2000/svg">
<g id="Icon / Outlined / Home">
<path id="Vector" d="M18.4884 9.86431L10.9415 2.32134L10.4356 1.81548C10.3204 1.70098 10.1645 1.63672 10.002 1.63672C9.83957 1.63672 9.6837 1.70098 9.56844 1.81548L1.51571 9.86431C1.3976 9.98195 1.30426 10.1221 1.2412 10.2764C1.17813 10.4307 1.14662 10.5961 1.14852 10.7627C1.15633 11.4502 1.7286 11.9991 2.4161 11.9991H3.24617V18.3604H16.7579V11.9991H17.6055C17.9395 11.9991 18.254 11.8682 18.4903 11.6319C18.6067 11.5159 18.6989 11.378 18.7616 11.2261C18.8243 11.0742 18.8562 10.9114 18.8555 10.7471C18.8555 10.4151 18.7247 10.1006 18.4884 9.86431ZM11.0958 16.9542H8.90828V12.9698H11.0958V16.9542ZM15.3516 10.5928V16.9542H12.3458V12.501C12.3458 12.0694 11.9962 11.7198 11.5645 11.7198H8.43953C8.00789 11.7198 7.65828 12.0694 7.65828 12.501V16.9542H4.65242V10.5928H2.77742L10.004 3.37212L10.4552 3.82329L17.2286 10.5928H15.3516Z" fill="#5D6C7B"/>
</g>
</svg>
