<svg width="20" height="20" viewBox="0 0 20 20" fill="none" xmlns="http://www.w3.org/2000/svg">
<g id="search-2 1">
<g id="layer1">
<path id="circle2017" d="M9.11556 1.60938C4.9833 1.60938 1.61719 4.97548 1.61719 9.10776C1.61719 13.24 4.9833 16.6127 9.11556 16.6127C10.8806 16.6127 12.5038 15.9941 13.7868 14.9671L16.9102 18.0889C17.0678 18.24 17.2783 18.3233 17.4966 18.3211C17.715 18.3189 17.9237 18.2312 18.0782 18.0769C18.2327 17.9227 18.3207 17.714 18.3232 17.4957C18.3257 17.2774 18.2427 17.0667 18.0918 16.9089L14.9684 13.7856C15.9963 12.5006 16.6156 10.8748 16.6156 9.10776C16.6156 4.97548 13.2478 1.60938 9.11556 1.60938ZM9.11556 3.27607C12.3471 3.27607 14.9473 5.87623 14.9473 9.10776C14.9473 12.3393 12.3471 14.946 9.11556 14.946C5.88403 14.946 3.28385 12.3393 3.28385 9.10776C3.28385 5.87623 5.88403 3.27607 9.11556 3.27607Z" fill="#5D6C7B"/>
</g>
</g>
</svg>
