<svg width="20" height="20" viewBox="0 0 20 20" fill="none" xmlns="http://www.w3.org/2000/svg">
<path d="M17.9951 5.51484C17.7344 4.90528 17.3586 4.35291 16.8886 3.88864C16.4182 3.42298 15.8637 3.05293 15.2551 2.79861C14.624 2.53385 13.9471 2.39833 13.2637 2.39992C12.305 2.39992 11.3696 2.66506 10.5568 3.16588C10.3623 3.28569 10.1775 3.41727 10.0025 3.56065C9.8275 3.41727 9.64276 3.28569 9.44829 3.16588C8.63542 2.66506 7.70004 2.39992 6.74132 2.39992C6.05096 2.39992 5.382 2.53347 4.74998 2.79861C4.13935 3.05393 3.58901 3.4212 3.11646 3.88864C2.64584 4.35239 2.2699 4.90489 2.00994 5.51484C1.73963 6.14922 1.60156 6.82287 1.60156 7.51617C1.60156 8.17019 1.7338 8.8517 1.99633 9.54499C2.21608 10.1244 2.53111 10.7254 2.93366 11.3322C3.57151 12.2926 4.44855 13.2943 5.53757 14.3097C7.34222 15.9929 9.12937 17.1555 9.20521 17.2027L9.6661 17.5012C9.87029 17.6328 10.1328 17.6328 10.337 17.5012L10.7979 17.2027C10.8737 17.1536 12.6589 15.9929 14.4655 14.3097C15.5545 13.2943 16.4316 12.2926 17.0694 11.3322C17.472 10.7254 17.789 10.1244 18.0068 9.54499C18.2693 8.8517 18.4015 8.17019 18.4015 7.51617C18.4035 6.82287 18.2654 6.14922 17.9951 5.51484ZM10.0025 15.9477C10.0025 15.9477 3.07951 11.4678 3.07951 7.51617C3.07951 5.51484 4.71886 3.89257 6.74132 3.89257C8.16287 3.89257 9.39579 4.69388 10.0025 5.86443C10.6093 4.69388 11.8422 3.89257 13.2637 3.89257C15.2862 3.89257 16.9255 5.51484 16.9255 7.51617C16.9255 11.4678 10.0025 15.9477 10.0025 15.9477Z" fill="#6F73EE"/>
<path d="M3.99986 4.00041C6.0995 2.60065 8.35221 3.39493 9.55275 4.17364C9.8961 4.02094 10.6335 3.80368 12 3.5C16.5 2.5 16.5 5 17.5 6.5C18.3 7.7 17.1667 10 16.5 11L9.99986 17L2.99986 10.5C2.3332 9.00014 1.59986 5.60041 3.99986 4.00041Z" fill="#6F73EE"/>
</svg>
