<svg width="191" height="86" viewBox="0 0 191 86" fill="none" xmlns="http://www.w3.org/2000/svg">
<rect x="1" width="190" height="76" rx="5" fill="white"/>
<rect x="1.5" y="0.5" width="189" height="75" rx="4.5" stroke="#5D6C7B" stroke-opacity="0.1"/>
<path d="M104.4 52.775H119.6V49.725H116.025L115.6 50.1H109.35L113.475 44.2V51.325L113.175 51.6V56H116.85V38.5H114.425L104.4 52.775ZM123.778 53.25L121.578 59.725L123.978 60.3L127.003 54.05L123.778 53.25ZM139.786 44.525C139.786 45.175 139.644 45.75 139.361 46.25C139.078 46.75 138.686 47.1417 138.186 47.425C137.703 47.7083 137.153 47.85 136.536 47.85C135.919 47.85 135.361 47.7083 134.861 47.425C134.378 47.1417 133.994 46.75 133.711 46.25C133.428 45.75 133.286 45.175 133.286 44.525C133.286 43.8583 133.428 43.2833 133.711 42.8C133.994 42.3 134.378 41.9167 134.861 41.65C135.361 41.3667 135.919 41.225 136.536 41.225C137.153 41.225 137.703 41.3667 138.186 41.65C138.686 41.9167 139.078 42.3 139.361 42.8C139.644 43.2833 139.786 43.8583 139.786 44.525ZM136.236 55.95L141.561 49C142.044 48.3667 142.453 47.6833 142.786 46.95C143.119 46.2 143.286 45.3917 143.286 44.525C143.286 43.1583 142.978 42 142.361 41.05C141.761 40.1 140.953 39.3833 139.936 38.9C138.919 38.4 137.786 38.15 136.536 38.15C135.286 38.15 134.153 38.4 133.136 38.9C132.119 39.3833 131.303 40.1 130.686 41.05C130.086 42 129.786 43.1583 129.786 44.525C129.786 45.375 129.936 46.15 130.236 46.85C130.536 47.55 130.936 48.15 131.436 48.65C131.953 49.15 132.528 49.5333 133.161 49.8C133.794 50.0667 134.444 50.2 135.111 50.2C135.728 50.2 136.253 50.1333 136.686 50C137.119 49.85 137.544 49.5583 137.961 49.125L137.336 49.35L131.711 55.95H136.236Z" fill="#282739"/>
<path d="M92 40L93.8474 44.4573L98.6574 44.8369L94.9892 47.9712L96.1145 52.6631L92 50.143L87.8855 52.6631L89.0108 47.9712L85.3426 44.8369L90.1526 44.4573L92 40Z" fill="#FFD12E"/>
<g opacity="0.5" filter="url(#filter0_f_183_149)">
<rect x="15" y="23" width="48" height="48" rx="5" fill="#FC3F1D"/>
</g>
<rect x="11" y="10" width="56" height="56" rx="5" fill="#FC3F1D"/>
<path d="M48 53H43.0066V27.9198H40.7769C36.6942 27.9198 34.5587 29.9912 34.5587 33.0824C34.5587 36.5879 36.0347 38.2132 39.081 40.2846L41.5934 42.0055L34.3702 53H29L35.5008 43.1846C31.7636 40.4758 29.6595 37.8308 29.6595 33.3692C29.6595 27.7923 33.4909 24 40.7455 24H47.9686V53H48Z" fill="white"/>
<path d="M89.26 22.86H88.12L85.12 27H86.38L89.26 22.86ZM90.76 18.6H89.74V27H90.76V18.6ZM90.196 19.5V18.6H88.48C87.944 18.6 87.46 18.704 87.028 18.912C86.596 19.112 86.252 19.4 85.996 19.776C85.748 20.152 85.624 20.6 85.624 21.12C85.624 21.632 85.748 22.08 85.996 22.464C86.252 22.84 86.596 23.132 87.028 23.34C87.46 23.54 87.944 23.64 88.48 23.64H90.196V22.74H88.48C88.12 22.74 87.8 22.676 87.52 22.548C87.248 22.42 87.032 22.236 86.872 21.996C86.72 21.756 86.644 21.464 86.644 21.12C86.644 20.776 86.72 20.484 86.872 20.244C87.032 20.004 87.248 19.82 87.52 19.692C87.8 19.564 88.12 19.5 88.48 19.5H90.196ZM93.1788 24.54H97.2588V23.64H93.1788V24.54ZM96.6348 21.48V27H97.5948V21.48H96.6348ZM92.6148 21.48V27H93.5748V21.48H92.6148ZM102.4 23.136L104.02 26.64H105.1L102.4 21.06L99.7 26.64H100.78L102.4 23.136ZM104.86 27V28.08H105.82V26.1H98.98V28.08H100V27H104.86ZM107.395 24.48H112.111C112.119 24.432 112.123 24.384 112.123 24.336C112.123 24.288 112.123 24.24 112.123 24.192C112.123 23.608 112.015 23.108 111.799 22.692C111.583 22.268 111.279 21.94 110.887 21.708C110.495 21.476 110.039 21.36 109.519 21.36C109.047 21.36 108.619 21.456 108.235 21.648C107.859 21.84 107.551 22.108 107.311 22.452C107.071 22.796 106.911 23.196 106.831 23.652C106.815 23.748 106.803 23.844 106.795 23.94C106.787 24.036 106.783 24.136 106.783 24.24C106.783 24.792 106.895 25.288 107.119 25.728C107.351 26.16 107.663 26.5 108.055 26.748C108.455 26.996 108.903 27.12 109.399 27.12C109.879 27.12 110.279 27.064 110.599 26.952C110.919 26.832 111.191 26.668 111.415 26.46C111.639 26.244 111.843 25.996 112.027 25.716L111.247 25.224C111.127 25.424 110.983 25.6 110.815 25.752C110.647 25.896 110.455 26.012 110.239 26.1C110.031 26.18 109.791 26.22 109.519 26.22C109.159 26.22 108.847 26.144 108.583 25.992C108.319 25.84 108.115 25.616 107.971 25.32C107.827 25.024 107.755 24.664 107.755 24.24L107.779 23.88C107.779 23.536 107.855 23.24 108.007 22.992C108.167 22.736 108.379 22.54 108.643 22.404C108.907 22.268 109.199 22.2 109.519 22.2C109.839 22.2 110.107 22.264 110.323 22.392C110.547 22.512 110.719 22.684 110.839 22.908C110.967 23.124 111.047 23.376 111.079 23.664H107.395V24.48ZM113.379 21.48V27H114.339V21.48H113.379ZM116.379 21.48L113.979 23.76L116.619 27H117.819L115.179 23.76L117.579 21.48H116.379ZM118.98 24.24C118.98 23.856 119.06 23.516 119.22 23.22C119.388 22.916 119.612 22.68 119.892 22.512C120.18 22.344 120.504 22.26 120.864 22.26C121.16 22.26 121.436 22.308 121.692 22.404C121.956 22.492 122.184 22.612 122.376 22.764C122.568 22.916 122.704 23.084 122.784 23.268V22.068C122.592 21.844 122.316 21.672 121.956 21.552C121.604 21.424 121.24 21.36 120.864 21.36C120.328 21.36 119.844 21.484 119.412 21.732C118.98 21.98 118.636 22.32 118.38 22.752C118.132 23.184 118.008 23.68 118.008 24.24C118.008 24.792 118.132 25.288 118.38 25.728C118.636 26.16 118.98 26.5 119.412 26.748C119.844 26.996 120.328 27.12 120.864 27.12C121.24 27.12 121.604 27.06 121.956 26.94C122.316 26.812 122.592 26.636 122.784 26.412V25.212C122.704 25.388 122.568 25.556 122.376 25.716C122.184 25.868 121.956 25.992 121.692 26.088C121.436 26.176 121.16 26.22 120.864 26.22C120.504 26.22 120.18 26.136 119.892 25.968C119.612 25.792 119.388 25.556 119.22 25.26C119.06 24.964 118.98 24.624 118.98 24.24ZM127.397 24.24C127.397 24.792 127.521 25.288 127.769 25.728C128.025 26.16 128.369 26.5 128.801 26.748C129.233 26.996 129.717 27.12 130.253 27.12C130.797 27.12 131.281 26.996 131.705 26.748C132.137 26.5 132.477 26.16 132.725 25.728C132.981 25.288 133.109 24.792 133.109 24.24C133.109 23.68 132.981 23.184 132.725 22.752C132.477 22.32 132.137 21.98 131.705 21.732C131.281 21.484 130.797 21.36 130.253 21.36C129.717 21.36 129.233 21.484 128.801 21.732C128.369 21.98 128.025 22.32 127.769 22.752C127.521 23.184 127.397 23.68 127.397 24.24ZM128.369 24.24C128.369 23.856 128.449 23.516 128.609 23.22C128.777 22.916 129.001 22.68 129.281 22.512C129.569 22.344 129.893 22.26 130.253 22.26C130.613 22.26 130.933 22.344 131.213 22.512C131.501 22.68 131.725 22.916 131.885 23.22C132.053 23.516 132.137 23.856 132.137 24.24C132.137 24.624 132.053 24.964 131.885 25.26C131.725 25.556 131.501 25.792 131.213 25.968C130.933 26.136 130.613 26.22 130.253 26.22C129.893 26.22 129.569 26.136 129.281 25.968C129.001 25.792 128.777 25.556 128.609 25.26C128.449 24.964 128.369 24.624 128.369 24.24ZM133.587 21.48V22.38H136.827V21.48H133.587ZM134.727 21.72V27H135.687V21.72H134.727ZM139.747 24.24C140.379 24.24 140.871 24.108 141.223 23.844C141.583 23.58 141.763 23.248 141.763 22.848C141.763 22.576 141.679 22.328 141.511 22.104C141.351 21.88 141.127 21.7 140.839 21.564C140.551 21.428 140.227 21.36 139.867 21.36C139.483 21.36 139.139 21.44 138.835 21.6C138.531 21.752 138.291 21.96 138.115 22.224C137.939 22.488 137.851 22.776 137.851 23.088H138.823C138.823 22.96 138.859 22.832 138.931 22.704C139.003 22.568 139.115 22.456 139.267 22.368C139.427 22.272 139.627 22.224 139.867 22.224C140.155 22.224 140.379 22.288 140.539 22.416C140.699 22.536 140.779 22.704 140.779 22.92C140.779 23.12 140.699 23.292 140.539 23.436C140.379 23.572 140.115 23.64 139.747 23.64V24.24ZM139.843 27.12C140.235 27.12 140.595 27.052 140.923 26.916C141.251 26.772 141.511 26.572 141.703 26.316C141.903 26.052 142.003 25.74 142.003 25.38C142.003 24.86 141.799 24.48 141.391 24.24C140.983 24 140.435 23.88 139.747 23.88V24.48C140.027 24.48 140.263 24.516 140.455 24.588C140.655 24.66 140.803 24.764 140.899 24.9C141.003 25.036 141.055 25.2 141.055 25.392C141.055 25.568 141.007 25.724 140.911 25.86C140.815 25.996 140.675 26.1 140.491 26.172C140.315 26.244 140.099 26.28 139.843 26.28C139.427 26.28 139.127 26.176 138.943 25.968C138.759 25.76 138.639 25.524 138.583 25.26H137.611C137.675 25.796 137.899 26.24 138.283 26.592C138.675 26.944 139.195 27.12 139.843 27.12ZM148.419 21.48V27H149.379V21.48H148.419ZM143.439 21.48V27H144.399V21.48H143.439ZM144.003 24.408H145.719C146.071 24.408 146.335 24.484 146.511 24.636C146.687 24.788 146.775 25.004 146.775 25.284C146.775 25.468 146.735 25.628 146.655 25.764C146.575 25.892 146.455 25.992 146.295 26.064C146.143 26.128 145.951 26.16 145.719 26.16H144.003V27H145.719C146.103 27 146.447 26.94 146.751 26.82C147.055 26.7 147.295 26.512 147.471 26.256C147.647 26 147.735 25.676 147.735 25.284C147.735 24.692 147.539 24.26 147.147 23.988C146.763 23.708 146.287 23.568 145.719 23.568H144.003V24.408ZM151.737 24.12V24.624H153.333C153.517 24.624 153.673 24.644 153.801 24.684C153.937 24.716 154.045 24.768 154.125 24.84C154.213 24.912 154.277 24.992 154.317 25.08C154.365 25.168 154.389 25.268 154.389 25.38C154.389 25.596 154.301 25.78 154.125 25.932C153.957 26.084 153.693 26.16 153.333 26.16H151.737V27H153.573C154.205 27 154.657 26.856 154.929 26.568C155.209 26.272 155.349 25.916 155.349 25.5C155.349 25.14 155.261 24.86 155.085 24.66C154.909 24.46 154.669 24.32 154.365 24.24C154.061 24.16 153.717 24.12 153.333 24.12H151.737ZM151.737 24.36H153.213C153.557 24.36 153.869 24.312 154.149 24.216C154.437 24.112 154.669 23.96 154.845 23.76C155.021 23.552 155.109 23.292 155.109 22.98C155.109 22.62 155.021 22.332 154.845 22.116C154.669 21.892 154.437 21.732 154.149 21.636C153.869 21.532 153.557 21.48 153.213 21.48H151.737V22.32H153.213C153.501 22.32 153.729 22.388 153.897 22.524C154.065 22.652 154.149 22.824 154.149 23.04C154.149 23.144 154.125 23.244 154.077 23.34C154.037 23.428 153.977 23.508 153.897 23.58C153.817 23.652 153.717 23.708 153.597 23.748C153.485 23.78 153.357 23.796 153.213 23.796H151.737V24.36ZM151.173 21.48V27H152.133V21.48H151.173ZM161.591 21.48V27H162.551V21.48H161.591ZM156.611 21.48V27H157.571V21.48H156.611ZM157.175 24.408H158.891C159.243 24.408 159.507 24.484 159.683 24.636C159.859 24.788 159.947 25.004 159.947 25.284C159.947 25.468 159.907 25.628 159.827 25.764C159.747 25.892 159.627 25.992 159.467 26.064C159.315 26.128 159.123 26.16 158.891 26.16H157.175V27H158.891C159.275 27 159.619 26.94 159.923 26.82C160.227 26.7 160.467 26.512 160.643 26.256C160.819 26 160.907 25.676 160.907 25.284C160.907 24.692 160.711 24.26 160.319 23.988C159.935 23.708 159.459 23.568 158.891 23.568H157.175V24.408Z" fill="#5D6C7B"/>
<defs>
<filter id="filter0_f_183_149" x="0" y="8" width="78" height="78" filterUnits="userSpaceOnUse" color-interpolation-filters="sRGB">
<feFlood flood-opacity="0" result="BackgroundImageFix"/>
<feBlend mode="normal" in="SourceGraphic" in2="BackgroundImageFix" result="shape"/>
<feGaussianBlur stdDeviation="7.5" result="effect1_foregroundBlur_183_149"/>
</filter>
</defs>
</svg>
