<svg width="15" height="15" viewBox="0 0 15 15" fill="none" xmlns="http://www.w3.org/2000/svg">
<g id="Icon / Filled / Environment">
<path id="Vector" d="M7.5 4.79004C7.06201 4.79004 6.65039 4.95996 6.33984 5.27051C6.18724 5.42267 6.06623 5.60351 5.98377 5.80261C5.90132 6.00172 5.85904 6.21516 5.85938 6.43066C5.85938 6.86865 6.03076 7.28027 6.33984 7.59082C6.49201 7.74342 6.67285 7.86443 6.87195 7.94689C7.07105 8.02935 7.2845 8.07162 7.5 8.07129C7.93799 8.07129 8.34961 7.8999 8.66016 7.59082C8.9707 7.28027 9.14062 6.86865 9.14062 6.43066C9.14062 5.99268 8.9707 5.58105 8.66016 5.27051C8.34961 4.95996 7.93799 4.79004 7.5 4.79004ZM12.5186 4.23486C12.2428 3.59895 11.8452 3.02317 11.3481 2.54004C10.8495 2.05254 10.2617 1.66561 9.6167 1.40039C8.9458 1.12207 8.23389 0.981445 7.5 0.981445C6.76611 0.981445 6.0542 1.12207 5.3833 1.39893C4.73438 1.66699 4.15283 2.05078 3.65186 2.53857C3.15516 3.02198 2.75759 3.59769 2.48145 4.2334C2.1958 4.89258 2.05078 5.59277 2.05078 6.31348C2.05078 7.34766 2.29834 8.37744 2.78467 9.37061C3.17578 10.1689 3.72217 10.9468 4.41064 11.6865C5.58691 12.9492 6.82031 13.7212 7.17041 13.9277C7.26978 13.9864 7.38312 14.0173 7.49854 14.0171C7.61279 14.0171 7.72559 13.9878 7.82666 13.9277C8.17676 13.7212 9.41016 12.9492 10.5864 11.6865C11.2749 10.9482 11.8213 10.1689 12.2124 9.37061C12.7017 8.37891 12.9492 7.35059 12.9492 6.31494C12.9492 5.59424 12.8042 4.89404 12.5186 4.23486ZM7.5 9.00879C6.07617 9.00879 4.92188 7.85449 4.92188 6.43066C4.92188 5.00684 6.07617 3.85254 7.5 3.85254C8.92383 3.85254 10.0781 5.00684 10.0781 6.43066C10.0781 7.85449 8.92383 9.00879 7.5 9.00879Z" fill="#5D6C7B"/>
</g>
</svg>
