<svg width="20" height="20" viewBox="0 0 20 20" fill="none" xmlns="http://www.w3.org/2000/svg">
<g id="balance 2">
<g id="Group">
<g id="Group_2">
<g id="Vector">
<mask id="path-1-inside-1_262_7691" fill="white">
<path d="M19.4141 11.2638H18.7766L16.7349 6.32541C17.0208 6.2865 17.2413 6.04205 17.2413 5.74549C17.2413 5.42189 16.979 5.15955 16.6554 5.15955H11.6177C11.3769 4.49076 10.7363 4.01123 9.98559 4.01123C9.23488 4.01123 8.59422 4.4908 8.3534 5.15955H3.34465C3.02105 5.15955 2.75871 5.42189 2.75871 5.74549C2.75871 6.04205 2.97926 6.2865 3.26512 6.32541L1.22344 11.2638H0.585938C0.262344 11.2638 0 11.5262 0 11.8497C0 14.1319 1.85668 15.9886 4.13883 15.9886C6.42098 15.9886 8.27766 14.1319 8.27766 11.8497C8.27766 11.5262 8.01531 11.2638 7.69172 11.2638H7.05418L5.01504 6.33143H8.3534C8.59422 7.00022 9.23484 7.47975 9.98559 7.47975C10.7363 7.47975 11.3769 7.00022 11.6177 6.33143H14.985L12.9459 11.2638H12.3083C11.9847 11.2638 11.7224 11.5262 11.7224 11.8497C11.7224 14.1319 13.5791 15.9886 15.8612 15.9886C18.1434 15.9886 20 14.1319 20 11.8497C20 11.5262 19.7377 11.2638 19.4141 11.2638ZM4.13883 14.8167C2.70332 14.8167 1.5027 13.7921 1.22996 12.4357H7.0477C6.77496 13.7921 5.57434 14.8167 4.13883 14.8167ZM5.78613 11.2638H2.49152L4.13883 7.27928L5.78613 11.2638ZM9.98555 6.30787C9.67543 6.30787 9.42316 6.05561 9.42316 5.74549C9.42316 5.43537 9.67543 5.18311 9.98555 5.18311C10.2956 5.18311 10.5479 5.43537 10.5479 5.74549C10.5479 6.05561 10.2957 6.30787 9.98555 6.30787ZM15.8612 7.27928L17.5085 11.2638H14.2139L15.8612 7.27928ZM15.8612 14.8167C14.4257 14.8167 13.225 13.7921 12.9523 12.4357H18.77C18.4973 13.7921 17.2966 14.8167 15.8612 14.8167Z"/>
</mask>
<path d="M19.4141 11.2638H18.7766L16.7349 6.32541C17.0208 6.2865 17.2413 6.04205 17.2413 5.74549C17.2413 5.42189 16.979 5.15955 16.6554 5.15955H11.6177C11.3769 4.49076 10.7363 4.01123 9.98559 4.01123C9.23488 4.01123 8.59422 4.4908 8.3534 5.15955H3.34465C3.02105 5.15955 2.75871 5.42189 2.75871 5.74549C2.75871 6.04205 2.97926 6.2865 3.26512 6.32541L1.22344 11.2638H0.585938C0.262344 11.2638 0 11.5262 0 11.8497C0 14.1319 1.85668 15.9886 4.13883 15.9886C6.42098 15.9886 8.27766 14.1319 8.27766 11.8497C8.27766 11.5262 8.01531 11.2638 7.69172 11.2638H7.05418L5.01504 6.33143H8.3534C8.59422 7.00022 9.23484 7.47975 9.98559 7.47975C10.7363 7.47975 11.3769 7.00022 11.6177 6.33143H14.985L12.9459 11.2638H12.3083C11.9847 11.2638 11.7224 11.5262 11.7224 11.8497C11.7224 14.1319 13.5791 15.9886 15.8612 15.9886C18.1434 15.9886 20 14.1319 20 11.8497C20 11.5262 19.7377 11.2638 19.4141 11.2638ZM4.13883 14.8167C2.70332 14.8167 1.5027 13.7921 1.22996 12.4357H7.0477C6.77496 13.7921 5.57434 14.8167 4.13883 14.8167ZM5.78613 11.2638H2.49152L4.13883 7.27928L5.78613 11.2638ZM9.98555 6.30787C9.67543 6.30787 9.42316 6.05561 9.42316 5.74549C9.42316 5.43537 9.67543 5.18311 9.98555 5.18311C10.2956 5.18311 10.5479 5.43537 10.5479 5.74549C10.5479 6.05561 10.2957 6.30787 9.98555 6.30787ZM15.8612 7.27928L17.5085 11.2638H14.2139L15.8612 7.27928ZM15.8612 14.8167C14.4257 14.8167 13.225 13.7921 12.9523 12.4357H18.77C18.4973 13.7921 17.2966 14.8167 15.8612 14.8167Z" fill="#282739"/>
<path d="M18.7766 11.2638L15.08 12.792L16.1019 15.2638H18.7766V11.2638ZM16.7349 6.32541L16.1956 2.36194L11.0571 3.06121L13.0384 7.85364L16.7349 6.32541ZM11.6177 5.15955L7.85429 6.51471L8.80665 9.15955H11.6177V5.15955ZM8.3534 5.15955V9.15955H11.1644L12.1168 6.51478L8.3534 5.15955ZM3.26512 6.32541L6.96166 7.85367L8.94296 3.0613L3.80455 2.36195L3.26512 6.32541ZM1.22344 11.2638V15.2638H3.89809L4.91998 12.7921L1.22344 11.2638ZM7.05418 11.2638L3.35762 12.792L4.3795 15.2638H7.05418V11.2638ZM5.01504 6.33143V2.33143H-0.966991L1.31848 7.85965L5.01504 6.33143ZM8.3534 6.33143L12.1168 4.97627L11.1645 2.33143H8.3534V6.33143ZM11.6177 6.33143V2.33143H8.80665L7.85429 4.97627L11.6177 6.33143ZM14.985 6.33143L18.6816 7.85965L20.967 2.33143H14.985V6.33143ZM12.9459 11.2638V15.2638H15.6205L16.6424 12.792L12.9459 11.2638ZM1.22996 12.4357V8.43568H-3.65441L-2.69155 13.2242L1.22996 12.4357ZM7.0477 12.4357L10.9692 13.2242L11.9321 8.43568H7.0477V12.4357ZM5.78613 11.2638V15.2638H11.7682L9.48268 9.73556L5.78613 11.2638ZM2.49152 11.2638L-1.20502 9.73556L-3.49054 15.2638H2.49152V11.2638ZM4.13883 7.27928L7.83538 5.75103L4.13883 -3.19025L0.44228 5.75103L4.13883 7.27928ZM15.8612 7.27928L19.5577 5.75103L15.8612 -3.19025L12.1646 5.75103L15.8612 7.27928ZM17.5085 11.2638V15.2638H23.4905L21.205 9.73556L17.5085 11.2638ZM14.2139 11.2638L10.5173 9.73556L8.2318 15.2638H14.2139V11.2638ZM12.9523 12.4357V8.43568H8.06793L9.0308 13.2242L12.9523 12.4357ZM18.77 12.4357L22.6915 13.2242L23.6544 8.43568H18.77V12.4357ZM19.4141 7.26381H18.7766V15.2638H19.4141V7.26381ZM22.4731 9.73557L20.4315 4.79718L13.0384 7.85364L15.08 12.792L22.4731 9.73557ZM17.2743 10.2889C19.5083 9.98487 21.2413 8.07722 21.2413 5.74549H13.2413C13.2413 4.00688 14.5334 2.58814 16.1956 2.36194L17.2743 10.2889ZM21.2413 5.74549C21.2413 3.21276 19.1881 1.15955 16.6554 1.15955V9.15955C14.7698 9.15955 13.2413 7.63103 13.2413 5.74549H21.2413ZM16.6554 1.15955H11.6177V9.15955H16.6554V1.15955ZM15.3812 3.80439C14.5889 1.60401 12.4809 0.0112305 9.98559 0.0112305V8.01123C8.99163 8.01123 8.16497 7.37751 7.85429 6.51471L15.3812 3.80439ZM9.98559 0.0112305C7.49022 0.0112305 5.38231 1.60405 4.58997 3.80432L12.1168 6.51478C11.8061 7.37756 10.9795 8.01123 9.98559 8.01123V0.0112305ZM8.3534 1.15955H3.34465V9.15955H8.3534V1.15955ZM3.34465 1.15955C0.811916 1.15955 -1.24129 3.21276 -1.24129 5.74549H6.75871C6.75871 7.63103 5.23019 9.15955 3.34465 9.15955V1.15955ZM-1.24129 5.74549C-1.24129 8.07746 0.492035 9.98486 2.72568 10.2889L3.80455 2.36195C5.46648 2.58814 6.75871 4.00664 6.75871 5.74549H-1.24129ZM-0.431425 4.79715L-2.4731 9.73555L4.91998 12.7921L6.96166 7.85367L-0.431425 4.79715ZM1.22344 7.26381H0.585938V15.2638H1.22344V7.26381ZM0.585938 7.26381C-1.9468 7.26381 -4 9.31701 -4 11.8497H4C4 13.7353 2.47148 15.2638 0.585938 15.2638V7.26381ZM-4 11.8497C-4 16.341 -0.352459 19.9886 4.13883 19.9886V11.9886C4.11514 11.9886 4.10112 11.9845 4.08983 11.9798C4.07582 11.9738 4.05865 11.9632 4.04204 11.9465C4.02542 11.9299 4.01476 11.9128 4.00882 11.8987C4.00404 11.8875 4 11.8734 4 11.8497H-4ZM4.13883 19.9886C8.63012 19.9886 12.2777 16.341 12.2777 11.8497H4.27766C4.27766 11.8734 4.27362 11.8875 4.26883 11.8987C4.2629 11.9128 4.25223 11.9299 4.23562 11.9465C4.21901 11.9632 4.20183 11.9738 4.18783 11.9798C4.17654 11.9845 4.16251 11.9886 4.13883 11.9886V19.9886ZM12.2777 11.8497C12.2777 9.31701 10.2245 7.26381 7.69172 7.26381V15.2638C5.80617 15.2638 4.27766 13.7353 4.27766 11.8497H12.2777ZM7.69172 7.26381H7.05418V15.2638H7.69172V7.26381ZM10.7507 9.73558L8.71159 4.8032L1.31848 7.85965L3.35762 12.792L10.7507 9.73558ZM5.01504 10.3314H8.3534V2.33143H5.01504V10.3314ZM4.58995 7.68658C5.38229 9.88702 7.49024 11.4797 9.98559 11.4797V3.47975C10.9795 3.47975 11.8061 4.11341 12.1168 4.97627L4.58995 7.68658ZM9.98559 11.4797C12.4809 11.4797 14.5889 9.88696 15.3812 7.68658L7.85429 4.97627C8.16497 4.11347 8.99163 3.47975 9.98559 3.47975V11.4797ZM11.6177 10.3314H14.985V2.33143H11.6177V10.3314ZM11.2884 4.8032L9.2493 9.73558L16.6424 12.792L18.6816 7.85965L11.2884 4.8032ZM12.9459 7.26381H12.3083V15.2638H12.9459V7.26381ZM12.3083 7.26381C9.77559 7.26381 7.72238 9.31701 7.72238 11.8497H15.7224C15.7224 13.7353 14.1939 15.2638 12.3083 15.2638V7.26381ZM7.72238 11.8497C7.72238 16.341 11.3699 19.9886 15.8612 19.9886V11.9886C15.8375 11.9886 15.8235 11.9845 15.8122 11.9798C15.7982 11.9738 15.781 11.9632 15.7644 11.9465C15.7478 11.9299 15.7371 11.9128 15.7312 11.8987C15.7264 11.8875 15.7224 11.8734 15.7224 11.8497H7.72238ZM15.8612 19.9886C20.3525 19.9886 24 16.341 24 11.8497H16C16 11.8734 15.996 11.8875 15.9912 11.8988C15.9852 11.9128 15.9746 11.9299 15.958 11.9466C15.9414 11.9632 15.9242 11.9738 15.9102 11.9798C15.8989 11.9845 15.8849 11.9886 15.8612 11.9886V19.9886ZM24 11.8497C24 9.31701 21.9468 7.26381 19.4141 7.26381V15.2638C17.5285 15.2638 16 13.7353 16 11.8497H24ZM4.13883 10.8167C4.64856 10.8167 5.05659 11.1753 5.15147 11.6472L-2.69155 13.2242C-2.0512 16.4088 0.758084 18.8167 4.13883 18.8167V10.8167ZM1.22996 16.4357H7.0477V8.43568H1.22996V16.4357ZM3.12619 11.6472C3.22107 11.1753 3.6291 10.8167 4.13883 10.8167V18.8167C7.51957 18.8167 10.3289 16.4088 10.9692 13.2242L3.12619 11.6472ZM5.78613 7.26381H2.49152V15.2638H5.78613V7.26381ZM6.18807 12.7921L7.83538 8.80752L0.44228 5.75103L-1.20502 9.73556L6.18807 12.7921ZM0.44228 8.80752L2.08958 12.7921L9.48268 9.73556L7.83538 5.75103L0.44228 8.80752ZM9.98555 2.30787C11.8846 2.30787 13.4232 3.84646 13.4232 5.74549H5.42316C5.42316 8.26475 7.46629 10.3079 9.98555 10.3079V2.30787ZM13.4232 5.74549C13.4232 7.64451 11.8846 9.18311 9.98555 9.18311V1.18311C7.46629 1.18311 5.42316 3.22623 5.42316 5.74549H13.4232ZM9.98555 9.18311C8.08667 9.18311 6.54793 7.64469 6.54793 5.74549H14.5479C14.5479 3.22605 12.5046 1.18311 9.98555 1.18311V9.18311ZM6.54793 5.74549C6.54793 3.84646 8.08653 2.30787 9.98555 2.30787V10.3079C12.5048 10.3079 14.5479 8.26475 14.5479 5.74549H6.54793ZM12.1646 8.80752L13.8119 12.7921L21.205 9.73556L19.5577 5.75103L12.1646 8.80752ZM17.5085 7.26381H14.2139V15.2638H17.5085V7.26381ZM17.9104 12.7921L19.5577 8.80752L12.1646 5.75103L10.5173 9.73556L17.9104 12.7921ZM15.8612 10.8167C16.3709 10.8167 16.7789 11.1753 16.8738 11.6472L9.0308 13.2242C9.67114 16.4088 12.4804 18.8167 15.8612 18.8167V10.8167ZM12.9523 16.4357H18.77V8.43568H12.9523V16.4357ZM14.8485 11.6472C14.9434 11.1753 15.3514 10.8167 15.8612 10.8167V18.8167C19.2418 18.8167 22.0512 16.4088 22.6915 13.2242L14.8485 11.6472Z" fill="#282739" mask="url(#path-1-inside-1_262_7691)"/>
</g>
</g>
</g>
</g>
</svg>
