<svg width="20" height="20" viewBox="0 0 20 20" fill="none" xmlns="http://www.w3.org/2000/svg">
<g id="share 1" clip-path="url(#clip0_262_7706)">
<path id="Vector" d="M15.4228 13.4529C14.4645 13.4529 13.6012 13.8667 13.002 14.525L7.61244 11.187C7.75633 10.8186 7.83614 10.4185 7.83614 9.99998C7.83614 9.58128 7.75633 9.1812 7.61244 8.813L13.002 5.47484C13.6012 6.13311 14.4645 6.54708 15.4228 6.54708C17.2279 6.54708 18.6964 5.07857 18.6964 3.27346C18.6964 1.46835 17.2279 0 15.4228 0C13.6177 0 12.1492 1.4685 12.1492 3.27361C12.1492 3.69216 12.2291 4.09225 12.3729 4.46059L6.98348 7.7986C6.38427 7.14034 5.52093 6.72637 4.56268 6.72637C2.75757 6.72637 1.28906 8.19502 1.28906 9.99998C1.28906 11.8051 2.75757 13.2736 4.56268 13.2736C5.52093 13.2736 6.38427 12.8598 6.98348 12.2014L12.3729 15.5394C12.2291 15.9077 12.1492 16.3078 12.1492 16.7265C12.1492 18.5315 13.6177 20 15.4228 20C17.2279 20 18.6964 18.5315 18.6964 16.7265C18.6964 14.9214 17.2279 13.4529 15.4228 13.4529ZM13.3429 3.27361C13.3429 2.12677 14.2759 1.19369 15.4228 1.19369C16.5696 1.19369 17.5027 2.12677 17.5027 3.27361C17.5027 4.42046 16.5696 5.35354 15.4228 5.35354C14.2759 5.35354 13.3429 4.42046 13.3429 3.27361ZM4.56268 12.0799C3.41568 12.0799 2.4826 11.1468 2.4826 9.99998C2.4826 8.85313 3.41568 7.92006 4.56268 7.92006C5.70952 7.92006 6.64245 8.85313 6.64245 9.99998C6.64245 11.1468 5.70952 12.0799 4.56268 12.0799ZM13.3429 16.7263C13.3429 15.5795 14.2759 14.6464 15.4228 14.6464C16.5696 14.6464 17.5027 15.5795 17.5027 16.7263C17.5027 17.8732 16.5696 18.8063 15.4228 18.8063C14.2759 18.8063 13.3429 17.8732 13.3429 16.7263Z" fill="#282739"/>
</g>
<defs>
<clipPath id="clip0_262_7706">
<rect width="20" height="20" fill="white"/>
</clipPath>
</defs>
</svg>
