<svg width="15" height="15" viewBox="0 0 15 15" fill="none" xmlns="http://www.w3.org/2000/svg">
<path d="M13.8643 7.39823L8.20416 1.741L7.82477 1.36161C7.73832 1.27574 7.62142 1.22754 7.49957 1.22754C7.37772 1.22754 7.26082 1.27574 7.17438 1.36161L1.13483 7.39823C1.04625 7.48646 0.976245 7.59155 0.928946 7.70728C0.881647 7.82301 0.858012 7.94704 0.859436 8.07206C0.865295 8.58768 1.29449 8.9993 1.81012 8.9993H2.43268V13.7703H12.5665V8.9993H13.2022C13.4527 8.9993 13.6885 8.90116 13.8658 8.72391C13.9531 8.63692 14.0222 8.53347 14.0692 8.41957C14.1162 8.30567 14.1402 8.18357 14.1397 8.06034C14.1397 7.81132 14.0416 7.57548 13.8643 7.39823ZM8.31988 12.7156H6.67926V9.72733H8.31988V12.7156ZM11.5118 7.94462V12.7156H9.25739V9.37577C9.25739 9.05204 8.99518 8.78983 8.67145 8.78983H6.3277C6.00397 8.78983 5.74176 9.05204 5.74176 9.37577V12.7156H3.48737V7.94462H2.08112L7.50104 2.52909L7.83942 2.86747L12.9195 7.94462H11.5118Z" fill="#5D6C7B"/>
</svg>
