<svg width="16" height="16" viewBox="0 0 16 16" fill="none" xmlns="http://www.w3.org/2000/svg">
<g id="gear 1" clip-path="url(#clip0_221_20861)">
<path id="Vector" d="M15.6235 6.17822L14.3938 5.91089C14.2869 5.5835 14.1544 5.26416 13.998 4.95654L14.6788 3.89758C14.8004 3.70837 14.7737 3.45996 14.6147 3.30103L12.699 1.38525C12.54 1.22632 12.2916 1.19958 12.1024 1.32117L11.0435 2.00195C10.7358 1.84558 10.4165 1.71313 10.0891 1.6062L9.82178 0.376465C9.77405 0.156738 9.57947 0 9.35461 0H6.64539C6.42053 0 6.22595 0.156738 6.17822 0.376465L5.91089 1.6062C5.5835 1.71313 5.26416 1.84558 4.95654 2.00195L3.89758 1.32117C3.70837 1.19958 3.45996 1.22632 3.30103 1.38525L1.38525 3.30103C1.22632 3.45996 1.19958 3.70837 1.32117 3.89758L2.00195 4.95654C1.84558 5.26416 1.71313 5.5835 1.6062 5.91089L0.376465 6.17822C0.156738 6.22607 0 6.42053 0 6.64539V9.35461C0 9.57947 0.156738 9.77393 0.376465 9.82178L1.6062 10.0891C1.71313 10.4165 1.84558 10.7358 2.00195 11.0435L1.32117 12.1024C1.19958 12.2916 1.22632 12.54 1.38525 12.699L3.30103 14.6147C3.45996 14.7737 3.70837 14.8004 3.89758 14.6788L4.95654 13.998C5.26416 14.1544 5.5835 14.2869 5.91089 14.3938L6.17822 15.6235C6.22595 15.8433 6.42053 16 6.64539 16H9.35461C9.57947 16 9.77405 15.8433 9.82178 15.6235L10.0891 14.3938C10.4165 14.2869 10.7358 14.1544 11.0435 13.998L12.1024 14.6788C12.2916 14.8004 12.54 14.7738 12.699 14.6147L14.6147 12.699C14.7737 12.54 14.8004 12.2916 14.6788 12.1024L13.998 11.0435C14.1544 10.7358 14.2869 10.4165 14.3938 10.0891L15.6235 9.82178C15.8433 9.77393 16 9.57947 16 9.35461V6.64539C16 6.42053 15.8433 6.22607 15.6235 6.17822ZM10.8685 8C10.8685 9.58167 9.58167 10.8685 8 10.8685C6.41833 10.8685 5.13147 9.58167 5.13147 8C5.13147 6.41833 6.41833 5.13147 8 5.13147C9.58167 5.13147 10.8685 6.41833 10.8685 8Z" fill="white"/>
</g>
<defs>
<clipPath id="clip0_221_20861">
<rect width="16" height="16" fill="white"/>
</clipPath>
</defs>
</svg>
