<svg width="16" height="16" viewBox="0 0 16 16" fill="none" xmlns="http://www.w3.org/2000/svg">
<g id="pin 1">
<g id="Group">
<g id="Group_2">
<path id="Vector" d="M12.7441 1.96473C11.4772 0.697753 9.79263 0 8.00093 0C6.20921 0 4.5247 0.697721 3.25766 1.96473C1.99072 3.23167 1.29297 4.91611 1.29297 6.70784C1.29297 8.49956 1.99072 10.1841 3.25766 11.451L7.66949 15.8627C7.76103 15.9543 7.881 16 8.00093 16C8.1209 16 8.24087 15.9542 8.33237 15.8627L12.744 11.4511C14.011 10.1841 14.7087 8.4996 14.7088 6.70787C14.7087 4.91608 14.0111 3.23164 12.7441 1.96473ZM10.1076 8.81441C9.54488 9.3771 8.79675 9.68701 8.00097 9.68701C7.20518 9.68701 6.45705 9.37713 5.89439 8.81444C5.33167 8.25175 5.0218 7.50362 5.0218 6.70784C5.0218 5.91209 5.33167 5.16396 5.89439 4.60124C6.45705 4.03855 7.20518 3.72867 8.00097 3.72867C8.79675 3.72867 9.54488 4.03855 10.1076 4.60124C10.6703 5.1639 10.9802 5.91202 10.9802 6.70781C10.9801 7.50359 10.6702 8.25175 10.1076 8.81441Z" fill="white"/>
</g>
</g>
</g>
</svg>
