<svg width="16" height="16" viewBox="0 0 16 16" fill="none" xmlns="http://www.w3.org/2000/svg">
<g id="shield 1">
<g id="Group">
<g id="Group_2">
<path id="Vector" d="M14.7145 4.11839C14.6954 3.69746 14.6954 3.29567 14.6954 2.89387C14.6954 2.56861 14.4467 2.31988 14.1214 2.31988C11.7298 2.31988 9.91213 1.63109 8.40062 0.157848C8.17102 -0.0526158 7.82663 -0.0526158 7.59703 0.157848C6.08552 1.63109 4.26788 2.31988 1.87625 2.31988C1.55099 2.31988 1.30226 2.56861 1.30226 2.89387C1.30226 3.29567 1.30226 3.69746 1.28313 4.11839C1.2066 8.13632 1.0918 13.6466 7.8075 15.9617L7.99883 16L8.19016 15.9617C14.8867 13.6466 14.7911 8.15546 14.7145 4.11839ZM7.53963 9.6861C7.42483 9.78176 7.2909 9.83916 7.13784 9.83916H7.11871C6.96564 9.83916 6.81258 9.76263 6.71691 9.64783L4.93754 7.67713L5.79853 6.91181L7.19524 8.46158L10.2948 5.5151L11.0792 6.35695L7.53963 9.6861Z" fill="white"/>
</g>
</g>
</g>
</svg>
