<svg width="18" height="18" viewBox="0 0 18 18" fill="none" xmlns="http://www.w3.org/2000/svg">
<g id="pin 2">
<g id="Group">
<g id="Group_2">
<path id="Vector" d="M14.3357 2.21032C12.9104 0.784972 11.0152 0 8.99958 0C6.98389 0 5.08882 0.784937 3.66341 2.21032C2.2381 3.63563 1.45312 5.53063 1.45312 7.54632C1.45312 9.56201 2.2381 11.4571 3.66341 12.8824L8.62672 17.8456C8.72969 17.9486 8.86465 18 8.99958 18C9.13455 18 9.26952 17.9485 9.37245 17.8456L14.3356 12.8825C15.7609 11.4571 16.5459 9.56205 16.5459 7.54635C16.5459 5.53059 15.761 3.63559 14.3357 2.21032ZM11.3695 9.91621C10.7365 10.5492 9.89488 10.8979 8.99962 10.8979C8.10436 10.8979 7.26272 10.5493 6.62973 9.91625C5.99667 9.28322 5.64806 8.44158 5.64806 7.54632C5.64806 6.6511 5.99667 5.80945 6.62973 5.17639C7.26272 4.54337 8.10436 4.19475 8.99962 4.19475C9.89488 4.19475 10.7365 4.54337 11.3695 5.17639C12.0026 5.80938 12.3512 6.65103 12.3512 7.54628C12.3512 8.44154 12.0025 9.28322 11.3695 9.91621Z" fill="#6F73EE"/>
</g>
</g>
</g>
</svg>
