<svg width="19" height="19" viewBox="0 0 19 19" fill="none" xmlns="http://www.w3.org/2000/svg">
<g id="viber 1" clip-path="url(#clip0_362_57415)">
<path id="Vector" d="M10.4463 10.6694C10.2405 10.8754 9.90661 10.8754 9.70062 10.6694L7.30422 8.27299C7.20535 8.17412 7.14973 8.03995 7.14973 7.90015C7.14973 7.76021 7.20535 7.62617 7.30422 7.52716L7.73022 7.1013L6.47901 5.8501L5.45399 6.87512C5.10902 7.22009 5.10916 7.78136 5.45399 8.12633L9.84728 12.5199C10.0133 12.6859 10.2355 12.7773 10.473 12.7773C10.7104 12.7773 10.9326 12.6858 11.0986 12.5198L12.1237 11.4949L10.8724 10.2435L10.4463 10.6694Z" fill="#6F73EE"/>
<path id="Vector_2" d="M18.0756 6.85312C18.0756 5.16246 17.4131 3.56889 16.2099 2.36575C15.0067 1.16261 13.4132 0.5 11.7226 0.5H7.95831C7.95831 0.5 7.95831 0.5 7.95818 0.5C6.26779 0.5 4.67422 1.16261 3.47122 2.36562C2.26808 3.56876 1.60547 5.16246 1.60547 6.85298V9.81187C1.60547 11.121 2.00482 12.3805 2.76041 13.454C3.427 14.401 4.32349 15.1407 5.3687 15.6098V17.3094C5.3687 18.1881 5.86075 18.4999 6.28207 18.5C6.5831 18.5 6.88426 18.3514 7.17732 18.0585L9.07068 16.1649H11.7228C13.4133 16.1649 15.0069 15.5022 16.21 14.2991C17.4131 13.096 18.0758 11.5024 18.0758 9.81187L18.0756 6.85312ZM13.24 11.868L11.842 13.2658C11.4767 13.6311 10.9897 13.832 10.4706 13.832C9.95151 13.832 9.46454 13.631 9.09924 13.2658L4.70581 8.87227C3.94981 8.116 3.94981 6.88567 4.70581 6.12953L6.10382 4.73166C6.2027 4.63264 6.33673 4.57716 6.47667 4.57716C6.61647 4.57716 6.75064 4.63264 6.84952 4.73166L8.84656 6.7287C8.94543 6.82758 9.00092 6.96175 9.00092 7.10155C9.00092 7.24135 8.94543 7.37552 8.84642 7.4744L8.42056 7.90025L10.0713 9.55095L10.4973 9.12495C10.7032 8.9191 11.0371 8.9191 11.243 9.12509L13.24 11.1221C13.339 11.221 13.3945 11.3552 13.3945 11.495C13.3945 11.6349 13.339 11.7691 13.24 11.868ZM9.44119 5.61949C9.44119 5.32835 9.67726 5.09215 9.96854 5.09215C11.7957 5.09215 13.2823 6.5786 13.2823 8.40562C13.2823 8.6969 13.0462 8.93297 12.7549 8.93297C12.4638 8.93297 12.2276 8.6969 12.2276 8.40562C12.2276 7.16019 11.2142 6.14684 9.96854 6.14684C9.67726 6.14684 9.44119 5.91077 9.44119 5.61949ZM15.0141 8.93324C14.7229 8.93324 14.4868 8.69704 14.4868 8.4059C14.4869 7.19891 14.0169 6.0643 13.1635 5.2108C12.31 4.35744 11.1754 3.88736 9.9684 3.88736C9.67726 3.88736 9.44106 3.65129 9.44106 3.36002C9.44106 3.06888 9.67726 2.83267 9.9684 2.83267C11.457 2.83267 12.8566 3.41248 13.9092 4.4651C14.962 5.51773 15.5416 6.91725 15.5415 8.4059C15.5415 8.69704 15.3054 8.93324 15.0141 8.93324Z" fill="#6F73EE"/>
</g>
<defs>
<clipPath id="clip0_362_57415">
<rect width="18" height="18" fill="white" transform="translate(0.832031 0.5)"/>
</clipPath>
</defs>
</svg>
