<svg width="18" height="18" viewBox="0 0 18 18" fill="none" xmlns="http://www.w3.org/2000/svg">
<g id="warning 1">
<g id="surface1">
<path id="Vector" d="M16.4809 7.71157L10.2533 1.48401C9.9186 1.14917 9.4734 0.964844 9.00001 0.964844C8.52662 0.964844 8.08143 1.14917 7.74672 1.48401L1.51917 7.71157C1.18445 8.04629 1 8.49136 1 8.96487C1 9.43838 1.18445 9.88345 1.51917 10.2182L7.74672 16.4457C8.08143 16.7806 8.52662 16.9649 9.00001 16.9649C9.4734 16.9649 9.9186 16.7806 10.2533 16.4457L16.4807 10.2182C16.8156 9.88345 17 9.43838 17 8.96487C17 8.49136 16.8156 8.04629 16.4809 7.71157ZM9.48097 12.1813C9.47939 12.1963 9.47719 12.2116 9.47401 12.2266C9.47096 12.2416 9.46718 12.2566 9.46278 12.2714C9.45839 12.2858 9.45314 12.3005 9.44716 12.3145C9.44154 12.3285 9.43471 12.3427 9.42775 12.3561C9.42067 12.3695 9.41249 12.3827 9.40407 12.3955C9.39552 12.4084 9.38649 12.4206 9.37685 12.4324C9.36708 12.4443 9.35646 12.4559 9.34584 12.4668C9.33498 12.4775 9.32338 12.4881 9.31142 12.4977C9.29958 12.5075 9.28737 12.5165 9.27455 12.5249C9.26173 12.5334 9.24855 12.5415 9.23512 12.5487C9.22169 12.5556 9.20766 12.5622 9.1935 12.5682C9.17946 12.574 9.16481 12.5794 9.1504 12.5838C9.13563 12.5882 9.12074 12.5918 9.10573 12.595C9.09071 12.5978 9.07533 12.6004 9.06032 12.6018C9.04506 12.6034 9.02943 12.604 9.01405 12.604C8.99879 12.604 8.98341 12.6034 8.96803 12.6018C8.95277 12.6004 8.93751 12.5978 8.92238 12.595C8.90749 12.5918 8.89247 12.5882 8.87807 12.5838C8.8633 12.5794 8.84865 12.574 8.83461 12.5682C8.82045 12.5622 8.80665 12.5556 8.79335 12.5487C8.7798 12.5415 8.76637 12.5334 8.75355 12.5249C8.7411 12.5165 8.72853 12.5075 8.71669 12.4977C8.70473 12.4881 8.69325 12.4775 8.68251 12.4668C8.67164 12.4559 8.66127 12.4443 8.65126 12.4324C8.64186 12.4206 8.63258 12.4084 8.62404 12.3955C8.61561 12.3827 8.6078 12.3695 8.6006 12.3561C8.59352 12.3427 8.58693 12.3285 8.58095 12.3145C8.57533 12.3005 8.56996 12.2858 8.56557 12.2714C8.56093 12.2566 8.55714 12.2416 8.55433 12.2266C8.55128 12.2116 8.54909 12.1963 8.5475 12.1813C8.54591 12.1659 8.54506 12.1503 8.54506 12.135C8.54506 12.1197 8.54591 12.1044 8.5475 12.089C8.54909 12.0738 8.55128 12.0584 8.55433 12.0434C8.55714 12.0284 8.56093 12.0133 8.56557 11.9991C8.56996 11.9843 8.57533 11.9699 8.58095 11.9555C8.58693 11.9414 8.5934 11.9277 8.6006 11.9142C8.6078 11.9008 8.61561 11.8874 8.62404 11.8749C8.63258 11.8621 8.64186 11.8495 8.65126 11.8377C8.66127 11.8257 8.67164 11.8142 8.68251 11.8033C8.69325 11.7926 8.70473 11.7823 8.71669 11.7723C8.72853 11.7629 8.74098 11.7536 8.75355 11.745C8.76637 11.7366 8.7798 11.7288 8.79335 11.7216C8.80678 11.7144 8.82045 11.7079 8.83461 11.7019C8.84865 11.696 8.8633 11.691 8.87807 11.6866C8.89247 11.6819 8.90736 11.6781 8.92238 11.6753C8.93739 11.6723 8.95277 11.6697 8.96803 11.6685C8.99843 11.6653 9.02968 11.6653 9.06032 11.6685C9.07533 11.6697 9.09071 11.6723 9.10573 11.6753C9.12062 11.6781 9.13563 11.6819 9.1504 11.6866C9.16481 11.691 9.17946 11.696 9.1935 11.7019C9.20766 11.7079 9.22169 11.7144 9.23512 11.7216C9.24855 11.7288 9.26173 11.7366 9.27455 11.745C9.28737 11.7536 9.29958 11.7629 9.31142 11.7723C9.32338 11.7823 9.33498 11.7926 9.34584 11.8033C9.35646 11.8142 9.3672 11.8257 9.37685 11.8377C9.38649 11.8495 9.39552 11.8621 9.40407 11.8749C9.41249 11.8874 9.42055 11.9008 9.42775 11.9142C9.43471 11.9277 9.44154 11.9414 9.44716 11.9555C9.45314 11.9699 9.45839 11.9843 9.46278 11.9991C9.46718 12.0133 9.47096 12.0284 9.47401 12.0434C9.47719 12.0584 9.47939 12.0738 9.48097 12.089C9.48256 12.1044 9.48317 12.1197 9.48317 12.135C9.48317 12.1503 9.48256 12.1659 9.48097 12.1813ZM9.48317 10.6653C9.48317 10.9244 9.27321 11.1344 9.01417 11.1344C8.75514 11.1344 8.54506 10.9244 8.54506 10.6653V5.79982C8.54506 5.54079 8.75514 5.3307 9.01417 5.3307C9.27321 5.3307 9.48317 5.54079 9.48317 5.79982V10.6653Z" fill="#6F73EE"/>
</g>
</g>
</svg>
