<svg width="19" height="19" viewBox="0 0 19 19" fill="none" xmlns="http://www.w3.org/2000/svg">
<g id="003-whatsapp 1" clip-path="url(#clip0_362_57419)">
<path id="Vector" d="M9.49518 0.505864C4.52755 0.506918 0.501342 4.53485 0.502396 9.50248C0.502748 11.2226 0.996366 12.9065 1.92464 14.3547L0.525234 17.9855C0.450712 18.1787 0.546843 18.3956 0.739947 18.4701C0.783129 18.4868 0.82898 18.4953 0.875254 18.4953C0.918189 18.4955 0.960809 18.4881 1.00118 18.4735L4.74897 17.1355C8.96565 19.7618 14.5129 18.4724 17.1391 14.2557C19.7652 10.039 18.4759 4.49174 14.2592 1.86557C12.8298 0.975309 11.1792 0.504212 9.49518 0.505864Z" fill="#75D14A"/>
<path id="Vector_2" d="M13.7817 11.0366C13.7817 11.0366 12.8635 10.5869 12.2886 10.2871C11.638 9.95201 10.8735 10.5794 10.5137 10.9362C9.95372 10.7211 9.44229 10.3964 9.00932 9.98124C8.59405 9.54834 8.2694 9.03691 8.05437 8.47688C8.41117 8.11636 9.03704 7.35255 8.7035 6.70195C8.40741 6.12629 7.95395 5.20809 7.95395 5.20809C7.89032 5.08182 7.76106 5.00209 7.61964 5.00195H6.87009C5.77851 5.19049 4.98483 6.14294 4.99621 7.25062C4.99621 8.42741 6.40462 10.6881 7.35433 11.6385C8.30404 12.5889 10.5647 13.9966 11.7422 13.9966C12.8499 14.008 13.8024 13.2143 13.9909 12.1228V11.3732C13.991 11.2303 13.9099 11.0997 13.7817 11.0366Z" fill="white"/>
</g>
<defs>
<clipPath id="clip0_362_57419">
<rect width="18" height="18" fill="white" transform="translate(0.5 0.5)"/>
</clipPath>
</defs>
</svg>
