<svg width="134" height="84" viewBox="0 0 134 84" fill="none" xmlns="http://www.w3.org/2000/svg">
<g id="Group">
<path id="Vector" d="M67 84C104.003 84 134 77.5026 134 69.4878C134 61.4729 104.003 54.9756 67 54.9756C29.9969 54.9756 0 61.4729 0 69.4878C0 77.5026 29.9969 84 67 84Z" fill="white"/>
<g id="Group_2">
<path id="Vector_2" d="M115.156 27.5269L93.9131 3.68129C92.8934 2.05593 91.4048 1.07324 89.8365 1.07324H44.1635C42.5953 1.07324 41.1066 2.05593 40.0869 3.67922L18.8438 27.529V46.683H115.156V27.5269Z" stroke="#EAEBED"/>
<path id="Vector_3" d="M87.1272 34.1009C87.1272 30.7734 89.2084 28.0265 91.79 28.0244H115.156V65.6255C115.156 70.0268 112.393 73.6342 108.98 73.6342H25.0203C21.6075 73.6342 18.8438 70.0248 18.8438 65.6255V28.0244H42.21C44.7916 28.0244 46.8728 30.7672 46.8728 34.0947V34.1403C46.8728 37.4677 48.977 40.1545 51.5565 40.1545H82.4435C85.023 40.1545 87.1272 37.4428 87.1272 34.1154V34.1009Z" fill="white" stroke="#EAEBED"/>
</g>
</g>
</svg>
